Playfair_5pt SemiExpanded Black.ufo
<glyph name="numbersign" format="2">
  <advance width="889"/>
  <unicode hex="0023"/>
  <outline>
    <contour>
      <point x="487" y="13" type="line"/>
      <point x="617" y="49" type="line"/>
      <point x="741" y="690" type="line"/>
      <point x="611" y="653" type="line"/>
    </contour>
    <contour>
      <point x="47" y="11" type="line"/>
      <point x="770" y="212" type="line"/>
      <point x="784" y="286" type="line"/>
      <point x="61" y="84" type="line"/>
    </contour>
    <contour>
      <point x="150" y="-81" type="line"/>
      <point x="280" y="-45" type="line"/>
      <point x="404" y="596" type="line"/>
      <point x="274" y="560" type="line"/>
    </contour>
    <contour>
      <point x="105" y="314" type="line"/>
      <point x="828" y="516" type="line"/>
      <point x="842" y="589" type="line"/>
      <point x="119" y="388" type="line"/>
    </contour>
  </outline>
</glyph>
<glyph name="percent" format="2">
  <advance width="950"/>
  <unicode hex="0025"/>
  <outline>
    <contour>
      <point x="210" y="-14" type="line"/>
      <point x="775" y="498" type="line"/>
      <point x="743" y="533" type="line"/>
      <point x="177" y="21" type="line"/>
    </contour>
    <contour>
      <point x="677" y="-14" type="curve" smooth="yes"/>
      <point x="780" y="-14"/>
      <point x="850" y="38"/>
      <point x="850" y="115" type="curve" smooth="yes"/>
      <point x="850" y="189"/>
      <point x="785" y="237"/>
      <point x="685" y="237" type="curve" smooth="yes"/>
      <point x="582" y="237"/>
      <point x="512" y="185"/>
      <point x="512" y="108" type="curve" smooth="yes"/>
      <point x="512" y="34"/>
      <point x="577" y="-14"/>
    </contour>
    <contour>
      <point x="683" y="34" type="curve" smooth="yes"/>
      <point x="646" y="34"/>
      <point x="625" y="62"/>
      <point x="625" y="112" type="curve" smooth="yes"/>
      <point x="625" y="162"/>
      <point x="644" y="189"/>
      <point x="680" y="189" type="curve" smooth="yes"/>
      <point x="717" y="189"/>
      <point x="737" y="161"/>
      <point x="737" y="110" type="curve" smooth="yes"/>
      <point x="737" y="60"/>
      <point x="718" y="34"/>
    </contour>
    <contour>
      <point x="265" y="282" type="curve" smooth="yes"/>
      <point x="368" y="282"/>
      <point x="438" y="334"/>
      <point x="438" y="410" type="curve" smooth="yes"/>
      <point x="438" y="484"/>
      <point x="372" y="533"/>
      <point x="273" y="533" type="curve" smooth="yes"/>
      <point x="170" y="533"/>
      <point x="100" y="481"/>
      <point x="100" y="404" type="curve" smooth="yes"/>
      <point x="100" y="331"/>
      <point x="166" y="282"/>
    </contour>
    <contour>
      <point x="271" y="330" type="curve" smooth="yes"/>
      <point x="234" y="330"/>
      <point x="213" y="358"/>
      <point x="213" y="408" type="curve" smooth="yes"/>
      <point x="213" y="458"/>
      <point x="232" y="485"/>
      <point x="268" y="485" type="curve" smooth="yes"/>
      <point x="305" y="485"/>
      <point x="325" y="457"/>
      <point x="325" y="406" type="curve" smooth="yes"/>
      <point x="325" y="356"/>
      <point x="306" y="330"/>
    </contour>
    <contour>
      <point x="545" y="447" type="curve" smooth="yes"/>
      <point x="610" y="447"/>
      <point x="668" y="466"/>
      <point x="729" y="507" type="curve"/>
      <point x="743" y="533" type="line"/>
      <point x="694" y="509"/>
      <point x="623" y="495"/>
      <point x="549" y="495" type="curve" smooth="yes"/>
      <point x="484" y="495"/>
      <point x="399" y="506"/>
      <point x="347" y="522" type="curve"/>
      <point x="370" y="496" type="line"/>
      <point x="432" y="462"/>
      <point x="487" y="447"/>
    </contour>
  </outline>
</glyph>
<glyph name="ampersand" format="2">
  <advance width="1475"/>
  <unicode hex="0026"/>
  <outline>
    <contour>
      <point x="480" y="-14" type="curve" smooth="yes"/>
      <point x="766" y="-14"/>
      <point x="948" y="97"/>
      <point x="1044" y="337" type="curve"/>
      <point x="982" y="348" type="line"/>
      <point x="908" y="172"/>
      <point x="765" y="85"/>
      <point x="550" y="85" type="curve" smooth="yes"/>
      <point x="353" y="85"/>
      <point x="237" y="163"/>
      <point x="237" y="293" type="curve" smooth="yes"/>
      <point x="237" y="385"/>
      <point x="303" y="466"/>
      <point x="382" y="466" type="curve" smooth="yes"/>
      <point x="415" y="466"/>
      <point x="435" y="451"/>
      <point x="435" y="423" type="curve" smooth="yes"/>
      <point x="435" y="374"/>
      <point x="381" y="323"/>
      <point x="298" y="290" type="curve"/>
      <point x="331" y="224" type="line"/>
      <point x="630" y="339"/>
      <point x="852" y="510"/>
      <point x="852" y="628" type="curve" smooth="yes"/>
      <point x="852" y="678"/>
      <point x="813" y="712"/>
      <point x="758" y="712" type="curve" smooth="yes"/>
      <point x="715" y="712"/>
      <point x="683" y="690"/>
      <point x="683" y="658" type="curve" smooth="yes"/>
      <point x="683" y="622"/>
      <point x="722" y="597"/>
      <point x="722" y="561" type="curve" smooth="yes"/>
      <point x="722" y="508"/>
      <point x="637" y="439"/>
      <point x="465" y="351" type="curve"/>
      <point x="482" y="329" type="line"/>
      <point x="540" y="374"/>
      <point x="568" y="408"/>
      <point x="568" y="444" type="curve" smooth="yes"/>
      <point x="568" y="499"/>
      <point x="501" y="533"/>
      <point x="394" y="533" type="curve" smooth="yes"/>
      <point x="198" y="533"/>
      <point x="49" y="412"/>
      <point x="49" y="249" type="curve" smooth="yes"/>
      <point x="49" y="85"/>
      <point x="211" y="-14"/>
    </contour>
    <contour>
      <point x="719" y="152" type="curve" smooth="yes"/>
      <point x="764" y="152"/>
      <point x="797" y="180"/>
      <point x="797" y="218" type="curve" smooth="yes"/>
      <point x="797" y="262"/>
      <point x="756" y="302"/>
      <point x="756" y="322" type="curve" smooth="yes"/>
      <point x="756" y="338"/>
      <point x="796" y="348"/>
      <point x="866" y="348" type="curve" smooth="yes"/>
      <point x="982" y="348"/>
      <point x="1083" y="308"/>
      <point x="1194" y="308" type="curve" smooth="yes"/>
      <point x="1329" y="308"/>
      <point x="1423" y="363"/>
      <point x="1423" y="436" type="curve" smooth="yes"/>
      <point x="1423" y="475"/>
      <point x="1395" y="498"/>
      <point x="1350" y="498" type="curve" smooth="yes"/>
      <point x="1248" y="498"/>
      <point x="1283" y="376"/>
      <point x="1201" y="376" type="curve" smooth="yes"/>
      <point x="1147" y="376"/>
      <point x="1044" y="438"/>
      <point x="919" y="438" type="curve" smooth="yes"/>
      <point x="758" y="438"/>
      <point x="625" y="344"/>
      <point x="625" y="243" type="curve" smooth="yes"/>
      <point x="625" y="191"/>
      <point x="664" y="152"/>
    </contour>
  </outline>
</glyph>
<glyph name="quotesingle" format="2">
  <advance width="298"/>
  <unicode hex="0027"/>
  <outline>
    <contour>
      <point x="121" y="428" type="curve"/>
      <point x="175" y="428" type="line"/>
      <point x="208" y="543"/>
      <point x="252" y="600"/>
      <point x="252" y="668" type="curve" smooth="yes"/>
      <point x="252" y="732"/>
      <point x="213" y="770"/>
      <point x="148" y="770" type="curve" smooth="yes"/>
      <point x="83" y="770"/>
      <point x="44" y="732"/>
      <point x="44" y="667" type="curve" smooth="yes"/>
      <point x="44" y="599"/>
      <point x="87" y="543"/>
    </contour>
  </outline>
</glyph>
<glyph name="parenleft" format="2">
  <advance width="607"/>
  <unicode hex="0028"/>
  <outline>
    <contour>
      <point x="547" y="-191" type="curve"/>
      <point x="572" y="-140" type="line"/>
      <point x="389" y="-35"/>
      <point x="308" y="99"/>
      <point x="308" y="295" type="curve" smooth="yes"/>
      <point x="308" y="491"/>
      <point x="389" y="625"/>
      <point x="572" y="730" type="curve"/>
      <point x="547" y="781" type="line"/>
      <point x="275" y="679"/>
      <point x="147" y="523"/>
      <point x="147" y="295" type="curve" smooth="yes"/>
      <point x="147" y="67"/>
      <point x="275" y="-89"/>
    </contour>
  </outline>
</glyph>
<glyph name="asterisk" format="2">
  <advance width="493"/>
  <unicode hex="002A"/>
  <outline>
    <contour>
      <point x="429" y="624" type="curve" smooth="yes"/>
      <point x="415" y="648"/>
      <point x="388" y="666"/>
      <point x="354" y="646" type="curve" smooth="yes"/>
      <point x="321" y="627"/>
      <point x="289" y="586"/>
      <point x="238" y="533" type="curve"/>
      <point x="254" y="504" type="line"/>
      <point x="329" y="525"/>
      <point x="377" y="529"/>
      <point x="410" y="548" type="curve" smooth="yes"/>
      <point x="445" y="568"/>
      <point x="443" y="599"/>
    </contour>
    <contour>
      <point x="429" y="413" type="curve" smooth="yes"/>
      <point x="443" y="437"/>
      <point x="445" y="469"/>
      <point x="411" y="489" type="curve" smooth="yes"/>
      <point x="378" y="508"/>
      <point x="326" y="515"/>
      <point x="255" y="533" type="curve"/>
      <point x="238" y="504" type="line"/>
      <point x="294" y="450"/>
      <point x="321" y="410"/>
      <point x="354" y="391" type="curve" smooth="yes"/>
      <point x="389" y="371"/>
      <point x="415" y="388"/>
    </contour>
    <contour>
      <point x="247" y="307" type="curve" smooth="yes"/>
      <point x="274" y="307"/>
      <point x="303" y="321"/>
      <point x="303" y="361" type="curve" smooth="yes"/>
      <point x="303" y="399"/>
      <point x="283" y="447"/>
      <point x="264" y="518" type="curve"/>
      <point x="230" y="518" type="line"/>
      <point x="211" y="443"/>
      <point x="190" y="399"/>
      <point x="190" y="361" type="curve" smooth="yes"/>
      <point x="190" y="321"/>
      <point x="218" y="307"/>
    </contour>
    <contour>
      <point x="64" y="412" type="curve" smooth="yes"/>
      <point x="77" y="388"/>
      <point x="104" y="370"/>
      <point x="139" y="390" type="curve" smooth="yes"/>
      <point x="172" y="409"/>
      <point x="203" y="451"/>
      <point x="255" y="503" type="curve"/>
      <point x="238" y="532" type="line"/>
      <point x="164" y="511"/>
      <point x="115" y="507"/>
      <point x="82" y="488" type="curve" smooth="yes"/>
      <point x="47" y="468"/>
      <point x="49" y="437"/>
    </contour>
    <contour>
      <point x="63" y="623" type="curve" smooth="yes"/>
      <point x="49" y="600"/>
      <point x="47" y="567"/>
      <point x="82" y="547" type="curve" smooth="yes"/>
      <point x="115" y="528"/>
      <point x="167" y="522"/>
      <point x="238" y="503" type="curve"/>
      <point x="254" y="532" type="line"/>
      <point x="199" y="586"/>
      <point x="171" y="626"/>
      <point x="138" y="645" type="curve" smooth="yes"/>
      <point x="103" y="666"/>
      <point x="77" y="648"/>
    </contour>
    <contour>
      <point x="246" y="729" type="curve" smooth="yes"/>
      <point x="218" y="729"/>
      <point x="189" y="715"/>
      <point x="189" y="675" type="curve" smooth="yes"/>
      <point x="189" y="637"/>
      <point x="209" y="589"/>
      <point x="229" y="518" type="curve"/>
      <point x="262" y="518" type="line"/>
      <point x="282" y="593"/>
      <point x="302" y="637"/>
      <point x="302" y="675" type="curve" smooth="yes"/>
      <point x="302" y="715"/>
      <point x="274" y="729"/>
    </contour>
  </outline>
</glyph>
<glyph name="comma" format="2">
  <advance width="377"/>
  <unicode hex="002C"/>
  <outline>
    <contour>
      <point x="134" y="-185" type="line"/>
      <point x="267" y="-145"/>
      <point x="322" y="-86"/>
      <point x="322" y="17" type="curve" smooth="yes"/>
      <point x="322" y="119"/>
      <point x="272" y="178"/>
      <point x="187" y="178" type="curve" smooth="yes"/>
      <point x="114" y="178"/>
      <point x="65" y="138"/>
      <point x="65" y="78" type="curve" smooth="yes"/>
      <point x="65" y="22"/>
      <point x="103" y="-14"/>
      <point x="163" y="-14" type="curve" smooth="yes"/>
      <point x="193" y="-14"/>
      <point x="211" y="-4"/>
      <point x="230" y="-4" type="curve" smooth="yes"/>
      <point x="245" y="-4"/>
      <point x="250" y="-10"/>
      <point x="250" y="-24" type="curve" smooth="yes"/>
      <point x="250" y="-68"/>
      <point x="201" y="-108"/>
      <point x="114" y="-134" type="curve"/>
    </contour>
  </outline>
</glyph>
<glyph name="hyphen" format="2">
  <advance width="626"/>
  <unicode hex="002D"/>
  <outline>
    <contour>
      <point x="78" y="217" type="line"/>
      <point x="548" y="217" type="line"/>
      <point x="548" y="346" type="line"/>
      <point x="78" y="346" type="line"/>
    </contour>
  </outline>
</glyph>
<glyph name="period" format="2">
  <advance width="368"/>
  <unicode hex="002E"/>
  <anchor x="0" y="0" name="^entry"/>
  <anchor x="429" y="0" name="^exit"/>
  <anchor x="184" y="0" name="_Ldot"/>
  <anchor x="184" y="164" name="_ascender"/>
  <anchor x="184" y="0" name="_baseline"/>
  <anchor x="184" y="0" name="_center"/>
  <anchor x="184" y="0" name="center"/>
  <outline>
    <contour>
      <point x="184" y="-14" type="curve" smooth="yes"/>
      <point x="256" y="-14"/>
      <point x="303" y="24"/>
      <point x="303" y="82" type="curve" smooth="yes"/>
      <point x="303" y="140"/>
      <point x="256" y="178"/>
      <point x="184" y="178" type="curve" smooth="yes"/>
      <point x="111" y="178"/>
      <point x="65" y="141"/>
      <point x="65" y="82" type="curve" smooth="yes"/>
      <point x="65" y="23"/>
      <point x="111" y="-14"/>
    </contour>
  </outline>
</glyph>
<glyph name="slash" format="2">
  <advance width="539"/>
  <unicode hex="002F"/>
  <anchor x="144" y="708" name="ascender"/>
  <anchor x="395" y="0" name="baseline"/>
  <outline>
    <contour>
      <point x="41" y="-14" type="line"/>
      <point x="124" y="-14" type="line"/>
      <point x="498" y="722" type="line"/>
      <point x="415" y="722" type="line"/>
    </contour>
  </outline>
</glyph>
<glyph name="zero" format="2">
  <advance width="865"/>
  <unicode hex="0030"/>
  <anchor x="432" y="260" name="center"/>
  <outline>
    <contour>
      <point x="426" y="-14" type="curve" smooth="yes"/>
      <point x="641" y="-14"/>
      <point x="792" y="104"/>
      <point x="792" y="268" type="curve" smooth="yes"/>
      <point x="792" y="425"/>
      <point x="650" y="533"/>
      <point x="440" y="533" type="curve" smooth="yes"/>
      <point x="225" y="533"/>
      <point x="74" y="416"/>
      <point x="74" y="252" type="curve" smooth="yes"/>
      <point x="74" y="95"/>
      <point x="217" y="-14"/>
    </contour>
    <contour>
      <point x="433" y="56" type="curve" smooth="yes"/>
      <point x="327" y="56"/>
      <point x="261" y="133"/>
      <point x="261" y="255" type="curve" smooth="yes"/>
      <point x="261" y="382"/>
      <point x="328" y="463"/>
      <point x="434" y="463" type="curve" smooth="yes"/>
      <point x="539" y="463"/>
      <point x="605" y="386"/>
      <point x="605" y="264" type="curve" smooth="yes"/>
      <point x="605" y="137"/>
      <point x="538" y="56"/>
    </contour>
  </outline>
</glyph>
<glyph name="two" format="2">
  <advance width="654"/>
  <unicode hex="0032"/>
  <outline>
    <contour>
      <point x="616" y="-5" type="curve"/>
      <point x="612" y="34"/>
      <point x="611" y="79"/>
      <point x="611" y="188" type="curve"/>
      <point x="538" y="188" type="line"/>
      <point x="532" y="155"/>
      <point x="515" y="147"/>
      <point x="452" y="147" type="curve" smooth="yes"/>
      <point x="311" y="147" type="line"/>
      <point x="311" y="157" type="line"/>
      <point x="515" y="267"/>
      <point x="558" y="312"/>
      <point x="558" y="394" type="curve" smooth="yes"/>
      <point x="558" y="484"/>
      <point x="475" y="533"/>
      <point x="324" y="533" type="curve" smooth="yes"/>
      <point x="155" y="533"/>
      <point x="40" y="471"/>
      <point x="40" y="380" type="curve" smooth="yes"/>
      <point x="40" y="326"/>
      <point x="78" y="292"/>
      <point x="137" y="292" type="curve" smooth="yes"/>
      <point x="182" y="292"/>
      <point x="211" y="312"/>
      <point x="211" y="343" type="curve" smooth="yes"/>
      <point x="211" y="377"/>
      <point x="177" y="396"/>
      <point x="177" y="421" type="curve" smooth="yes"/>
      <point x="177" y="445"/>
      <point x="208" y="459"/>
      <point x="259" y="459" type="curve" smooth="yes"/>
      <point x="333" y="459"/>
      <point x="371" y="431"/>
      <point x="371" y="376" type="curve" smooth="yes"/>
      <point x="371" y="287"/>
      <point x="271" y="194"/>
      <point x="42" y="71" type="curve"/>
      <point x="42" y="0" type="line"/>
      <point x="535" y="0" type="line" smooth="yes"/>
      <point x="579" y="0"/>
      <point x="608" y="-2"/>
    </contour>
  </outline>
</glyph>
<glyph name="three" format="2">
  <advance width="709"/>
  <unicode hex="0033"/>
  <outline>
    <contour>
      <point x="334" y="-150" type="curve" smooth="yes"/>
      <point x="525" y="-150"/>
      <point x="657" y="-74"/>
      <point x="657" y="37" type="curve" smooth="yes"/>
      <point x="657" y="113"/>
      <point x="600" y="173"/>
      <point x="480" y="205" type="curve"/>
      <point x="568" y="240"/>
      <point x="616" y="299"/>
      <point x="616" y="370" type="curve" smooth="yes"/>
      <point x="616" y="469"/>
      <point x="511" y="533"/>
      <point x="347" y="533" type="curve" smooth="yes"/>
      <point x="189" y="533"/>
      <point x="72" y="465"/>
      <point x="72" y="374" type="curve" smooth="yes"/>
      <point x="72" y="324"/>
      <point x="109" y="292"/>
      <point x="167" y="292" type="curve" smooth="yes"/>
      <point x="212" y="292"/>
      <point x="242" y="311"/>
      <point x="242" y="340" type="curve" smooth="yes"/>
      <point x="242" y="370"/>
      <point x="210" y="397"/>
      <point x="210" y="421" type="curve" smooth="yes"/>
      <point x="210" y="445"/>
      <point x="247" y="459"/>
      <point x="309" y="459" type="curve" smooth="yes"/>
      <point x="397" y="459"/>
      <point x="446" y="419"/>
      <point x="446" y="347" type="curve" smooth="yes"/>
      <point x="446" y="296"/>
      <point x="425" y="256"/>
      <point x="386" y="229" type="curve"/>
      <point x="368" y="233"/>
      <point x="347" y="235"/>
      <point x="327" y="235" type="curve" smooth="yes"/>
      <point x="283" y="235"/>
      <point x="255" y="219"/>
      <point x="255" y="194" type="curve" smooth="yes"/>
      <point x="255" y="169"/>
      <point x="280" y="153"/>
      <point x="319" y="153" type="curve" smooth="yes"/>
      <point x="337" y="153"/>
      <point x="358" y="157"/>
      <point x="389" y="166" type="curve"/>
      <point x="440" y="144"/>
      <point x="470" y="98"/>
      <point x="470" y="42" type="curve" smooth="yes"/>
      <point x="470" y="-32"/>
      <point x="406" y="-77"/>
      <point x="302" y="-77" type="curve" smooth="yes"/>
      <point x="230" y="-77"/>
      <point x="190" y="-63"/>
      <point x="190" y="-38" type="curve" smooth="yes"/>
      <point x="190" y="-10"/>
      <point x="227" y="19"/>
      <point x="227" y="55" type="curve" smooth="yes"/>
      <point x="227" y="88"/>
      <point x="195" y="110"/>
      <point x="148" y="110" type="curve" smooth="yes"/>
      <point x="83" y="110"/>
      <point x="41" y="72"/>
      <point x="41" y="14" type="curve" smooth="yes"/>
      <point x="41" y="-84"/>
      <point x="159" y="-150"/>
    </contour>
  </outline>
</glyph>
<glyph name="four" format="2">
  <advance width="699"/>
  <unicode hex="0034"/>
  <outline>
    <contour>
      <point x="11" y="24" type="line"/>
      <point x="662" y="24" type="line"/>
      <point x="662" y="161" type="line"/>
      <point x="105" y="161" type="line"/>
      <point x="118" y="148" type="line"/>
      <point x="412" y="447" type="line"/>
      <point x="398" y="533" type="line"/>
      <point x="11" y="140" type="line"/>
    </contour>
    <contour>
      <point x="374" y="-141" type="line"/>
      <point x="514" y="-141" type="line"/>
      <point x="514" y="533" type="line"/>
      <point x="398" y="533" type="line"/>
      <point x="374" y="448" type="line"/>
    </contour>
  </outline>
</glyph>
<glyph name="five" format="2">
  <advance width="661"/>
  <unicode hex="0035"/>
  <outline>
    <contour>
      <point x="305" y="-150" type="curve" smooth="yes"/>
      <point x="494" y="-150"/>
      <point x="613" y="-67"/>
      <point x="613" y="66" type="curve" smooth="yes"/>
      <point x="613" y="193"/>
      <point x="504" y="271"/>
      <point x="326" y="271" type="curve" smooth="yes"/>
      <point x="282" y="271"/>
      <point x="234" y="266"/>
      <point x="196" y="259" type="curve"/>
      <point x="212" y="368" type="line"/>
      <point x="248" y="365"/>
      <point x="288" y="363"/>
      <point x="333" y="363" type="curve" smooth="yes"/>
      <point x="485" y="363"/>
      <point x="570" y="419"/>
      <point x="590" y="531" type="curve"/>
      <point x="546" y="554" type="line"/>
      <point x="503" y="527"/>
      <point x="438" y="513"/>
      <point x="354" y="513" type="curve" smooth="yes"/>
      <point x="286" y="513"/>
      <point x="216" y="519"/>
      <point x="165" y="529" type="curve"/>
      <point x="120" y="221" type="line"/>
      <point x="143" y="172" type="line"/>
      <point x="169" y="184"/>
      <point x="212" y="190"/>
      <point x="261" y="190" type="curve" smooth="yes"/>
      <point x="370" y="190"/>
      <point x="428" y="145"/>
      <point x="428" y="61" type="curve" smooth="yes"/>
      <point x="428" y="-26"/>
      <point x="367" y="-80"/>
      <point x="269" y="-80" type="curve" smooth="yes"/>
      <point x="218" y="-80"/>
      <point x="190" y="-66"/>
      <point x="190" y="-40" type="curve" smooth="yes"/>
      <point x="190" y="-14"/>
      <point x="218" y="12"/>
      <point x="218" y="49" type="curve" smooth="yes"/>
      <point x="218" y="86"/>
      <point x="190" y="109"/>
      <point x="145" y="109" type="curve" smooth="yes"/>
      <point x="84" y="109"/>
      <point x="41" y="66"/>
      <point x="41" y="5" type="curve" smooth="yes"/>
      <point x="41" y="-90"/>
      <point x="144" y="-150"/>
    </contour>
    <contour>
      <point x="134" y="150" type="curve" smooth="yes"/>
      <point x="179" y="150"/>
      <point x="208" y="177"/>
      <point x="212" y="224" type="curve"/>
      <point x="193" y="258" type="line"/>
      <point x="125" y="247"/>
      <point x="88" y="221"/>
      <point x="88" y="185" type="curve" smooth="yes"/>
      <point x="88" y="163"/>
      <point x="106" y="150"/>
    </contour>
  </outline>
</glyph>
<glyph name="six" format="2">
  <advance width="774"/>
  <unicode hex="0036"/>
  <outline>
    <contour>
      <point x="395" y="-14" type="curve" smooth="yes"/>
      <point x="575" y="-14"/>
      <point x="701" y="86"/>
      <point x="701" y="228" type="curve" smooth="yes"/>
      <point x="701" y="350"/>
      <point x="596" y="438"/>
      <point x="451" y="438" type="curve" smooth="yes"/>
      <point x="356" y="438"/>
      <point x="272" y="399"/>
      <point x="243" y="341" type="curve"/>
      <point x="255" y="279" type="line"/>
      <point x="287" y="322"/>
      <point x="340" y="348"/>
      <point x="395" y="348" type="curve" smooth="yes"/>
      <point x="473" y="348"/>
      <point x="514" y="302"/>
      <point x="514" y="214" type="curve" smooth="yes"/>
      <point x="514" y="116"/>
      <point x="471" y="56"/>
      <point x="399" y="56" type="curve" smooth="yes"/>
      <point x="309" y="56"/>
      <point x="261" y="152"/>
      <point x="261" y="332" type="curve" smooth="yes"/>
      <point x="261" y="546"/>
      <point x="329" y="653"/>
      <point x="466" y="653" type="curve" smooth="yes"/>
      <point x="510" y="653"/>
      <point x="533" y="642"/>
      <point x="533" y="622" type="curve" smooth="yes"/>
      <point x="533" y="595"/>
      <point x="491" y="567"/>
      <point x="491" y="526" type="curve" smooth="yes"/>
      <point x="491" y="492"/>
      <point x="521" y="471"/>
      <point x="568" y="471" type="curve" smooth="yes"/>
      <point x="631" y="471"/>
      <point x="671" y="509"/>
      <point x="671" y="567" type="curve" smooth="yes"/>
      <point x="671" y="658"/>
      <point x="575" y="722"/>
      <point x="439" y="722" type="curve" smooth="yes"/>
      <point x="222" y="722"/>
      <point x="74" y="558"/>
      <point x="74" y="319" type="curve" smooth="yes"/>
      <point x="74" y="108"/>
      <point x="192" y="-14"/>
    </contour>
  </outline>
</glyph>
<glyph name="seven" format="2">
  <advance width="642"/>
  <unicode hex="0037"/>
  <outline>
    <contour>
      <point x="290" y="-148" type="curve" smooth="yes"/>
      <point x="351" y="-148"/>
      <point x="381" y="-103"/>
      <point x="381" y="-60" type="curve" smooth="yes"/>
      <point x="381" y="-28"/>
      <point x="375" y="-10"/>
      <point x="375" y="22" type="curve" smooth="yes"/>
      <point x="375" y="207"/>
      <point x="537" y="350"/>
      <point x="606" y="448" type="curve"/>
      <point x="606" y="519" type="line"/>
      <point x="173" y="519" type="line" smooth="yes"/>
      <point x="118" y="519"/>
      <point x="55" y="520"/>
      <point x="38" y="524" type="curve"/>
      <point x="42" y="474"/>
      <point x="44" y="417"/>
      <point x="43" y="301" type="curve"/>
      <point x="113" y="301" type="line"/>
      <point x="122" y="355"/>
      <point x="152" y="372"/>
      <point x="239" y="372" type="curve" smooth="yes"/>
      <point x="458" y="372" type="line"/>
      <point x="458" y="362" type="line"/>
      <point x="329" y="241"/>
      <point x="199" y="94"/>
      <point x="199" y="-42" type="curve" smooth="yes"/>
      <point x="199" y="-104"/>
      <point x="228" y="-148"/>
    </contour>
  </outline>
</glyph>
<glyph name="eight" format="2">
  <advance width="682"/>
  <unicode hex="0038"/>
  <outline>
    <contour>
      <point x="322" y="-14" type="curve" smooth="yes"/>
      <point x="508" y="-14"/>
      <point x="630" y="73"/>
      <point x="630" y="206" type="curve" smooth="yes"/>
      <point x="630" y="439"/>
      <point x="258" y="408"/>
      <point x="258" y="568" type="curve" smooth="yes"/>
      <point x="258" y="620"/>
      <point x="297" y="652"/>
      <point x="358" y="652" type="curve" smooth="yes"/>
      <point x="427" y="652"/>
      <point x="466" y="613"/>
      <point x="466" y="544" type="curve" smooth="yes"/>
      <point x="466" y="493"/>
      <point x="444" y="449"/>
      <point x="400" y="413" type="curve"/>
      <point x="448" y="379" type="line"/>
      <point x="542" y="430"/>
      <point x="587" y="489"/>
      <point x="587" y="559" type="curve" smooth="yes"/>
      <point x="587" y="657"/>
      <point x="493" y="722"/>
      <point x="352" y="722" type="curve" smooth="yes"/>
      <point x="193" y="722"/>
      <point x="86" y="638"/>
      <point x="86" y="513" type="curve" smooth="yes"/>
      <point x="86" y="281"/>
      <point x="455" y="315"/>
      <point x="455" y="147" type="curve" smooth="yes"/>
      <point x="455" y="89"/>
      <point x="411" y="56"/>
      <point x="336" y="56" type="curve" smooth="yes"/>
      <point x="245" y="56"/>
      <point x="189" y="105"/>
      <point x="189" y="185" type="curve" smooth="yes"/>
      <point x="189" y="244"/>
      <point x="219" y="298"/>
      <point x="270" y="330" type="curve"/>
      <point x="224" y="364" type="line"/>
      <point x="110" y="314"/>
      <point x="52" y="247"/>
      <point x="52" y="166" type="curve" smooth="yes"/>
      <point x="52" y="56"/>
      <point x="157" y="-14"/>
    </contour>
  </outline>
</glyph>
<glyph name="nine" format="2">
  <advance width="774"/>
  <unicode hex="0039"/>
  <outline>
    <contour>
      <point x="337" y="-150" type="curve" smooth="yes"/>
      <point x="557" y="-150"/>
      <point x="700" y="-7"/>
      <point x="700" y="211" type="curve" smooth="yes"/>
      <point x="700" y="412"/>
      <point x="578" y="533"/>
      <point x="375" y="533" type="curve" smooth="yes"/>
      <point x="198" y="533"/>
      <point x="73" y="441"/>
      <point x="73" y="311" type="curve" smooth="yes"/>
      <point x="73" y="197"/>
      <point x="170" y="121"/>
      <point x="316" y="121" type="curve" smooth="yes"/>
      <point x="417" y="121"/>
      <point x="499" y="158"/>
      <point x="531" y="218" type="curve"/>
      <point x="519" y="280" type="line"/>
      <point x="487" y="237"/>
      <point x="434" y="211"/>
      <point x="377" y="211" type="curve" smooth="yes"/>
      <point x="302" y="211"/>
      <point x="260" y="254"/>
      <point x="260" y="333" type="curve" smooth="yes"/>
      <point x="260" y="412"/>
      <point x="303" y="463"/>
      <point x="370" y="463" type="curve" smooth="yes"/>
      <point x="463" y="463"/>
      <point x="513" y="371"/>
      <point x="513" y="199" type="curve" smooth="yes"/>
      <point x="513" y="5"/>
      <point x="449" y="-81"/>
      <point x="304" y="-81" type="curve" smooth="yes"/>
      <point x="262" y="-81"/>
      <point x="241" y="-73"/>
      <point x="241" y="-58" type="curve" smooth="yes"/>
      <point x="241" y="-36"/>
      <point x="283" y="-7"/>
      <point x="283" y="33" type="curve" smooth="yes"/>
      <point x="283" y="67"/>
      <point x="253" y="88"/>
      <point x="206" y="88" type="curve" smooth="yes"/>
      <point x="144" y="88"/>
      <point x="103" y="51"/>
      <point x="103" y="-6" type="curve" smooth="yes"/>
      <point x="103" y="-92"/>
      <point x="198" y="-150"/>
    </contour>
  </outline>
</glyph>
<glyph name="at" format="2">
  <advance width="1244"/>
  <unicode hex="0040"/>
  <outline>
    <contour>
      <point x="542" y="-161" type="curve" smooth="yes"/>
      <point x="647" y="-161"/>
      <point x="745" y="-146"/>
      <point x="819" y="-118" type="curve"/>
      <point x="802" y="-67" type="line"/>
      <point x="725" y="-92"/>
      <point x="645" y="-103"/>
      <point x="552" y="-103" type="curve" smooth="yes"/>
      <point x="285" y="-103"/>
      <point x="151" y="-7"/>
      <point x="151" y="183" type="curve" smooth="yes"/>
      <point x="151" y="426"/>
      <point x="398" y="610"/>
      <point x="729" y="610" type="curve" smooth="yes"/>
      <point x="963" y="610"/>
      <point x="1103" y="519"/>
      <point x="1103" y="366" type="curve" smooth="yes"/>
      <point x="1103" y="222"/>
      <point x="984" y="101"/>
      <point x="858" y="101" type="curve" smooth="yes"/>
      <point x="817" y="101"/>
      <point x="803" y="112"/>
      <point x="813" y="147" type="curve" smooth="yes"/>
      <point x="855" y="299" type="line" smooth="yes"/>
      <point x="876" y="374"/>
      <point x="884" y="398"/>
      <point x="923" y="432" type="curve"/>
      <point x="878" y="478" type="line"/>
      <point x="826" y="437"/>
      <point x="784" y="413"/>
      <point x="734" y="390" type="curve"/>
      <point x="671" y="166" type="line" smooth="yes"/>
      <point x="643" y="68"/>
      <point x="703" y="26"/>
      <point x="790" y="26" type="curve" smooth="yes"/>
      <point x="1004" y="26"/>
      <point x="1173" y="172"/>
      <point x="1173" y="360" type="curve" smooth="yes"/>
      <point x="1173" y="552"/>
      <point x="1006" y="668"/>
      <point x="732" y="668" type="curve" smooth="yes"/>
      <point x="358" y="668"/>
      <point x="81" y="459"/>
      <point x="81" y="182" type="curve" smooth="yes"/>
      <point x="81" y="-41"/>
      <point x="243" y="-161"/>
    </contour>
    <contour>
      <point x="505" y="26" type="curve" smooth="yes"/>
      <point x="577" y="26"/>
      <point x="649" y="60"/>
      <point x="681" y="127" type="curve"/>
      <point x="683" y="182" type="line"/>
      <point x="652" y="129"/>
      <point x="618" y="106"/>
      <point x="568" y="106" type="curve" smooth="yes"/>
      <point x="515" y="106"/>
      <point x="487" y="139"/>
      <point x="487" y="203" type="curve" smooth="yes"/>
      <point x="487" y="312"/>
      <point x="563" y="408"/>
      <point x="650" y="408" type="curve" smooth="yes"/>
      <point x="692" y="408"/>
      <point x="715" y="386"/>
      <point x="730" y="333" type="curve"/>
      <point x="840" y="394" type="line"/>
      <point x="772" y="453"/>
      <point x="711" y="478"/>
      <point x="638" y="478" type="curve" smooth="yes"/>
      <point x="475" y="478"/>
      <point x="341" y="352"/>
      <point x="341" y="197" type="curve" smooth="yes"/>
      <point x="341" y="90"/>
      <point x="403" y="26"/>
    </contour>
  </outline>
</glyph>
<glyph name="A" format="2">
  <advance width="1045"/>
  <unicode hex="0041"/>
  <anchor x="523" y="0" name="bottom"/>
  <anchor x="510" y="354" name="center"/>
  <anchor x="823" y="0" name="ogonek"/>
  <anchor x="510" y="708" name="top"/>
  <anchor x="510" y="688" name="top_low_1"/>
  <anchor x="510" y="668" name="top_low_2"/>
  <anchor x="510" y="648" name="top_low_3"/>
  <outline>
    <contour>
      <point x="275" y="205" type="curve"/>
      <point x="442" y="508" type="line"/>
      <point x="422" y="515" type="line"/>
      <point x="616" y="189" type="line"/>
      <point x="660" y="112"/>
      <point x="647" y="81"/>
      <point x="579" y="75" type="curve"/>
      <point x="525" y="70" type="line"/>
      <point x="525" y="0" type="line"/>
      <point x="599" y="2"/>
      <point x="762" y="3"/>
      <point x="845" y="3" type="curve"/>
      <point x="844" y="3" type="line"/>
      <point x="856" y="3" type="line"/>
      <point x="902" y="3"/>
      <point x="990" y="2"/>
      <point x="1030" y="0" type="curve"/>
      <point x="1030" y="70" type="line"/>
      <point x="986" y="74" type="line"/>
      <point x="919" y="80"/>
      <point x="904" y="98"/>
      <point x="868" y="158" type="curve"/>
      <point x="541" y="708" type="line"/>
      <point x="475" y="708" type="line"/>
      <point x="188" y="195" type="line"/>
      <point x="135" y="102"/>
      <point x="106" y="80"/>
      <point x="36" y="73" type="curve"/>
      <point x="7" y="70" type="line"/>
      <point x="7" y="0" type="line"/>
      <point x="57" y="2"/>
      <point x="117" y="3"/>
      <point x="175" y="3" type="curve"/>
      <point x="241" y="3"/>
      <point x="309" y="2"/>
      <point x="369" y="0" type="curve"/>
      <point x="369" y="70" type="line"/>
      <point x="332" y="74" type="line"/>
      <point x="248" y="83"/>
      <point x="230" y="125"/>
    </contour>
    <contour>
      <point x="245" y="193" type="line"/>
      <point x="675" y="193" type="line"/>
      <point x="636" y="263" type="line"/>
      <point x="282" y="263" type="line"/>
    </contour>
  </outline>
</glyph>
<glyph name="B" format="2">
  <advance width="918"/>
  <unicode hex="0042"/>
  <anchor x="474" y="0" name="bottom"/>
  <anchor x="290" y="367" name="center"/>
  <anchor x="497" y="0" name="currency"/>
  <anchor x="482" y="708" name="top"/>
  <anchor x="482" y="688" name="top_low_1"/>
  <anchor x="482" y="668" name="top_low_2"/>
  <anchor x="482" y="648" name="top_low_3"/>
  <outline>
    <contour>
      <point x="398" y="0" type="curve"/>
      <point x="513" y="0" type="line" smooth="yes"/>
      <point x="745" y="0"/>
      <point x="878" y="73"/>
      <point x="878" y="199" type="curve" smooth="yes"/>
      <point x="878" y="297"/>
      <point x="798" y="362"/>
      <point x="653" y="382" type="curve"/>
      <point x="653" y="384" type="line"/>
      <point x="759" y="412"/>
      <point x="810" y="463"/>
      <point x="810" y="541" type="curve" smooth="yes"/>
      <point x="810" y="654"/>
      <point x="706" y="708"/>
      <point x="491" y="708" type="curve" smooth="yes"/>
      <point x="398" y="708" type="line"/>
      <point x="374" y="708"/>
      <point x="321" y="705"/>
      <point x="294" y="705" type="curve"/>
      <point x="230" y="705"/>
      <point x="105" y="706"/>
      <point x="50" y="708" type="curve"/>
      <point x="50" y="638" type="line"/>
      <point x="105" y="633" type="line"/>
      <point x="177" y="626"/>
      <point x="188" y="615"/>
      <point x="188" y="552" type="curve"/>
      <point x="188" y="156" type="line"/>
      <point x="188" y="93"/>
      <point x="177" y="82"/>
      <point x="105" y="75" type="curve"/>
      <point x="50" y="70" type="line"/>
      <point x="50" y="0" type="line"/>
      <point x="105" y="2"/>
      <point x="230" y="3"/>
      <point x="294" y="3" type="curve"/>
      <point x="321" y="3"/>
      <point x="374" y="0"/>
    </contour>
    <contour>
      <point x="494" y="73" type="curve" smooth="yes"/>
      <point x="415" y="73"/>
      <point x="391" y="92"/>
      <point x="391" y="156" type="curve" smooth="yes"/>
      <point x="391" y="638" type="line"/>
      <point x="483" y="638" type="line" smooth="yes"/>
      <point x="573" y="638"/>
      <point x="624" y="597"/>
      <point x="624" y="525" type="curve" smooth="yes"/>
      <point x="624" y="449"/>
      <point x="571" y="401"/>
      <point x="486" y="401" type="curve" smooth="yes"/>
      <point x="337" y="401" type="line"/>
      <point x="337" y="334" type="line"/>
      <point x="491" y="334" type="line" smooth="yes"/>
      <point x="606" y="334"/>
      <point x="668" y="289"/>
      <point x="668" y="204" type="curve" smooth="yes"/>
      <point x="668" y="119"/>
      <point x="607" y="73"/>
    </contour>
  </outline>
</glyph>
<glyph name="C" format="2">
  <advance width="921"/>
  <unicode hex="0043"/>
  <anchor x="516" y="0" name="bottom"/>
  <anchor x="474" y="354" name="center"/>
  <anchor x="501" y="0" name="currency"/>
  <anchor x="267" y="354" name="middlestroke"/>
  <anchor x="454" y="708" name="top"/>
  <anchor x="454" y="688" name="top_low_1"/>
  <anchor x="454" y="668" name="top_low_2"/>
  <anchor x="454" y="648" name="top_low_3"/>
  <outline>
    <contour>
      <point x="459" y="-14" type="curve" smooth="yes"/>
      <point x="636" y="-14"/>
      <point x="697" y="59"/>
      <point x="739" y="59" type="curve" smooth="yes"/>
      <point x="758" y="59"/>
      <point x="768" y="42"/>
      <point x="774" y="-4" type="curve"/>
      <point x="847" y="-4" type="line"/>
      <point x="843" y="93"/>
      <point x="842" y="155"/>
      <point x="842" y="280" type="curve"/>
      <point x="769" y="280" type="line"/>
      <point x="736" y="144"/>
      <point x="649" y="71"/>
      <point x="521" y="71" type="curve" smooth="yes"/>
      <point x="363" y="71"/>
      <point x="267" y="178"/>
      <point x="267" y="355" type="curve" smooth="yes"/>
      <point x="267" y="529"/>
      <point x="361" y="633"/>
      <point x="518" y="633" type="curve" smooth="yes"/>
      <point x="648" y="633"/>
      <point x="735" y="562"/>
      <point x="769" y="428" type="curve"/>
      <point x="842" y="428" type="line"/>
      <point x="842" y="557"/>
      <point x="843" y="616"/>
      <point x="847" y="712" type="curve"/>
      <point x="774" y="712" type="line"/>
      <point x="768" y="666"/>
      <point x="758" y="648"/>
      <point x="740" y="648" type="curve" smooth="yes"/>
      <point x="705" y="648"/>
      <point x="638" y="722"/>
      <point x="464" y="722" type="curve" smooth="yes"/>
      <point x="218" y="722"/>
      <point x="57" y="574"/>
      <point x="57" y="349" type="curve" smooth="yes"/>
      <point x="57" y="126"/>
      <point x="203" y="-14"/>
    </contour>
  </outline>
</glyph>
<glyph name="D" format="2">
  <advance width="1052"/>
  <unicode hex="0044"/>
  <anchor x="514" y="0" name="bottom"/>
  <anchor x="300" y="356" name="center"/>
  <anchor x="546" y="708" name="top"/>
  <anchor x="546" y="688" name="top_low_1"/>
  <anchor x="546" y="668" name="top_low_2"/>
  <anchor x="546" y="648" name="top_low_3"/>
  <outline>
    <contour>
      <point x="398" y="0" type="curve"/>
      <point x="478" y="0" type="line" smooth="yes"/>
      <point x="805" y="0"/>
      <point x="995" y="136"/>
      <point x="995" y="370" type="curve" smooth="yes"/>
      <point x="995" y="592"/>
      <point x="820" y="708"/>
      <point x="485" y="708" type="curve" smooth="yes"/>
      <point x="398" y="708" type="line"/>
      <point x="374" y="708"/>
      <point x="321" y="705"/>
      <point x="294" y="705" type="curve"/>
      <point x="230" y="705"/>
      <point x="105" y="706"/>
      <point x="50" y="708" type="curve"/>
      <point x="50" y="638" type="line"/>
      <point x="105" y="633" type="line"/>
      <point x="177" y="626"/>
      <point x="188" y="615"/>
      <point x="188" y="552" type="curve"/>
      <point x="188" y="156" type="line"/>
      <point x="188" y="93"/>
      <point x="177" y="82"/>
      <point x="105" y="75" type="curve"/>
      <point x="50" y="70" type="line"/>
      <point x="50" y="0" type="line"/>
      <point x="105" y="2"/>
      <point x="230" y="3"/>
      <point x="294" y="3" type="curve"/>
      <point x="321" y="3"/>
      <point x="374" y="0"/>
    </contour>
    <contour>
      <point x="491" y="68" type="curve" smooth="yes"/>
      <point x="411" y="68"/>
      <point x="391" y="85"/>
      <point x="391" y="154" type="curve" smooth="yes"/>
      <point x="391" y="640" type="line"/>
      <point x="492" y="640" type="line" smooth="yes"/>
      <point x="696" y="640"/>
      <point x="785" y="553"/>
      <point x="785" y="356" type="curve" smooth="yes"/>
      <point x="785" y="158"/>
      <point x="694" y="68"/>
    </contour>
  </outline>
</glyph>
<glyph name="E" format="2">
  <advance width="899"/>
  <unicode hex="0045"/>
  <anchor x="452" y="0" name="bottom"/>
  <anchor x="427" y="354" name="center"/>
  <anchor x="753" y="0" name="ogonek"/>
  <anchor x="426" y="708" name="top"/>
  <anchor x="426" y="688" name="top_low_1"/>
  <anchor x="426" y="668" name="top_low_2"/>
  <anchor x="426" y="648" name="top_low_3"/>
  <outline>
    <contour>
      <point x="279" y="3" type="curve"/>
      <point x="291" y="3" type="line"/>
      <point x="553" y="3" type="line"/>
      <point x="674" y="3"/>
      <point x="756" y="2"/>
      <point x="815" y="0" type="curve"/>
      <point x="814" y="87"/>
      <point x="818" y="175"/>
      <point x="831" y="280" type="curve"/>
      <point x="758" y="280" type="line"/>
      <point x="708" y="150"/>
      <point x="634" y="73"/>
      <point x="540" y="73" type="curve"/>
      <point x="477" y="73" type="line"/>
      <point x="404" y="73"/>
      <point x="391" y="87"/>
      <point x="391" y="166" type="curve"/>
      <point x="391" y="635" type="line"/>
      <point x="480" y="635" type="line"/>
      <point x="591" y="635"/>
      <point x="651" y="599"/>
      <point x="694" y="508" type="curve"/>
      <point x="767" y="508" type="line"/>
      <point x="760" y="583"/>
      <point x="758" y="646"/>
      <point x="759" y="708" type="curve"/>
      <point x="702" y="706"/>
      <point x="626" y="705"/>
      <point x="512" y="705" type="curve"/>
      <point x="291" y="705" type="line"/>
      <point x="279" y="705" type="line"/>
      <point x="220" y="705"/>
      <point x="102" y="706"/>
      <point x="50" y="708" type="curve"/>
      <point x="50" y="638" type="line"/>
      <point x="105" y="633" type="line"/>
      <point x="177" y="626"/>
      <point x="188" y="615"/>
      <point x="188" y="552" type="curve"/>
      <point x="188" y="156" type="line"/>
      <point x="188" y="93"/>
      <point x="177" y="82"/>
      <point x="105" y="75" type="curve"/>
      <point x="50" y="70" type="line"/>
      <point x="50" y="0" type="line"/>
      <point x="102" y="2"/>
      <point x="220" y="3"/>
    </contour>
    <contour>
      <point x="342" y="321" type="line"/>
      <point x="569" y="321" type="line"/>
      <point x="569" y="391" type="line"/>
      <point x="342" y="391" type="line"/>
    </contour>
    <contour>
      <point x="556" y="204" type="curve"/>
      <point x="629" y="204" type="line"/>
      <point x="625" y="260"/>
      <point x="624" y="299"/>
      <point x="624" y="356" type="curve" smooth="yes"/>
      <point x="624" y="413"/>
      <point x="625" y="452"/>
      <point x="629" y="508" type="curve"/>
      <point x="556" y="508" type="line"/>
      <point x="547" y="430"/>
      <point x="510" y="391"/>
      <point x="445" y="391" type="curve"/>
      <point x="445" y="321" type="line"/>
      <point x="510" y="321"/>
      <point x="547" y="282"/>
    </contour>
  </outline>
</glyph>
<glyph name="G" format="2">
  <advance width="955"/>
  <unicode hex="0047"/>
  <anchor x="522" y="0" name="bottom"/>
  <anchor x="473" y="708" name="top"/>
  <anchor x="473" y="688" name="top_low_1"/>
  <anchor x="473" y="668" name="top_low_2"/>
  <anchor x="473" y="648" name="top_low_3"/>
  <outline>
    <contour>
      <point x="467" y="-14" type="curve" smooth="yes"/>
      <point x="652" y="-14"/>
      <point x="704" y="57"/>
      <point x="756" y="57" type="curve" smooth="yes"/>
      <point x="778" y="57"/>
      <point x="789" y="40"/>
      <point x="793" y="0" type="curve"/>
      <point x="866" y="0" type="line"/>
      <point x="866" y="168" type="line" smooth="yes"/>
      <point x="866" y="239"/>
      <point x="874" y="251"/>
      <point x="925" y="254" type="curve"/>
      <point x="925" y="324" type="line"/>
      <point x="886" y="322"/>
      <point x="827" y="321"/>
      <point x="748" y="321" type="curve" smooth="yes"/>
      <point x="656" y="321"/>
      <point x="590" y="322"/>
      <point x="561" y="324" type="curve"/>
      <point x="561" y="254" type="line"/>
      <point x="640" y="252"/>
      <point x="663" y="232"/>
      <point x="663" y="168" type="curve" smooth="yes"/>
      <point x="663" y="138" type="line" smooth="yes"/>
      <point x="663" y="85"/>
      <point x="613" y="59"/>
      <point x="514" y="59" type="curve" smooth="yes"/>
      <point x="357" y="59"/>
      <point x="267" y="167"/>
      <point x="267" y="355" type="curve" smooth="yes"/>
      <point x="267" y="530"/>
      <point x="361" y="633"/>
      <point x="522" y="633" type="curve" smooth="yes"/>
      <point x="642" y="633"/>
      <point x="732" y="572"/>
      <point x="780" y="458" type="curve"/>
      <point x="853" y="458" type="line"/>
      <point x="853" y="605"/>
      <point x="854" y="665"/>
      <point x="858" y="708" type="curve"/>
      <point x="785" y="708" type="line"/>
      <point x="779" y="666"/>
      <point x="769" y="648"/>
      <point x="751" y="648" type="curve" smooth="yes"/>
      <point x="715" y="648"/>
      <point x="647" y="722"/>
      <point x="461" y="722" type="curve" smooth="yes"/>
      <point x="218" y="722"/>
      <point x="57" y="573"/>
      <point x="57" y="349" type="curve" smooth="yes"/>
      <point x="57" y="125"/>
      <point x="214" y="-14"/>
    </contour>
  </outline>
</glyph>
<glyph name="I" format="2">
  <advance width="579"/>
  <unicode hex="0049"/>
  <anchor x="50" y="0" name="#entry"/>
  <anchor x="529" y="0" name="^exit"/>
  <anchor x="290" y="0" name="bottom"/>
  <anchor x="290" y="354" name="center"/>
  <anchor x="455" y="0" name="ogonek"/>
  <anchor x="289" y="708" name="top"/>
  <anchor x="289" y="688" name="top_low_1"/>
  <anchor x="289" y="668" name="top_low_2"/>
  <anchor x="289" y="648" name="top_low_3"/>
  <outline>
    <contour>
      <point x="279" y="3" type="curve"/>
      <point x="290" y="3" type="line"/>
      <point x="300" y="3" type="line"/>
      <point x="359" y="3"/>
      <point x="477" y="2"/>
      <point x="529" y="0" type="curve"/>
      <point x="529" y="70" type="line"/>
      <point x="474" y="75" type="line"/>
      <point x="402" y="82"/>
      <point x="391" y="93"/>
      <point x="391" y="156" type="curve"/>
      <point x="391" y="552" type="line"/>
      <point x="391" y="615"/>
      <point x="402" y="626"/>
      <point x="474" y="633" type="curve"/>
      <point x="529" y="638" type="line"/>
      <point x="529" y="708" type="line"/>
      <point x="477" y="706"/>
      <point x="359" y="705"/>
      <point x="300" y="705" type="curve"/>
      <point x="290" y="705" type="line"/>
      <point x="279" y="705" type="line"/>
      <point x="220" y="705"/>
      <point x="102" y="706"/>
      <point x="50" y="708" type="curve"/>
      <point x="50" y="638" type="line"/>
      <point x="105" y="633" type="line"/>
      <point x="177" y="626"/>
      <point x="188" y="615"/>
      <point x="188" y="552" type="curve"/>
      <point x="188" y="156" type="line"/>
      <point x="188" y="93"/>
      <point x="177" y="82"/>
      <point x="105" y="75" type="curve"/>
      <point x="50" y="70" type="line"/>
      <point x="50" y="0" type="line"/>
      <point x="102" y="2"/>
      <point x="220" y="3"/>
    </contour>
  </outline>
</glyph>
<glyph name="K" format="2">
  <advance width="990"/>
  <unicode hex="004B"/>
  <anchor x="535" y="0" name="bottom"/>
  <anchor x="563" y="356" name="center"/>
  <anchor x="289" y="520" name="stroke"/>
  <anchor x="524" y="708" name="top"/>
  <anchor x="524" y="688" name="top_low_1"/>
  <anchor x="524" y="668" name="top_low_2"/>
  <anchor x="524" y="648" name="top_low_3"/>
  <outline>
    <contour>
      <point x="672" y="0" type="curve"/>
      <point x="714" y="2"/>
      <point x="757" y="3"/>
      <point x="799" y="3" type="curve" smooth="yes"/>
      <point x="834" y="3"/>
      <point x="891" y="2"/>
      <point x="985" y="0" type="curve"/>
      <point x="985" y="70" type="line"/>
      <point x="893" y="82"/>
      <point x="864" y="97"/>
      <point x="839" y="156" type="curve" smooth="yes"/>
      <point x="807" y="232" type="line" smooth="yes"/>
      <point x="753" y="361"/>
      <point x="708" y="405"/>
      <point x="619" y="420" type="curve"/>
      <point x="598" y="364" type="line"/>
      <point x="758" y="540" type="line" smooth="yes"/>
      <point x="818" y="606"/>
      <point x="860" y="626"/>
      <point x="959" y="638" type="curve"/>
      <point x="959" y="708" type="line"/>
      <point x="865" y="706"/>
      <point x="822" y="705"/>
      <point x="769" y="705" type="curve" smooth="yes"/>
      <point x="697" y="705"/>
      <point x="622" y="706"/>
      <point x="558" y="708" type="curve"/>
      <point x="558" y="638" type="line"/>
      <point x="679" y="635"/>
      <point x="697" y="580"/>
      <point x="626" y="501" type="curve" smooth="yes"/>
      <point x="571" y="440" type="line" smooth="yes"/>
      <point x="534" y="399"/>
      <point x="515" y="391"/>
      <point x="456" y="391" type="curve" smooth="yes"/>
      <point x="330" y="391" type="line"/>
      <point x="330" y="321" type="line"/>
      <point x="443" y="321" type="line" smooth="yes"/>
      <point x="528" y="321"/>
      <point x="564" y="298"/>
      <point x="596" y="222" type="curve" smooth="yes"/>
      <point x="641" y="116" type="line" smooth="yes"/>
      <point x="666" y="56"/>
      <point x="674" y="27"/>
    </contour>
    <contour>
      <point x="279" y="3" type="curve"/>
      <point x="289" y="3" type="line"/>
      <point x="300" y="3" type="line"/>
      <point x="359" y="3"/>
      <point x="477" y="2"/>
      <point x="529" y="0" type="curve"/>
      <point x="529" y="70" type="line"/>
      <point x="474" y="75" type="line"/>
      <point x="402" y="82"/>
      <point x="391" y="93"/>
      <point x="391" y="156" type="curve"/>
      <point x="391" y="708" type="line"/>
      <point x="357" y="706"/>
      <point x="323" y="705"/>
      <point x="289" y="705" type="curve"/>
      <point x="279" y="705" type="line"/>
      <point x="220" y="705"/>
      <point x="102" y="706"/>
      <point x="50" y="708" type="curve"/>
      <point x="50" y="638" type="line"/>
      <point x="105" y="633" type="line"/>
      <point x="177" y="626"/>
      <point x="188" y="615"/>
      <point x="188" y="552" type="curve"/>
      <point x="188" y="156" type="line"/>
      <point x="188" y="93"/>
      <point x="177" y="82"/>
      <point x="105" y="75" type="curve"/>
      <point x="50" y="70" type="line"/>
      <point x="50" y="0" type="line"/>
      <point x="102" y="2"/>
      <point x="220" y="3"/>
    </contour>
  </outline>
</glyph>
<glyph name="M" format="2">
  <advance width="1294"/>
  <unicode hex="004D"/>
  <anchor x="647" y="0" name="bottom"/>
  <anchor x="647" y="708" name="top"/>
  <anchor x="647" y="688" name="top_low_1"/>
  <anchor x="647" y="668" name="top_low_2"/>
  <anchor x="647" y="648" name="top_low_3"/>
  <outline>
    <contour>
      <point x="554" y="0" type="line"/>
      <point x="620" y="0" type="line"/>
      <point x="882" y="594" type="line"/>
      <point x="903" y="594" type="line"/>
      <point x="903" y="156" type="line"/>
      <point x="903" y="93"/>
      <point x="894" y="82"/>
      <point x="830" y="74" type="curve"/>
      <point x="793" y="70" type="line"/>
      <point x="792" y="0" type="line"/>
      <point x="844" y="2"/>
      <point x="946" y="3"/>
      <point x="996" y="3" type="curve"/>
      <point x="1005" y="3" type="line"/>
      <point x="1015" y="3" type="line"/>
      <point x="1074" y="3"/>
      <point x="1192" y="2"/>
      <point x="1244" y="0" type="curve"/>
      <point x="1244" y="70" type="line"/>
      <point x="1189" y="75" type="line"/>
      <point x="1117" y="82"/>
      <point x="1106" y="93"/>
      <point x="1106" y="156" type="curve"/>
      <point x="1106" y="552" type="line"/>
      <point x="1106" y="615"/>
      <point x="1117" y="626"/>
      <point x="1189" y="633" type="curve"/>
      <point x="1244" y="637" type="line"/>
      <point x="1244" y="707" type="line"/>
      <point x="1192" y="706"/>
      <point x="1074" y="705"/>
      <point x="1015" y="705" type="curve"/>
      <point x="1001" y="705" type="line"/>
      <point x="950" y="705"/>
      <point x="913" y="706"/>
      <point x="856" y="707" type="curve"/>
      <point x="637" y="213" type="line"/>
      <point x="676" y="217" type="line"/>
      <point x="451" y="708" type="line"/>
      <point x="413" y="706"/>
      <point x="358" y="705"/>
      <point x="294" y="705" type="curve"/>
      <point x="279" y="705" type="line"/>
      <point x="220" y="705"/>
      <point x="102" y="706"/>
      <point x="50" y="708" type="curve"/>
      <point x="50" y="638" type="line"/>
      <point x="105" y="633" type="line"/>
      <point x="177" y="626"/>
      <point x="188" y="615"/>
      <point x="188" y="552" type="curve"/>
      <point x="188" y="156" type="line"/>
      <point x="188" y="93"/>
      <point x="177" y="82"/>
      <point x="105" y="75" type="curve"/>
      <point x="50" y="70" type="line"/>
      <point x="50" y="0" type="line"/>
      <point x="90" y="2"/>
      <point x="180" y="3"/>
      <point x="225" y="3" type="curve"/>
      <point x="258" y="3"/>
      <point x="327" y="2"/>
      <point x="374" y="0" type="curve"/>
      <point x="374" y="70" type="line"/>
      <point x="329" y="74" type="line"/>
      <point x="269" y="79"/>
      <point x="261" y="93"/>
      <point x="261" y="156" type="curve"/>
      <point x="261" y="594" type="line"/>
      <point x="282" y="594" type="line"/>
    </contour>
  </outline>
</glyph>
<glyph name="O" format="2">
  <advance width="1030"/>
  <unicode hex="004F"/>
  <anchor x="516" y="0" name="bottom"/>
  <anchor x="515" y="354" name="center"/>
  <anchor x="658" y="0" name="ogonek"/>
  <anchor x="515" y="708" name="top"/>
  <anchor x="515" y="688" name="top_low_1"/>
  <anchor x="515" y="668" name="top_low_2"/>
  <anchor x="515" y="648" name="top_low_3"/>
  <anchor x="26" y="708" name="topleft"/>
  <anchor x="1003" y="708" name="topright"/>
  <outline>
    <contour>
      <point x="515" y="-14" type="curve" smooth="yes"/>
      <point x="791" y="-14"/>
      <point x="973" y="138"/>
      <point x="973" y="354" type="curve" smooth="yes"/>
      <point x="973" y="570"/>
      <point x="791" y="722"/>
      <point x="515" y="722" type="curve" smooth="yes"/>
      <point x="239" y="722"/>
      <point x="57" y="570"/>
      <point x="57" y="354" type="curve" smooth="yes"/>
      <point x="57" y="138"/>
      <point x="239" y="-14"/>
    </contour>
    <contour>
      <point x="515" y="54" type="curve" smooth="yes"/>
      <point x="371" y="54"/>
      <point x="267" y="170"/>
      <point x="267" y="354" type="curve" smooth="yes"/>
      <point x="267" y="538"/>
      <point x="371" y="654"/>
      <point x="515" y="654" type="curve" smooth="yes"/>
      <point x="660" y="654"/>
      <point x="763" y="537"/>
      <point x="763" y="354" type="curve" smooth="yes"/>
      <point x="763" y="170"/>
      <point x="660" y="54"/>
    </contour>
  </outline>
</glyph>
<glyph name="R" format="2">
  <advance width="943"/>
  <unicode hex="0052"/>
  <anchor x="188" y="0" name="baseline_left"/>
  <anchor x="518" y="0" name="bottom"/>
  <anchor x="289" y="346" name="center"/>
  <anchor x="188" y="180" name="stem"/>
  <anchor x="465" y="708" name="top"/>
  <outline>
    <contour>
      <point x="188" y="180" type="line"/>
      <point x="391" y="180" type="line"/>
      <point x="391" y="638" type="line"/>
      <point x="496" y="638" type="line" smooth="yes"/>
      <point x="599" y="638"/>
      <point x="651" y="596"/>
      <point x="651" y="515" type="curve" smooth="yes"/>
      <point x="651" y="431"/>
      <point x="594" y="381"/>
      <point x="498" y="381" type="curve" smooth="yes"/>
      <point x="302" y="381" type="line"/>
      <point x="302" y="342" type="line"/>
      <point x="462" y="342" type="line" smooth="yes"/>
      <point x="711" y="342"/>
      <point x="841" y="408"/>
      <point x="841" y="535" type="curve" smooth="yes"/>
      <point x="841" y="652"/>
      <point x="729" y="708"/>
      <point x="492" y="708" type="curve" smooth="yes"/>
      <point x="426" y="708"/>
      <point x="375" y="705"/>
      <point x="289" y="705" type="curve"/>
      <point x="279" y="705" type="line"/>
      <point x="220" y="705"/>
      <point x="102" y="706"/>
      <point x="50" y="708" type="curve"/>
      <point x="50" y="638" type="line"/>
      <point x="105" y="633" type="line"/>
      <point x="177" y="626"/>
      <point x="188" y="615"/>
      <point x="188" y="552" type="curve"/>
    </contour>
    <contour>
      <point x="807" y="-14" type="curve" smooth="yes"/>
      <point x="877" y="-14"/>
      <point x="932" y="4"/>
      <point x="972" y="40" type="curve"/>
      <point x="943" y="101" type="line"/>
      <point x="929" y="94"/>
      <point x="911" y="90"/>
      <point x="895" y="90" type="curve" smooth="yes"/>
      <point x="860" y="90"/>
      <point x="840" y="113"/>
      <point x="827" y="154" type="curve" smooth="yes"/>
      <point x="819" y="179" type="line" smooth="yes"/>
      <point x="776" y="312"/>
      <point x="682" y="359"/>
      <point x="454" y="359" type="curve" smooth="yes"/>
      <point x="308" y="359" type="line"/>
      <point x="308" y="311" type="line"/>
      <point x="439" y="311" type="line" smooth="yes"/>
      <point x="539" y="311"/>
      <point x="579" y="284"/>
      <point x="601" y="197" type="curve" smooth="yes"/>
      <point x="617" y="134" type="line" smooth="yes"/>
      <point x="645" y="25"/>
      <point x="694" y="-14"/>
    </contour>
    <contour>
      <point x="279" y="3" type="curve"/>
      <point x="291" y="3" type="line"/>
      <point x="297" y="3" type="line"/>
      <point x="342" y="3"/>
      <point x="436" y="2"/>
      <point x="488" y="0" type="curve"/>
      <point x="488" y="70" type="line"/>
      <point x="458" y="73" type="line"/>
      <point x="399" y="81"/>
      <point x="391" y="93"/>
      <point x="391" y="156" type="curve"/>
      <point x="391" y="180" type="line"/>
      <point x="188" y="180" type="line"/>
      <point x="188" y="156" type="line"/>
      <point x="188" y="93"/>
      <point x="177" y="82"/>
      <point x="105" y="75" type="curve"/>
      <point x="50" y="71" type="line"/>
      <point x="50" y="1" type="line"/>
      <point x="102" y="2"/>
      <point x="220" y="3"/>
    </contour>
  </outline>
</glyph>
<glyph name="S" format="2">
  <advance width="813"/>
  <unicode hex="0053"/>
  <anchor x="421" y="0" name="bottom"/>
  <anchor x="412" y="354" name="center"/>
  <anchor x="413" y="0" name="currency"/>
  <anchor x="416" y="708" name="top"/>
  <anchor x="416" y="688" name="top_low_1"/>
  <anchor x="416" y="668" name="top_low_2"/>
  <anchor x="416" y="648" name="top_low_3"/>
  <outline>
    <contour>
      <point x="439" y="-14" type="curve" smooth="yes"/>
      <point x="644" y="-14"/>
      <point x="763" y="68"/>
      <point x="763" y="210" type="curve" smooth="yes"/>
      <point x="763" y="328"/>
      <point x="695" y="385"/>
      <point x="473" y="446" type="curve" smooth="yes"/>
      <point x="277" y="499"/>
      <point x="255" y="527"/>
      <point x="255" y="572" type="curve" smooth="yes"/>
      <point x="255" y="615"/>
      <point x="299" y="645"/>
      <point x="393" y="645" type="curve" smooth="yes"/>
      <point x="519" y="645"/>
      <point x="612" y="576"/>
      <point x="644" y="458" type="curve"/>
      <point x="717" y="458" type="line"/>
      <point x="717" y="624"/>
      <point x="718" y="667"/>
      <point x="723" y="712" type="curve"/>
      <point x="650" y="712" type="line"/>
      <point x="646" y="681"/>
      <point x="640" y="671"/>
      <point x="626" y="671" type="curve" smooth="yes"/>
      <point x="595" y="671"/>
      <point x="518" y="722"/>
      <point x="369" y="722" type="curve" smooth="yes"/>
      <point x="183" y="722"/>
      <point x="74" y="643"/>
      <point x="74" y="507" type="curve" smooth="yes"/>
      <point x="74" y="400"/>
      <point x="150" y="328"/>
      <point x="377" y="273" type="curve" smooth="yes"/>
      <point x="526" y="237"/>
      <point x="578" y="208"/>
      <point x="578" y="153" type="curve" smooth="yes"/>
      <point x="578" y="95"/>
      <point x="525" y="66"/>
      <point x="419" y="66" type="curve" smooth="yes"/>
      <point x="258" y="66"/>
      <point x="170" y="137"/>
      <point x="139" y="293" type="curve"/>
      <point x="66" y="293" type="line"/>
      <point x="66" y="109"/>
      <point x="65" y="49"/>
      <point x="61" y="-4" type="curve"/>
      <point x="134" y="-4" type="line"/>
      <point x="137" y="25"/>
      <point x="144" y="37"/>
      <point x="158" y="37" type="curve" smooth="yes"/>
      <point x="187" y="37"/>
      <point x="277" y="-14"/>
    </contour>
  </outline>
</glyph>
<glyph name="T" format="2">
  <advance width="865"/>
  <unicode hex="0054"/>
  <anchor x="534" y="0" name="#exit"/>
  <anchor x="534" y="0" name="%exit"/>
  <anchor x="433" y="0" name="bottom"/>
  <anchor x="433" y="354" name="center"/>
  <anchor x="433" y="285" name="center_lowered"/>
  <outline>
    <contour>
      <point x="420" y="3" type="curve"/>
      <point x="432" y="3" type="line"/>
      <point x="445" y="3" type="line"/>
      <point x="511" y="3"/>
      <point x="638" y="2"/>
      <point x="700" y="0" type="curve"/>
      <point x="700" y="70" type="line"/>
      <point x="607" y="77" type="line"/>
      <point x="546" y="83"/>
      <point x="534" y="97"/>
      <point x="534" y="156" type="curve"/>
      <point x="534" y="250" type="line"/>
      <point x="331" y="250" type="line"/>
      <point x="331" y="156" type="line"/>
      <point x="331" y="97"/>
      <point x="319" y="84"/>
      <point x="258" y="78" type="curve"/>
      <point x="165" y="71" type="line"/>
      <point x="165" y="1" type="line"/>
      <point x="227" y="2"/>
      <point x="354" y="3"/>
    </contour>
    <component base="_UC-T-upper"/>
  </outline>
</glyph>
<glyph name="V" format="2">
  <advance width="1045"/>
  <unicode hex="0056"/>
  <anchor x="537" y="0" name="bottom"/>
  <anchor x="529" y="708" name="top"/>
  <anchor x="529" y="688" name="top_low_1"/>
  <anchor x="529" y="668" name="top_low_2"/>
  <anchor x="529" y="648" name="top_low_3"/>
  <outline>
    <contour>
      <point x="504" y="0" type="line"/>
      <point x="570" y="0" type="line"/>
      <point x="857" y="513" type="line"/>
      <point x="910" y="606"/>
      <point x="939" y="628"/>
      <point x="1009" y="635" type="curve"/>
      <point x="1038" y="638" type="line"/>
      <point x="1038" y="708" type="line"/>
      <point x="988" y="706"/>
      <point x="928" y="705"/>
      <point x="870" y="705" type="curve"/>
      <point x="804" y="705"/>
      <point x="736" y="706"/>
      <point x="676" y="708" type="curve"/>
      <point x="676" y="638" type="line"/>
      <point x="713" y="634" type="line"/>
      <point x="797" y="625"/>
      <point x="815" y="583"/>
      <point x="770" y="503" type="curve"/>
      <point x="603" y="200" type="line"/>
      <point x="623" y="193" type="line"/>
      <point x="429" y="519" type="line"/>
      <point x="385" y="596"/>
      <point x="398" y="627"/>
      <point x="466" y="633" type="curve"/>
      <point x="520" y="638" type="line"/>
      <point x="520" y="708" type="line"/>
      <point x="446" y="706"/>
      <point x="283" y="705"/>
      <point x="200" y="705" type="curve"/>
      <point x="201" y="705" type="line"/>
      <point x="189" y="705" type="line"/>
      <point x="143" y="705"/>
      <point x="55" y="706"/>
      <point x="15" y="708" type="curve"/>
      <point x="15" y="638" type="line"/>
      <point x="59" y="634" type="line"/>
      <point x="126" y="628"/>
      <point x="141" y="610"/>
      <point x="177" y="550" type="curve"/>
    </contour>
  </outline>
</glyph>
<glyph name="X" format="2">
  <advance width="977"/>
  <unicode hex="0058"/>
  <anchor x="489" y="0" name="bottom"/>
  <anchor x="999" y="0" name="bottomright"/>
  <anchor x="489" y="708" name="top"/>
  <anchor x="489" y="688" name="top_low_1"/>
  <anchor x="489" y="668" name="top_low_2"/>
  <anchor x="489" y="648" name="top_low_3"/>
  <outline>
    <contour>
      <point x="837" y="3" type="curve"/>
      <point x="849" y="3" type="line"/>
      <point x="874" y="2" type="line"/>
      <point x="920" y="3"/>
      <point x="1008" y="2"/>
      <point x="1048" y="0" type="curve"/>
      <point x="1048" y="70" type="line"/>
      <point x="1004" y="74" type="line"/>
      <point x="937" y="80"/>
      <point x="900" y="81"/>
      <point x="850" y="130" type="curve"/>
      <point x="434" y="552" type="line"/>
      <point x="373" y="616"/>
      <point x="361" y="627"/>
      <point x="429" y="633" type="curve"/>
      <point x="483" y="638" type="line"/>
      <point x="483" y="708" type="line"/>
      <point x="409" y="706"/>
      <point x="246" y="705"/>
      <point x="163" y="705" type="curve"/>
      <point x="151" y="705" type="line"/>
      <point x="126" y="706" type="line"/>
      <point x="80" y="705"/>
      <point x="-8" y="706"/>
      <point x="-48" y="708" type="curve"/>
      <point x="-48" y="638" type="line"/>
      <point x="-4" y="634" type="line"/>
      <point x="63" y="628"/>
      <point x="100" y="627"/>
      <point x="150" y="578" type="curve"/>
      <point x="566" y="156" type="line"/>
      <point x="627" y="92"/>
      <point x="639" y="81"/>
      <point x="571" y="75" type="curve"/>
      <point x="517" y="70" type="line"/>
      <point x="517" y="0" type="line"/>
      <point x="591" y="2"/>
      <point x="754" y="3"/>
    </contour>
    <contour>
      <point x="286" y="160" type="curve"/>
      <point x="483" y="325" type="line"/>
      <point x="410" y="350" type="line"/>
      <point x="196" y="152" type="line"/>
      <point x="118" y="80"/>
      <point x="60" y="80"/>
      <point x="-10" y="73" type="curve"/>
      <point x="-39" y="70" type="line"/>
      <point x="-39" y="0" type="line"/>
      <point x="11" y="2"/>
      <point x="71" y="3"/>
      <point x="129" y="3" type="curve"/>
      <point x="195" y="3"/>
      <point x="263" y="2"/>
      <point x="323" y="0" type="curve"/>
      <point x="323" y="70" type="line"/>
      <point x="286" y="74" type="line"/>
      <point x="202" y="83"/>
      <point x="219" y="97"/>
    </contour>
    <contour>
      <point x="554" y="375" type="line"/>
      <point x="750" y="556" type="line"/>
      <point x="828" y="629"/>
      <point x="886" y="628"/>
      <point x="956" y="635" type="curve"/>
      <point x="985" y="638" type="line"/>
      <point x="985" y="708" type="line"/>
      <point x="935" y="706"/>
      <point x="875" y="705"/>
      <point x="817" y="705" type="curve"/>
      <point x="751" y="705"/>
      <point x="683" y="706"/>
      <point x="623" y="708" type="curve"/>
      <point x="623" y="638" type="line"/>
      <point x="660" y="634" type="line"/>
      <point x="744" y="625"/>
      <point x="727" y="611"/>
      <point x="660" y="548" type="curve"/>
      <point x="481" y="400" type="line"/>
    </contour>
  </outline>
</glyph>
<glyph name="Y" format="2">
  <advance width="1018"/>
  <unicode hex="0059"/>
  <anchor x="539" y="0" name="bottom"/>
  <anchor x="540" y="255" name="center"/>
  <anchor x="536" y="708" name="top"/>
  <anchor x="536" y="688" name="top_low_1"/>
  <anchor x="536" y="668" name="top_low_2"/>
  <anchor x="536" y="648" name="top_low_3"/>
  <outline>
    <contour>
      <point x="494" y="199" type="line"/>
      <point x="580" y="199" type="line"/>
      <point x="801" y="523" type="line"/>
      <point x="858" y="612"/>
      <point x="895" y="627"/>
      <point x="960" y="635" type="curve"/>
      <point x="986" y="638" type="line"/>
      <point x="986" y="708" type="line"/>
      <point x="940" y="706"/>
      <point x="884" y="705"/>
      <point x="830" y="705" type="curve"/>
      <point x="769" y="705"/>
      <point x="706" y="706"/>
      <point x="650" y="708" type="curve"/>
      <point x="650" y="638" type="line"/>
      <point x="683" y="634" type="line"/>
      <point x="759" y="625"/>
      <point x="764" y="590"/>
      <point x="712" y="514" type="curve"/>
      <point x="566" y="299" type="line"/>
      <point x="625" y="337" type="line"/>
      <point x="461" y="542" type="line"/>
      <point x="408" y="610"/>
      <point x="405" y="627"/>
      <point x="470" y="633" type="curve"/>
      <point x="516" y="638" type="line"/>
      <point x="516" y="708" type="line"/>
      <point x="447" y="706"/>
      <point x="290" y="705"/>
      <point x="211" y="705" type="curve"/>
      <point x="206" y="705" type="line"/>
      <point x="196" y="705" type="line"/>
      <point x="158" y="705"/>
      <point x="90" y="706"/>
      <point x="52" y="708" type="curve"/>
      <point x="52" y="638" type="line"/>
      <point x="83" y="635" type="line"/>
      <point x="130" y="630"/>
      <point x="156" y="622"/>
      <point x="192" y="579" type="curve"/>
    </contour>
    <contour>
      <point x="527" y="3" type="curve"/>
      <point x="539" y="3" type="line"/>
      <point x="552" y="3" type="line"/>
      <point x="618" y="3"/>
      <point x="745" y="2"/>
      <point x="807" y="0" type="curve"/>
      <point x="807" y="70" type="line"/>
      <point x="714" y="77" type="line"/>
      <point x="653" y="83"/>
      <point x="641" y="97"/>
      <point x="641" y="156" type="curve"/>
      <point x="641" y="393" type="line"/>
      <point x="550" y="249" type="line"/>
      <point x="438" y="311" type="line"/>
      <point x="438" y="156" type="line"/>
      <point x="438" y="97"/>
      <point x="426" y="84"/>
      <point x="365" y="78" type="curve"/>
      <point x="272" y="71" type="line"/>
      <point x="272" y="1" type="line"/>
      <point x="334" y="2"/>
      <point x="461" y="3"/>
    </contour>
  </outline>
</glyph>
<glyph name="Z" format="2">
  <advance width="812"/>
  <unicode hex="005A"/>
  <anchor x="397" y="0" name="bottom"/>
  <anchor x="394" y="354" name="center"/>
  <anchor x="392" y="708" name="top"/>
  <anchor x="392" y="688" name="top_low_1"/>
  <anchor x="392" y="668" name="top_low_2"/>
  <anchor x="392" y="648" name="top_low_3"/>
  <outline>
    <contour>
      <point x="44" y="0" type="line"/>
      <point x="145" y="3"/>
      <point x="266" y="3"/>
      <point x="370" y="3" type="curve" smooth="yes"/>
      <point x="426" y="3" type="line"/>
      <point x="565" y="3"/>
      <point x="659" y="2"/>
      <point x="728" y="0" type="curve"/>
      <point x="727" y="87"/>
      <point x="731" y="175"/>
      <point x="744" y="280" type="curve"/>
      <point x="671" y="280" type="line"/>
      <point x="613" y="150"/>
      <point x="530" y="73"/>
      <point x="413" y="73" type="curve"/>
      <point x="294" y="73" type="line"/>
      <point x="729" y="638" type="line"/>
      <point x="729" y="708" type="line"/>
      <point x="638" y="705"/>
      <point x="527" y="705"/>
      <point x="433" y="705" type="curve" smooth="yes"/>
      <point x="326" y="705" type="line"/>
      <point x="214" y="705"/>
      <point x="138" y="706"/>
      <point x="82" y="708" type="curve"/>
      <point x="83" y="646"/>
      <point x="81" y="583"/>
      <point x="74" y="508" type="curve"/>
      <point x="147" y="508" type="line"/>
      <point x="195" y="595"/>
      <point x="262" y="635"/>
      <point x="373" y="635" type="curve"/>
      <point x="479" y="635" type="line"/>
      <point x="44" y="70" type="line"/>
    </contour>
  </outline>
</glyph>
<glyph name="bracketleft" format="2">
  <advance width="409"/>
  <unicode hex="005B"/>
  <outline>
    <contour>
      <point x="109" y="-181" type="line"/>
      <point x="369" y="-181" type="line"/>
      <point x="369" y="-112" type="line"/>
      <point x="289" y="-112" type="line"/>
      <point x="289" y="703" type="line"/>
      <point x="369" y="703" type="line"/>
      <point x="369" y="772" type="line"/>
      <point x="109" y="772" type="line"/>
    </contour>
  </outline>
</glyph>
<glyph name="asciicircum" format="2">
  <advance width="685"/>
  <unicode hex="005E"/>
  <outline>
    <contour>
      <point x="85" y="290" type="line"/>
      <point x="317" y="377" type="line"/>
      <point x="601" y="290" type="line"/>
      <point x="627" y="342" type="line"/>
      <point x="374" y="533" type="line"/>
      <point x="316" y="533" type="line"/>
      <point x="59" y="342" type="line"/>
    </contour>
  </outline>
</glyph>
<glyph name="b" format="2">
  <advance width="813"/>
  <unicode hex="0062"/>
  <anchor x="314" y="260" name="#entry"/>
  <anchor x="314" y="260" name="#exit"/>
  <anchor x="420" y="0" name="bottom"/>
  <anchor x="438" y="261" name="center"/>
  <anchor x="421" y="773" name="top"/>
  <anchor x="134" y="520" name="top-left"/>
  <outline>
    <contour>
      <point x="498" y="534" type="curve" smooth="yes"/>
      <point x="401" y="534"/>
      <point x="326" y="492"/>
      <point x="294" y="419" type="curve"/>
      <point x="309" y="365" type="line"/>
      <point x="332" y="409"/>
      <point x="373" y="432"/>
      <point x="428" y="432" type="curve" smooth="yes"/>
      <point x="518" y="432"/>
      <point x="567" y="369"/>
      <point x="567" y="256" type="curve" smooth="yes"/>
      <point x="567" y="137"/>
      <point x="513" y="73"/>
      <point x="413" y="73" type="curve" smooth="yes"/>
      <point x="357" y="73"/>
      <point x="314" y="92"/>
      <point x="287" y="129" type="curve"/>
      <point x="274" y="41" type="line"/>
      <point x="330" y="5"/>
      <point x="391" y="-13"/>
      <point x="462" y="-13" type="curve" smooth="yes"/>
      <point x="640" y="-13"/>
      <point x="754" y="96"/>
      <point x="754" y="267" type="curve" smooth="yes"/>
      <point x="754" y="426"/>
      <point x="650" y="534"/>
    </contour>
    <component base="_LC-ascender-left-inserif"/>
    <component base="_LC-baseline-left-instroke" xOffset="4"/>
  </outline>
</glyph>
<glyph name="c" format="2">
  <advance width="656"/>
  <unicode hex="0063"/>
  <anchor x="365" y="0" name="bottom"/>
  <anchor x="349" y="259" name="center"/>
  <anchor x="363" y="0" name="currency"/>
  <anchor x="487" y="519" name="hook"/>
  <anchor x="359" y="520" name="top"/>
  <outline>
    <contour>
      <point x="351" y="-14" type="curve" smooth="yes"/>
      <point x="469" y="-14"/>
      <point x="561" y="35"/>
      <point x="618" y="128" type="curve"/>
      <point x="560" y="174" type="line"/>
      <point x="520" y="122"/>
      <point x="468" y="96"/>
      <point x="404" y="96" type="curve" smooth="yes"/>
      <point x="302" y="96"/>
      <point x="246" y="156"/>
      <point x="246" y="266" type="curve" smooth="yes"/>
      <point x="246" y="382"/>
      <point x="309" y="454"/>
      <point x="410" y="454" type="curve" smooth="yes"/>
      <point x="447" y="454"/>
      <point x="466" y="445"/>
      <point x="466" y="427" type="curve" smooth="yes"/>
      <point x="466" y="398"/>
      <point x="413" y="373"/>
      <point x="413" y="329" type="curve" smooth="yes"/>
      <point x="413" y="295"/>
      <point x="444" y="272"/>
      <point x="492" y="272" type="curve" smooth="yes"/>
      <point x="559" y="272"/>
      <point x="607" y="318"/>
      <point x="607" y="382" type="curve" smooth="yes"/>
      <point x="607" y="473"/>
      <point x="512" y="533"/>
      <point x="368" y="533" type="curve" smooth="yes"/>
      <point x="177" y="533"/>
      <point x="59" y="427"/>
      <point x="59" y="255" type="curve" smooth="yes"/>
      <point x="59" y="88"/>
      <point x="170" y="-14"/>
    </contour>
  </outline>
</glyph>
<glyph name="e" format="2">
  <advance width="688"/>
  <unicode hex="0065"/>
  <anchor x="366" y="0" name="bottom"/>
  <anchor x="362" y="259" name="center"/>
  <anchor x="469" y="0" name="ogonek"/>
  <anchor x="349" y="520" name="top"/>
  <anchor x="349" y="500" name="top_low_1"/>
  <anchor x="349" y="480" name="top_low_2"/>
  <anchor x="349" y="460" name="top_low_3"/>
  <outline>
    <contour>
      <point x="358" y="-14" type="curve" smooth="yes"/>
      <point x="482" y="-14"/>
      <point x="575" y="34"/>
      <point x="634" y="128" type="curve"/>
      <point x="576" y="174" type="line"/>
      <point x="532" y="122"/>
      <point x="475" y="96"/>
      <point x="405" y="96" type="curve" smooth="yes"/>
      <point x="299" y="96"/>
      <point x="246" y="157"/>
      <point x="246" y="282" type="curve" smooth="yes"/>
      <point x="246" y="297"/>
      <point x="246" y="303"/>
      <point x="248" y="314" type="curve"/>
      <point x="243" y="322" type="line"/>
      <point x="247" y="408"/>
      <point x="292" y="460"/>
      <point x="362" y="460" type="curve" smooth="yes"/>
      <point x="429" y="460"/>
      <point x="465" y="416"/>
      <point x="465" y="333" type="curve"/>
      <point x="188" y="333" type="line"/>
      <point x="191" y="264" type="line"/>
      <point x="631" y="264" type="line"/>
      <point x="638" y="435"/>
      <point x="540" y="533"/>
      <point x="363" y="533" type="curve" smooth="yes"/>
      <point x="177" y="533"/>
      <point x="59" y="426"/>
      <point x="59" y="257" type="curve" smooth="yes"/>
      <point x="59" y="91"/>
      <point x="175" y="-14"/>
    </contour>
  </outline>
</glyph>
<glyph name="g" format="2">
  <advance width="697"/>
  <unicode hex="0067"/>
  <anchor x="360" y="-231" name="bottom"/>
  <anchor x="356" y="0" name="center"/>
  <anchor x="320" y="520" name="top"/>
  <outline>
    <contour>
      <point x="288" y="-239" type="curve" smooth="yes"/>
      <point x="521" y="-239"/>
      <point x="674" y="-151"/>
      <point x="674" y="-18" type="curve" smooth="yes"/>
      <point x="674" y="78"/>
      <point x="597" y="130"/>
      <point x="456" y="130" type="curve" smooth="yes"/>
      <point x="323" y="130" type="line" smooth="yes"/>
      <point x="272" y="130"/>
      <point x="243" y="144"/>
      <point x="243" y="169" type="curve" smooth="yes"/>
      <point x="243" y="185"/>
      <point x="254" y="202"/>
      <point x="275" y="218" type="curve"/>
      <point x="214" y="226" type="line"/>
      <point x="140" y="183"/>
      <point x="109" y="144"/>
      <point x="109" y="94" type="curve" smooth="yes"/>
      <point x="109" y="23"/>
      <point x="178" y="-16"/>
      <point x="303" y="-16" type="curve" smooth="yes"/>
      <point x="441" y="-16" type="line" smooth="yes"/>
      <point x="489" y="-16"/>
      <point x="515" y="-33"/>
      <point x="515" y="-65" type="curve" smooth="yes"/>
      <point x="515" y="-126"/>
      <point x="430" y="-172"/>
      <point x="315" y="-172" type="curve" smooth="yes"/>
      <point x="222" y="-172"/>
      <point x="171" y="-141"/>
      <point x="171" y="-84" type="curve" smooth="yes"/>
      <point x="171" y="-46"/>
      <point x="194" y="-14"/>
      <point x="230" y="0" type="curve"/>
      <point x="169" y="21" type="line"/>
      <point x="65" y="-9"/>
      <point x="11" y="-54"/>
      <point x="11" y="-110" type="curve" smooth="yes"/>
      <point x="11" y="-190"/>
      <point x="117" y="-239"/>
    </contour>
    <contour>
      <point x="312" y="213" type="curve" smooth="yes"/>
      <point x="471" y="213"/>
      <point x="563" y="272"/>
      <point x="563" y="373" type="curve" smooth="yes"/>
      <point x="563" y="474"/>
      <point x="471" y="533"/>
      <point x="312" y="533" type="curve" smooth="yes"/>
      <point x="152" y="533"/>
      <point x="57" y="473"/>
      <point x="57" y="373" type="curve" smooth="yes"/>
      <point x="57" y="273"/>
      <point x="153" y="213"/>
    </contour>
    <contour>
      <point x="314" y="281" type="curve" smooth="yes"/>
      <point x="256" y="281"/>
      <point x="221" y="315"/>
      <point x="221" y="373" type="curve" smooth="yes"/>
      <point x="221" y="431"/>
      <point x="256" y="465"/>
      <point x="314" y="465" type="curve" smooth="yes"/>
      <point x="375" y="465"/>
      <point x="409" y="432"/>
      <point x="409" y="373" type="curve" smooth="yes"/>
      <point x="409" y="314"/>
      <point x="375" y="281"/>
    </contour>
    <contour>
      <point x="455" y="449" type="line"/>
      <point x="692" y="449" type="line"/>
      <point x="692" y="519" type="line"/>
      <point x="335" y="519" type="line"/>
    </contour>
  </outline>
</glyph>
<glyph name="k" format="2">
  <advance width="831"/>
  <unicode hex="006B"/>
  <anchor x="429" y="0" name="bottom"/>
  <anchor x="426" y="758" name="top"/>
  <outline>
    <contour>
      <point x="26" y="0" type="line"/>
      <point x="64" y="1"/>
      <point x="151" y="4"/>
      <point x="225" y="4" type="curve" smooth="yes"/>
      <point x="299" y="4"/>
      <point x="378" y="1"/>
      <point x="414" y="0" type="curve"/>
      <point x="414" y="71" type="line"/>
      <point x="332" y="75"/>
      <point x="310" y="90"/>
      <point x="310" y="143" type="curve" smooth="yes"/>
      <point x="310" y="782" type="line"/>
      <point x="252" y="773"/>
      <point x="190" y="768"/>
      <point x="131" y="768" type="curve" smooth="yes"/>
      <point x="99" y="768"/>
      <point x="63" y="769"/>
      <point x="26" y="771" type="curve"/>
      <point x="26" y="700" type="line"/>
      <point x="104" y="700"/>
      <point x="130" y="678"/>
      <point x="130" y="612" type="curve" smooth="yes"/>
      <point x="130" y="143" type="line" smooth="yes"/>
      <point x="130" y="90"/>
      <point x="109" y="75"/>
      <point x="26" y="71" type="curve"/>
    </contour>
    <contour>
      <point x="542" y="0" type="curve"/>
      <point x="576" y="2"/>
      <point x="610" y="3"/>
      <point x="644" y="3" type="curve" smooth="yes"/>
      <point x="678" y="3"/>
      <point x="734" y="2"/>
      <point x="816" y="0" type="curve"/>
      <point x="816" y="71" type="line"/>
      <point x="739" y="82"/>
      <point x="712" y="96"/>
      <point x="684" y="155" type="curve" smooth="yes"/>
      <point x="662" y="202" type="line" smooth="yes"/>
      <point x="616" y="300"/>
      <point x="589" y="319"/>
      <point x="482" y="323" type="curve"/>
      <point x="486" y="282" type="line"/>
      <point x="638" y="394" type="line" smooth="yes"/>
      <point x="688" y="432"/>
      <point x="735" y="448"/>
      <point x="775" y="448" type="curve"/>
      <point x="775" y="519" type="line"/>
      <point x="726" y="517"/>
      <point x="666" y="516"/>
      <point x="612" y="516" type="curve" smooth="yes"/>
      <point x="549" y="516"/>
      <point x="494" y="517"/>
      <point x="450" y="519" type="curve"/>
      <point x="450" y="448" type="line"/>
      <point x="534" y="446"/>
      <point x="560" y="415"/>
      <point x="492" y="364" type="curve" smooth="yes"/>
      <point x="457" y="338" type="line" smooth="yes"/>
      <point x="431" y="319"/>
      <point x="414" y="313"/>
      <point x="380" y="313" type="curve" smooth="yes"/>
      <point x="283" y="313" type="line"/>
      <point x="283" y="242" type="line"/>
      <point x="374" y="242" type="line" smooth="yes"/>
      <point x="435" y="242"/>
      <point x="457" y="228"/>
      <point x="481" y="178" type="curve" smooth="yes"/>
      <point x="511" y="115" type="line" smooth="yes"/>
      <point x="536" y="62"/>
      <point x="544" y="30"/>
    </contour>
    <component base="_LC-baseline-normal-narrow"/>
    <component base="_LC-ascender-left-inserif" xOffset="6"/>
    <component base="_LC-k-legs" xOffset="259"/>
  </outline>
</glyph>
<glyph name="l" format="2">
  <advance width="438"/>
  <unicode hex="006C"/>
  <anchor x="134" y="260" name="#entry"/>
  <anchor x="314" y="260" name="#exit"/>
  <anchor x="-162" y="0" name="%entry"/>
  <anchor x="134" y="0" name="%exit"/>
  <anchor x="-2" y="0" name="^entry"/>
  <anchor x="378" y="0" name="^exit"/>
  <anchor x="224" y="0" name="bottom"/>
  <anchor x="224" y="354" name="center"/>
  <anchor x="362" y="520" name="right"/>
  <anchor x="134" y="260" name="stem"/>
  <anchor x="224" y="771" name="top"/>
  <anchor x="371" y="771" name="topright"/>
  <outline>
    <contour>
      <point x="224" y="3" type="curve"/>
      <point x="224" y="3" type="line"/>
      <point x="224" y="3" type="line"/>
      <point x="297" y="3"/>
      <point x="360" y="1"/>
      <point x="418" y="0" type="curve"/>
      <point x="418" y="70" type="line"/>
      <point x="386" y="73" type="line"/>
      <point x="331" y="78"/>
      <point x="314" y="96"/>
      <point x="314" y="156" type="curve"/>
      <point x="314" y="260" type="line"/>
      <point x="134" y="260" type="line"/>
      <point x="134" y="156" type="line"/>
      <point x="134" y="96"/>
      <point x="117" y="78"/>
      <point x="62" y="73" type="curve"/>
      <point x="30" y="70" type="line"/>
      <point x="30" y="0" type="line"/>
      <point x="88" y="1"/>
      <point x="151" y="3"/>
    </contour>
    <component base="_LC-ascender-left-inserif"/>
  </outline>
</glyph>
<glyph name="m" format="2">
  <advance width="1291"/>
  <unicode hex="006D"/>
  <anchor x="134" y="260" name="#entry"/>
  <anchor x="314" y="260" name="#exit"/>
  <anchor x="-162" y="0" name="%entry"/>
  <anchor x="134" y="0" name="%exit"/>
  <anchor x="-2" y="0" name="^entry"/>
  <anchor x="434" y="0" name="^exit"/>
  <anchor x="646" y="0" name="bottom"/>
  <anchor x="314" y="260" name="reversedExit"/>
  <anchor x="134" y="260" name="stem"/>
  <anchor x="646" y="520" name="top"/>
  <anchor x="314" y="519" name="topright"/>
  <outline>
    <contour>
      <point x="224" y="3" type="curve"/>
      <point x="224" y="3" type="line"/>
      <point x="224" y="3" type="line"/>
      <point x="297" y="3"/>
      <point x="360" y="1"/>
      <point x="418" y="0" type="curve"/>
      <point x="418" y="70" type="line"/>
      <point x="386" y="73" type="line"/>
      <point x="331" y="78"/>
      <point x="314" y="96"/>
      <point x="314" y="156" type="curve"/>
      <point x="314" y="260" type="line"/>
      <point x="134" y="260" type="line"/>
      <point x="134" y="156" type="line"/>
      <point x="134" y="96"/>
      <point x="117" y="78"/>
      <point x="62" y="73" type="curve"/>
      <point x="30" y="70" type="line"/>
      <point x="30" y="0" type="line"/>
      <point x="88" y="1"/>
      <point x="151" y="3"/>
    </contour>
    <contour>
      <point x="134" y="260" type="line"/>
      <point x="314" y="260" type="line"/>
      <point x="314" y="519" type="line"/>
      <point x="314" y="530" type="line"/>
      <point x="266" y="522"/>
      <point x="210" y="517"/>
      <point x="134" y="517" type="curve"/>
      <point x="80" y="517"/>
      <point x="60" y="518"/>
      <point x="30" y="519" type="curve"/>
      <point x="30" y="449" type="line"/>
      <point x="62" y="446" type="line"/>
      <point x="117" y="441"/>
      <point x="134" y="420"/>
      <point x="134" y="353" type="curve"/>
    </contour>
    <contour>
      <point x="554" y="260" type="line"/>
      <point x="734" y="260" type="line"/>
      <point x="734" y="325" type="line" smooth="yes"/>
      <point x="734" y="460"/>
      <point x="663" y="533"/>
      <point x="529" y="533" type="curve" smooth="yes"/>
      <point x="415" y="533"/>
      <point x="327" y="468"/>
      <point x="263" y="339" type="curve"/>
      <point x="284" y="304" type="line"/>
      <point x="325" y="383"/>
      <point x="378" y="421"/>
      <point x="445" y="421" type="curve" smooth="yes"/>
      <point x="521" y="421"/>
      <point x="554" y="381"/>
      <point x="554" y="307" type="curve" smooth="yes"/>
    </contour>
    <contour>
      <point x="554" y="0" type="line"/>
      <point x="554" y="0" type="line"/>
      <point x="608" y="2"/>
      <point x="652" y="2"/>
      <point x="687" y="2" type="curve"/>
      <point x="721" y="2"/>
      <point x="787" y="1"/>
      <point x="838" y="0" type="curve"/>
      <point x="838" y="70" type="line"/>
      <point x="806" y="73" type="line"/>
      <point x="751" y="78"/>
      <point x="734" y="96"/>
      <point x="734" y="156" type="curve"/>
      <point x="734" y="260" type="line"/>
      <point x="554" y="260" type="line"/>
    </contour>
    <contour>
      <point x="974" y="260" type="line"/>
      <point x="1154" y="260" type="line"/>
      <point x="1154" y="325" type="line" smooth="yes"/>
      <point x="1154" y="460"/>
      <point x="1083" y="533"/>
      <point x="949" y="533" type="curve" smooth="yes"/>
      <point x="835" y="533"/>
      <point x="747" y="478"/>
      <point x="683" y="368" type="curve"/>
      <point x="704" y="304" type="line"/>
      <point x="745" y="383"/>
      <point x="798" y="421"/>
      <point x="865" y="421" type="curve" smooth="yes"/>
      <point x="941" y="421"/>
      <point x="974" y="381"/>
      <point x="974" y="307" type="curve" smooth="yes"/>
    </contour>
    <contour>
      <point x="975" y="0" type="line"/>
      <point x="975" y="0" type="line"/>
      <point x="1029" y="2"/>
      <point x="1073" y="2"/>
      <point x="1108" y="2" type="curve"/>
      <point x="1142" y="2"/>
      <point x="1208" y="1"/>
      <point x="1259" y="0" type="curve"/>
      <point x="1259" y="70" type="line"/>
      <point x="1227" y="73" type="line"/>
      <point x="1172" y="78"/>
      <point x="1155" y="96"/>
      <point x="1155" y="156" type="curve"/>
      <point x="1155" y="260" type="line"/>
      <point x="975" y="260" type="line"/>
    </contour>
  </outline>
</glyph>
<glyph name="o" format="2">
  <advance width="753"/>
  <unicode hex="006F"/>
  <anchor x="-131" y="256" name="#entry"/>
  <anchor x="377" y="0" name="bottom"/>
  <anchor x="377" y="260" name="center"/>
  <anchor x="505" y="0" name="ogonek"/>
  <anchor x="376" y="520" name="top"/>
  <anchor x="376" y="500" name="top_low_1"/>
  <anchor x="376" y="480" name="top_low_2"/>
  <anchor x="376" y="460" name="top_low_3"/>
  <anchor x="376" y="440" name="top_low_4"/>
  <anchor x="694" y="520" name="topright"/>
  <outline>
    <contour>
      <point x="377" y="-14" type="curve" smooth="yes"/>
      <point x="564" y="-14"/>
      <point x="694" y="77"/>
      <point x="694" y="259" type="curve" smooth="yes"/>
      <point x="694" y="441"/>
      <point x="564" y="533"/>
      <point x="377" y="533" type="curve" smooth="yes"/>
      <point x="190" y="533"/>
      <point x="59" y="441"/>
      <point x="59" y="259" type="curve" smooth="yes"/>
      <point x="59" y="77"/>
      <point x="190" y="-14"/>
    </contour>
    <contour>
      <point x="377" y="56" type="curve" smooth="yes"/>
      <point x="301" y="56"/>
      <point x="246" y="115"/>
      <point x="246" y="259" type="curve" smooth="yes"/>
      <point x="246" y="411"/>
      <point x="301" y="463"/>
      <point x="377" y="463" type="curve" smooth="yes"/>
      <point x="452" y="463"/>
      <point x="507" y="411"/>
      <point x="507" y="259" type="curve" smooth="yes"/>
      <point x="507" y="115"/>
      <point x="452" y="56"/>
    </contour>
  </outline>
</glyph>
<glyph name="q" format="2">
  <advance width="815"/>
  <unicode hex="0071"/>
  <anchor x="499" y="260" name="#entry"/>
  <anchor x="499" y="260" name="#exit"/>
  <anchor x="452" y="0" name="bottom"/>
  <anchor x="679" y="0" name="bottom-right"/>
  <anchor x="375" y="259" name="center"/>
  <anchor x="679" y="0" name="lower-right"/>
  <outline>
    <contour>
      <point x="315" y="-14" type="curve" smooth="yes"/>
      <point x="412" y="-14"/>
      <point x="487" y="28"/>
      <point x="519" y="101" type="curve"/>
      <point x="504" y="155" type="line"/>
      <point x="481" y="111"/>
      <point x="440" y="88"/>
      <point x="385" y="88" type="curve" smooth="yes"/>
      <point x="295" y="88"/>
      <point x="246" y="151"/>
      <point x="246" y="264" type="curve" smooth="yes"/>
      <point x="246" y="383"/>
      <point x="300" y="447"/>
      <point x="400" y="447" type="curve" smooth="yes"/>
      <point x="456" y="447"/>
      <point x="499" y="428"/>
      <point x="526" y="391" type="curve"/>
      <point x="539" y="479" type="line"/>
      <point x="483" y="515"/>
      <point x="422" y="533"/>
      <point x="351" y="533" type="curve" smooth="yes"/>
      <point x="173" y="533"/>
      <point x="59" y="424"/>
      <point x="59" y="253" type="curve" smooth="yes"/>
      <point x="59" y="94"/>
      <point x="163" y="-14"/>
    </contour>
    <contour>
      <point x="589" y="-228" type="line"/>
      <point x="662" y="-228"/>
      <point x="725" y="-230"/>
      <point x="783" y="-231" type="curve"/>
      <point x="783" y="-161" type="line"/>
      <point x="751" y="-158" type="line"/>
      <point x="696" y="-153"/>
      <point x="679" y="-135"/>
      <point x="679" y="-75" type="curve"/>
      <point x="679" y="260" type="line"/>
      <point x="499" y="260" type="line"/>
      <point x="499" y="-75" type="line"/>
      <point x="499" y="-135"/>
      <point x="482" y="-152"/>
      <point x="427" y="-156" type="curve"/>
      <point x="365" y="-161" type="line"/>
      <point x="365" y="-231" type="line"/>
      <point x="432" y="-230"/>
      <point x="505" y="-228"/>
      <point x="589" y="-228" type="curve"/>
      <point x="589" y="-228" type="line"/>
    </contour>
    <component base="_LC-xheight-right-instroke" xOffset="349"/>
  </outline>
</glyph>
<glyph name="r" format="2">
  <advance width="643"/>
  <unicode hex="0072"/>
  <anchor x="322" y="0" name="bottom"/>
  <anchor x="322" y="520" name="top"/>
  <outline>
    <contour>
      <point x="224" y="3" type="curve"/>
      <point x="224" y="3" type="line"/>
      <point x="224" y="3" type="line"/>
      <point x="304" y="3"/>
      <point x="373" y="1"/>
      <point x="436" y="0" type="curve"/>
      <point x="436" y="70" type="line"/>
      <point x="386" y="74" type="line"/>
      <point x="331" y="79"/>
      <point x="314" y="96"/>
      <point x="314" y="156" type="curve"/>
      <point x="314" y="260" type="line"/>
      <point x="134" y="260" type="line"/>
      <point x="134" y="156" type="line"/>
      <point x="134" y="96"/>
      <point x="117" y="78"/>
      <point x="62" y="73" type="curve"/>
      <point x="30" y="70" type="line"/>
      <point x="30" y="0" type="line"/>
      <point x="88" y="1"/>
      <point x="151" y="3"/>
    </contour>
    <contour>
      <point x="134" y="260" type="line"/>
      <point x="314" y="260" type="line"/>
      <point x="314" y="519" type="line"/>
      <point x="314" y="530" type="line"/>
      <point x="266" y="522"/>
      <point x="210" y="517"/>
      <point x="134" y="517" type="curve"/>
      <point x="80" y="517"/>
      <point x="60" y="518"/>
      <point x="30" y="519" type="curve"/>
      <point x="30" y="449" type="line"/>
      <point x="62" y="446" type="line"/>
      <point x="117" y="441"/>
      <point x="134" y="420"/>
      <point x="134" y="353" type="curve"/>
    </contour>
    <component base="_LC-r-arm" xOffset="276"/>
  </outline>
</glyph>
<glyph name="s" format="2">
  <advance width="626"/>
  <unicode hex="0073"/>
  <anchor x="554" y="0" name="^exit"/>
  <anchor x="322" y="0" name="bottom"/>
  <anchor x="317" y="259" name="center"/>
  <anchor x="307" y="520" name="top"/>
  <anchor x="307" y="500" name="top_low_1"/>
  <anchor x="307" y="480" name="top_low_2"/>
  <anchor x="307" y="460" name="top_low_3"/>
  <anchor x="307" y="440" name="top_low_4"/>
  <outline>
    <contour>
      <point x="348" y="-14" type="curve" smooth="yes"/>
      <point x="488" y="-14"/>
      <point x="572" y="51"/>
      <point x="572" y="159" type="curve" smooth="yes"/>
      <point x="572" y="251"/>
      <point x="513" y="305"/>
      <point x="373" y="340" type="curve" smooth="yes"/>
      <point x="256" y="369"/>
      <point x="222" y="386"/>
      <point x="222" y="416" type="curve" smooth="yes"/>
      <point x="222" y="444"/>
      <point x="250" y="459"/>
      <point x="301" y="459" type="curve" smooth="yes"/>
      <point x="384" y="459"/>
      <point x="449" y="420"/>
      <point x="479" y="342" type="curve"/>
      <point x="549" y="342" type="line"/>
      <point x="549" y="455"/>
      <point x="550" y="490"/>
      <point x="554" y="523" type="curve"/>
      <point x="484" y="523" type="line"/>
      <point x="479" y="504"/>
      <point x="471" y="496"/>
      <point x="457" y="496" type="curve" smooth="yes"/>
      <point x="427" y="496"/>
      <point x="374" y="533"/>
      <point x="277" y="533" type="curve" smooth="yes"/>
      <point x="148" y="533"/>
      <point x="71" y="470"/>
      <point x="71" y="371" type="curve" smooth="yes"/>
      <point x="71" y="277"/>
      <point x="127" y="226"/>
      <point x="272" y="182" type="curve" smooth="yes"/>
      <point x="382" y="149"/>
      <point x="418" y="130"/>
      <point x="418" y="105" type="curve" smooth="yes"/>
      <point x="418" y="75"/>
      <point x="391" y="61"/>
      <point x="335" y="61" type="curve" smooth="yes"/>
      <point x="236" y="61"/>
      <point x="169" y="105"/>
      <point x="132" y="193" type="curve"/>
      <point x="62" y="193" type="line"/>
      <point x="62" y="146"/>
      <point x="61" y="103"/>
      <point x="56" y="-4" type="curve"/>
      <point x="126" y="-4" type="line"/>
      <point x="133" y="14"/>
      <point x="143" y="23"/>
      <point x="158" y="23" type="curve" smooth="yes"/>
      <point x="188" y="23"/>
      <point x="243" y="-14"/>
    </contour>
  </outline>
</glyph>
<glyph name="u" format="2">
  <advance width="872"/>
  <unicode hex="0075"/>
  <anchor x="136" y="260" name="#entry"/>
  <anchor x="316" y="260" name="#exit"/>
  <anchor x="248" y="0" name="%entry"/>
  <anchor x="624" y="520" name="%exit"/>
  <anchor x="16" y="520" name="^entry"/>
  <anchor x="452" y="520" name="^exit"/>
  <anchor x="436" y="0" name="bottom"/>
  <anchor x="399" y="270" name="center"/>
  <anchor x="556" y="260" name="reversedExit"/>
  <anchor x="316" y="260" name="stem"/>
  <anchor x="381" y="520" name="top"/>
  <anchor x="381" y="500" name="top_low_1"/>
  <anchor x="381" y="480" name="top_low_2"/>
  <anchor x="381" y="460" name="top_low_3"/>
  <anchor x="708" y="520" name="topright"/>
  <outline>
    <contour>
      <point x="316" y="520" type="line"/>
      <point x="316" y="531" type="line"/>
      <point x="268" y="523"/>
      <point x="212" y="518"/>
      <point x="136" y="518" type="curve"/>
      <point x="82" y="518"/>
      <point x="62" y="519"/>
      <point x="32" y="520" type="curve"/>
      <point x="32" y="450" type="line"/>
      <point x="64" y="447" type="line"/>
      <point x="119" y="442"/>
      <point x="136" y="421"/>
      <point x="136" y="354" type="curve"/>
      <point x="136" y="260" type="line"/>
      <point x="316" y="260" type="line"/>
    </contour>
    <contour>
      <point x="316" y="260" type="line"/>
      <point x="136" y="260" type="line"/>
      <point x="136" y="195" type="line" smooth="yes"/>
      <point x="136" y="60"/>
      <point x="207" y="-13"/>
      <point x="341" y="-13" type="curve" smooth="yes"/>
      <point x="455" y="-13"/>
      <point x="544" y="52"/>
      <point x="607" y="181" type="curve"/>
      <point x="586" y="216" type="line"/>
      <point x="545" y="137"/>
      <point x="492" y="99"/>
      <point x="425" y="99" type="curve" smooth="yes"/>
      <point x="349" y="99"/>
      <point x="316" y="140"/>
      <point x="316" y="213" type="curve" smooth="yes"/>
    </contour>
    <contour>
      <point x="556" y="0" type="line"/>
      <point x="556" y="-11" type="line"/>
      <point x="604" y="-3"/>
      <point x="660" y="2"/>
      <point x="736" y="2" type="curve"/>
      <point x="790" y="2"/>
      <point x="810" y="1"/>
      <point x="840" y="0" type="curve"/>
      <point x="840" y="70" type="line"/>
      <point x="808" y="73" type="line"/>
      <point x="753" y="78"/>
      <point x="736" y="99"/>
      <point x="736" y="166" type="curve"/>
      <point x="736" y="260" type="line"/>
      <point x="556" y="260" type="line"/>
    </contour>
    <contour>
      <point x="736" y="520" type="line"/>
      <point x="736" y="531" type="line"/>
      <point x="688" y="523"/>
      <point x="634" y="518"/>
      <point x="562" y="518" type="curve"/>
      <point x="510" y="518"/>
      <point x="490" y="519"/>
      <point x="461" y="520" type="curve"/>
      <point x="461" y="450" type="line"/>
      <point x="487" y="447" type="line"/>
      <point x="540" y="441"/>
      <point x="556" y="421"/>
      <point x="556" y="354" type="curve"/>
      <point x="556" y="260" type="line"/>
      <point x="736" y="260" type="line"/>
    </contour>
  </outline>
</glyph>
<glyph name="v" format="2">
  <advance width="833"/>
  <unicode hex="0076"/>
  <anchor x="415" y="0" name="bottom"/>
  <anchor x="415" y="520" name="top"/>
  <outline>
    <contour>
      <point x="389" y="0" type="line"/>
      <point x="456" y="0" type="line"/>
      <point x="637" y="324" type="line"/>
      <point x="692" y="418"/>
      <point x="718" y="440"/>
      <point x="770" y="447" type="curve"/>
      <point x="793" y="450" type="line"/>
      <point x="793" y="520" type="line"/>
      <point x="748" y="518"/>
      <point x="699" y="517"/>
      <point x="649" y="517" type="curve"/>
      <point x="597" y="517"/>
      <point x="544" y="518"/>
      <point x="497" y="520" type="curve"/>
      <point x="497" y="450" type="line"/>
      <point x="522" y="447" type="line"/>
      <point x="586" y="438"/>
      <point x="597" y="395"/>
      <point x="549" y="315" type="curve"/>
      <point x="450" y="136" type="line"/>
      <point x="501" y="161" type="line"/>
      <point x="348" y="410" type="line"/>
      <point x="323" y="450"/>
      <point x="308" y="483"/>
      <point x="310" y="520" type="curve"/>
      <point x="277" y="518"/>
      <point x="246" y="517"/>
      <point x="218" y="517" type="curve"/>
      <point x="144" y="517"/>
      <point x="90" y="518"/>
      <point x="40" y="520" type="curve"/>
      <point x="40" y="449" type="line"/>
      <point x="89" y="445"/>
      <point x="123" y="437"/>
      <point x="147" y="399" type="curve"/>
    </contour>
  </outline>
</glyph>
<glyph name="w" format="2">
  <advance width="1122"/>
  <unicode hex="0077"/>
  <anchor x="581" y="0" name="bottom"/>
  <anchor x="599" y="520" name="top"/>
  <outline>
    <contour>
      <point x="346" y="0" type="line"/>
      <point x="413" y="0" type="line"/>
      <point x="648" y="478" type="line"/>
      <point x="589" y="520" type="line"/>
      <point x="423" y="188" type="line"/>
      <point x="452" y="188" type="line"/>
      <point x="340" y="405" type="line"/>
      <point x="318" y="447"/>
      <point x="308" y="483"/>
      <point x="310" y="520" type="curve"/>
      <point x="277" y="518"/>
      <point x="246" y="517"/>
      <point x="218" y="517" type="curve"/>
      <point x="144" y="517"/>
      <point x="90" y="518"/>
      <point x="40" y="520" type="curve"/>
      <point x="40" y="449" type="line"/>
      <point x="89" y="445"/>
      <point x="118" y="434"/>
      <point x="139" y="394" type="curve"/>
    </contour>
    <contour>
      <point x="732" y="0" type="line"/>
      <point x="799" y="0" type="line"/>
      <point x="973" y="352" type="line"/>
      <point x="1000" y="408"/>
      <point x="1032" y="438"/>
      <point x="1082" y="449" type="curve"/>
      <point x="1082" y="520" type="line"/>
      <point x="1068" y="518"/>
      <point x="1042" y="517"/>
      <point x="997" y="517" type="curve"/>
      <point x="968" y="517"/>
      <point x="948" y="518"/>
      <point x="921" y="520" type="curve"/>
      <point x="928" y="480"/>
      <point x="924" y="423"/>
      <point x="897" y="368" type="curve"/>
      <point x="805" y="181" type="line"/>
      <point x="840" y="185" type="line"/>
      <point x="665" y="520" type="line"/>
      <point x="589" y="520" type="line"/>
      <point x="557" y="331" type="line"/>
    </contour>
  </outline>
</glyph>
<glyph name="x" format="2">
  <advance width="744"/>
  <unicode hex="0078"/>
  <anchor x="385" y="0" name="bottom"/>
  <anchor x="745" y="0" name="bottomright"/>
  <anchor x="393" y="520" name="top"/>
  <outline>
    <contour>
      <point x="450" y="0" type="curve"/>
      <point x="491" y="3"/>
      <point x="531" y="4"/>
      <point x="572" y="4" type="curve" smooth="yes"/>
      <point x="641" y="4"/>
      <point x="691" y="3"/>
      <point x="738" y="0" type="curve"/>
      <point x="738" y="71" type="line"/>
      <point x="689" y="75"/>
      <point x="660" y="84"/>
      <point x="627" y="120" type="curve" smooth="yes"/>
      <point x="345" y="426" type="line" smooth="yes"/>
      <point x="317" y="457"/>
      <point x="305" y="482"/>
      <point x="304" y="519" type="curve"/>
      <point x="263" y="517"/>
      <point x="223" y="515"/>
      <point x="182" y="515" type="curve" smooth="yes"/>
      <point x="113" y="515"/>
      <point x="63" y="516"/>
      <point x="16" y="519" type="curve"/>
      <point x="16" y="448" type="line"/>
      <point x="65" y="444"/>
      <point x="94" y="435"/>
      <point x="127" y="399" type="curve" smooth="yes"/>
      <point x="409" y="93" type="line" smooth="yes"/>
      <point x="437" y="62"/>
      <point x="449" y="37"/>
    </contour>
    <contour>
      <point x="-4" y="0" type="line"/>
      <point x="50" y="3"/>
      <point x="71" y="3"/>
      <point x="142" y="3" type="curve" smooth="yes"/>
      <point x="235" y="3"/>
      <point x="301" y="2"/>
      <point x="325" y="0" type="curve"/>
      <point x="325" y="70" type="line"/>
      <point x="262" y="83"/>
      <point x="253" y="128"/>
      <point x="306" y="171" type="curve" smooth="yes"/>
      <point x="361" y="215" type="line"/>
      <point x="309" y="268" type="line"/>
      <point x="152" y="143" type="line" smooth="yes"/>
      <point x="92" y="95"/>
      <point x="52" y="76"/>
      <point x="-4" y="70" type="curve"/>
    </contour>
    <contour>
      <point x="439" y="260" type="line"/>
      <point x="562" y="364" type="line" smooth="yes"/>
      <point x="616" y="410"/>
      <point x="661" y="435"/>
      <point x="714" y="449" type="curve"/>
      <point x="714" y="519" type="line"/>
      <point x="657" y="517"/>
      <point x="632" y="516"/>
      <point x="588" y="516" type="curve" smooth="yes"/>
      <point x="524" y="516"/>
      <point x="468" y="517"/>
      <point x="435" y="519" type="curve"/>
      <point x="435" y="449" type="line"/>
      <point x="493" y="442"/>
      <point x="496" y="409"/>
      <point x="445" y="366" type="curve" smooth="yes"/>
      <point x="390" y="319" type="line"/>
    </contour>
  </outline>
</glyph>
<glyph name="y" format="2">
  <advance width="813"/>
  <unicode hex="0079"/>
  <anchor x="-59" y="260" name="#entry"/>
  <anchor x="589" y="0" name="bottom"/>
  <anchor x="412" y="259" name="center"/>
  <anchor x="421" y="520" name="top"/>
  <outline>
    <contour>
      <point x="424" y="-83" type="line"/>
      <point x="457" y="-83" type="line"/>
      <point x="635" y="315" type="line"/>
      <point x="682" y="413"/>
      <point x="698" y="440"/>
      <point x="750" y="447" type="curve"/>
      <point x="773" y="450" type="line"/>
      <point x="773" y="520" type="line"/>
      <point x="728" y="518"/>
      <point x="679" y="517"/>
      <point x="629" y="517" type="curve"/>
      <point x="577" y="517"/>
      <point x="524" y="518"/>
      <point x="477" y="520" type="curve"/>
      <point x="477" y="450" type="line"/>
      <point x="502" y="447" type="line"/>
      <point x="566" y="438"/>
      <point x="589" y="389"/>
      <point x="549" y="305" type="curve"/>
      <point x="460" y="95" type="line"/>
      <point x="501" y="137" type="line"/>
      <point x="345" y="408" type="line"/>
      <point x="321" y="449"/>
      <point x="308" y="483"/>
      <point x="310" y="520" type="curve"/>
      <point x="277" y="518"/>
      <point x="246" y="517"/>
      <point x="218" y="517" type="curve"/>
      <point x="144" y="517"/>
      <point x="90" y="518"/>
      <point x="40" y="520" type="curve"/>
      <point x="40" y="449" type="line"/>
      <point x="89" y="445"/>
      <point x="121" y="436"/>
      <point x="144" y="397" type="curve"/>
    </contour>
    <contour>
      <point x="273" y="-239" type="curve" smooth="yes"/>
      <point x="352" y="-239"/>
      <point x="403" y="-207"/>
      <point x="432" y="-141" type="curve" smooth="yes"/>
      <point x="509" y="35" type="line"/>
      <point x="439" y="49" type="line"/>
      <point x="360" y="-130" type="line" smooth="yes"/>
      <point x="349" y="-156"/>
      <point x="329" y="-169"/>
      <point x="301" y="-169" type="curve" smooth="yes"/>
      <point x="281" y="-169"/>
      <point x="272" y="-163"/>
      <point x="272" y="-149" type="curve" smooth="yes"/>
      <point x="272" y="-129"/>
      <point x="292" y="-113"/>
      <point x="292" y="-89" type="curve" smooth="yes"/>
      <point x="292" y="-60"/>
      <point x="263" y="-40"/>
      <point x="220" y="-40" type="curve" smooth="yes"/>
      <point x="161" y="-40"/>
      <point x="118" y="-78"/>
      <point x="118" y="-131" type="curve" smooth="yes"/>
      <point x="118" y="-196"/>
      <point x="180" y="-239"/>
    </contour>
  </outline>
</glyph>
<glyph name="z" format="2">
  <advance width="617"/>
  <unicode hex="007A"/>
  <anchor x="314" y="0" name="bottom"/>
  <anchor x="311" y="269" name="center"/>
  <anchor x="322" y="520" name="top"/>
  <outline>
    <contour>
      <point x="54" y="0" type="line"/>
      <point x="122" y="2"/>
      <point x="198" y="3"/>
      <point x="269" y="3" type="curve" smooth="yes"/>
      <point x="372" y="3" type="line"/>
      <point x="403" y="3" type="line"/>
      <point x="459" y="3"/>
      <point x="513" y="3"/>
      <point x="569" y="0" type="curve"/>
      <point x="568" y="57"/>
      <point x="571" y="113"/>
      <point x="580" y="182" type="curve"/>
      <point x="507" y="182" type="line"/>
      <point x="480" y="73"/>
      <point x="460" y="70"/>
      <point x="372" y="70" type="curve"/>
      <point x="267" y="70" type="line"/>
      <point x="569" y="449" type="line"/>
      <point x="569" y="519" type="line"/>
      <point x="502" y="517"/>
      <point x="431" y="516"/>
      <point x="358" y="516" type="curve" smooth="yes"/>
      <point x="255" y="516" type="line"/>
      <point x="224" y="516" type="line"/>
      <point x="168" y="516"/>
      <point x="114" y="516"/>
      <point x="58" y="519" type="curve"/>
      <point x="59" y="462"/>
      <point x="56" y="406"/>
      <point x="47" y="337" type="curve"/>
      <point x="120" y="337" type="line"/>
      <point x="147" y="446"/>
      <point x="167" y="449"/>
      <point x="255" y="449" type="curve"/>
      <point x="356" y="449" type="line"/>
      <point x="54" y="70" type="line"/>
    </contour>
  </outline>
</glyph>
<glyph name="braceleft" format="2">
  <advance width="449"/>
  <unicode hex="007B"/>
  <outline>
    <contour>
      <point x="409" y="-191" type="curve"/>
      <point x="409" y="-122" type="line"/>
      <point x="316" y="-119"/>
      <point x="308" y="-113"/>
      <point x="308" y="47" type="curve" smooth="yes"/>
      <point x="308" y="216"/>
      <point x="271" y="275"/>
      <point x="147" y="306" type="curve"/>
      <point x="269" y="335"/>
      <point x="307" y="387"/>
      <point x="307" y="551" type="curve" smooth="yes"/>
      <point x="307" y="702"/>
      <point x="313" y="708"/>
      <point x="409" y="713" type="curve"/>
      <point x="409" y="782" type="line"/>
      <point x="175" y="782"/>
      <point x="127" y="730"/>
      <point x="127" y="549" type="curve" smooth="yes"/>
      <point x="127" y="345"/>
      <point x="117" y="333"/>
      <point x="29" y="333" type="curve" smooth="yes"/>
      <point x="23" y="333" type="line"/>
      <point x="23" y="265" type="line"/>
      <point x="29" y="265" type="line" smooth="yes"/>
      <point x="117" y="265"/>
      <point x="128" y="255"/>
      <point x="128" y="47" type="curve" smooth="yes"/>
      <point x="128" y="-138"/>
      <point x="171" y="-191"/>
    </contour>
  </outline>
</glyph>
<glyph name="bar" format="2">
  <advance width="320"/>
  <unicode hex="007C"/>
  <outline>
    <contour>
      <point x="100" y="-231" type="line"/>
      <point x="220" y="-231" type="line"/>
      <point x="220" y="858" type="line"/>
      <point x="100" y="858" type="line"/>
    </contour>
  </outline>
</glyph>
<glyph name="asciitilde" format="2">
  <advance width="872"/>
  <unicode hex="007E"/>
  <anchor x="435" y="262" name="_center"/>
  <outline>
    <contour>
      <point x="587" y="172" type="curve" smooth="yes"/>
      <point x="693" y="172"/>
      <point x="768" y="234"/>
      <point x="790" y="340" type="curve"/>
      <point x="717" y="352" type="line"/>
      <point x="699" y="306"/>
      <point x="668" y="285"/>
      <point x="615" y="285" type="curve" smooth="yes"/>
      <point x="513" y="285"/>
      <point x="400" y="362"/>
      <point x="284" y="362" type="curve" smooth="yes"/>
      <point x="180" y="362"/>
      <point x="103" y="298"/>
      <point x="82" y="194" type="curve"/>
      <point x="155" y="182" type="line"/>
      <point x="173" y="229"/>
      <point x="204" y="249"/>
      <point x="256" y="249" type="curve" smooth="yes"/>
      <point x="358" y="249"/>
      <point x="467" y="172"/>
    </contour>
  </outline>
</glyph>
<glyph name="sterling" format="2">
  <advance width="888"/>
  <unicode hex="00A3"/>
  <outline>
    <contour>
      <point x="46" y="297" type="line"/>
      <point x="594" y="297" type="line"/>
      <point x="594" y="367" type="line"/>
      <point x="46" y="367" type="line"/>
    </contour>
    <contour>
      <point x="171" y="98" type="curve"/>
      <point x="302" y="126" type="line"/>
      <point x="357" y="179"/>
      <point x="386" y="256"/>
      <point x="386" y="351" type="curve" smooth="yes"/>
      <point x="386" y="481" type="line" smooth="yes"/>
      <point x="386" y="590"/>
      <point x="436" y="643"/>
      <point x="541" y="643" type="curve" smooth="yes"/>
      <point x="587" y="643"/>
      <point x="607" y="633"/>
      <point x="607" y="610" type="curve" smooth="yes"/>
      <point x="607" y="580"/>
      <point x="573" y="559"/>
      <point x="573" y="524" type="curve" smooth="yes"/>
      <point x="573" y="492"/>
      <point x="603" y="471"/>
      <point x="650" y="471" type="curve" smooth="yes"/>
      <point x="715" y="471"/>
      <point x="758" y="511"/>
      <point x="758" y="570" type="curve" smooth="yes"/>
      <point x="758" y="664"/>
      <point x="662" y="722"/>
      <point x="507" y="722" type="curve" smooth="yes"/>
      <point x="297" y="722"/>
      <point x="183" y="618"/>
      <point x="183" y="425" type="curve" smooth="yes"/>
      <point x="183" y="168" type="line" smooth="yes"/>
      <point x="183" y="131"/>
      <point x="180" y="112"/>
    </contour>
    <contour>
      <point x="122" y="-14" type="curve" smooth="yes"/>
      <point x="170" y="-14"/>
      <point x="207" y="9"/>
      <point x="261" y="72" type="curve"/>
      <point x="232" y="72" type="line"/>
      <point x="361" y="11"/>
      <point x="467" y="-14"/>
      <point x="590" y="-14" type="curve" smooth="yes"/>
      <point x="736" y="-14"/>
      <point x="828" y="49"/>
      <point x="828" y="149" type="curve" smooth="yes"/>
      <point x="828" y="214"/>
      <point x="789" y="256"/>
      <point x="728" y="256" type="curve" smooth="yes"/>
      <point x="674" y="256"/>
      <point x="640" y="223"/>
      <point x="640" y="172" type="curve" smooth="yes"/>
      <point x="640" y="132"/>
      <point x="673" y="105"/>
      <point x="673" y="74" type="curve" smooth="yes"/>
      <point x="673" y="57"/>
      <point x="666" y="51"/>
      <point x="648" y="51" type="curve" smooth="yes"/>
      <point x="563" y="51"/>
      <point x="468" y="148"/>
      <point x="221" y="148" type="curve" smooth="yes"/>
      <point x="105" y="148"/>
      <point x="40" y="114"/>
      <point x="40" y="54" type="curve" smooth="yes"/>
      <point x="40" y="12"/>
      <point x="71" y="-14"/>
    </contour>
  </outline>
</glyph>
<glyph name="currency" format="2">
  <advance width="669"/>
  <unicode hex="00A4"/>
  <outline>
    <contour>
      <point x="172" y="-26" type="line"/>
      <point x="241" y="43" type="line"/>
      <point x="269" y="31"/>
      <point x="301" y="24"/>
      <point x="334" y="24" type="curve" smooth="yes"/>
      <point x="367" y="24"/>
      <point x="399" y="31"/>
      <point x="428" y="43" type="curve"/>
      <point x="498" y="-26" type="line"/>
      <point x="621" y="97" type="line"/>
      <point x="551" y="166" type="line"/>
      <point x="564" y="195"/>
      <point x="571" y="226"/>
      <point x="571" y="260" type="curve" smooth="yes"/>
      <point x="571" y="293"/>
      <point x="564" y="325"/>
      <point x="552" y="354" type="curve"/>
      <point x="621" y="423" type="line"/>
      <point x="498" y="546" type="line"/>
      <point x="429" y="477" type="line"/>
      <point x="400" y="489"/>
      <point x="368" y="497"/>
      <point x="334" y="497" type="curve" smooth="yes"/>
      <point x="300" y="497"/>
      <point x="269" y="490"/>
      <point x="240" y="477" type="curve"/>
      <point x="172" y="546" type="line"/>
      <point x="49" y="423" type="line"/>
      <point x="117" y="354" type="line"/>
      <point x="105" y="325"/>
      <point x="98" y="293"/>
      <point x="98" y="260" type="curve" smooth="yes"/>
      <point x="98" y="226"/>
      <point x="105" y="194"/>
      <point x="117" y="165" type="curve"/>
      <point x="49" y="97" type="line"/>
    </contour>
    <contour>
      <point x="336" y="154" type="curve" smooth="yes"/>
      <point x="284" y="154"/>
      <point x="242" y="192"/>
      <point x="242" y="260" type="curve" smooth="yes"/>
      <point x="242" y="328"/>
      <point x="284" y="367"/>
      <point x="336" y="367" type="curve" smooth="yes"/>
      <point x="387" y="367"/>
      <point x="429" y="328"/>
      <point x="429" y="260" type="curve" smooth="yes"/>
      <point x="429" y="192"/>
      <point x="387" y="154"/>
    </contour>
  </outline>
</glyph>
<glyph name="brokenbar" format="2">
  <advance width="320"/>
  <unicode hex="00A6"/>
  <outline>
    <contour>
      <point x="100" y="-231" type="line"/>
      <point x="220" y="-231" type="line"/>
      <point x="220" y="326" type="line"/>
      <point x="100" y="326" type="line"/>
    </contour>
    <contour>
      <point x="100" y="384" type="line"/>
      <point x="220" y="384" type="line"/>
      <point x="220" y="858" type="line"/>
      <point x="100" y="858" type="line"/>
    </contour>
  </outline>
</glyph>
<glyph name="section" format="2">
  <advance width="748"/>
  <unicode hex="00A7"/>
  <outline>
    <contour>
      <point x="566" y="56" type="line"/>
      <point x="665" y="107"/>
      <point x="703" y="161"/>
      <point x="703" y="230" type="curve" smooth="yes"/>
      <point x="703" y="320"/>
      <point x="619" y="374"/>
      <point x="482" y="445" type="curve" smooth="yes"/>
      <point x="339" y="519"/>
      <point x="300" y="542"/>
      <point x="300" y="587" type="curve" smooth="yes"/>
      <point x="300" y="621"/>
      <point x="339" y="649"/>
      <point x="414" y="649" type="curve" smooth="yes"/>
      <point x="465" y="649"/>
      <point x="497" y="635"/>
      <point x="497" y="611" type="curve" smooth="yes"/>
      <point x="497" y="582"/>
      <point x="459" y="567"/>
      <point x="459" y="528" type="curve" smooth="yes"/>
      <point x="459" y="493"/>
      <point x="493" y="471"/>
      <point x="538" y="471" type="curve" smooth="yes"/>
      <point x="606" y="471"/>
      <point x="646" y="518"/>
      <point x="646" y="568" type="curve" smooth="yes"/>
      <point x="646" y="661"/>
      <point x="548" y="722"/>
      <point x="399" y="722" type="curve" smooth="yes"/>
      <point x="233" y="722"/>
      <point x="120" y="655"/>
      <point x="120" y="548" type="curve" smooth="yes"/>
      <point x="120" y="463"/>
      <point x="176" y="405"/>
      <point x="340" y="313" type="curve" smooth="yes"/>
      <point x="511" y="218"/>
      <point x="543" y="196"/>
      <point x="543" y="149" type="curve" smooth="yes"/>
      <point x="543" y="128"/>
      <point x="532" y="106"/>
      <point x="513" y="92" type="curve"/>
    </contour>
    <contour>
      <point x="350" y="-239" type="curve" smooth="yes"/>
      <point x="516" y="-239"/>
      <point x="629" y="-172"/>
      <point x="629" y="-65" type="curve" smooth="yes"/>
      <point x="629" y="20"/>
      <point x="579" y="75"/>
      <point x="409" y="170" type="curve" smooth="yes"/>
      <point x="238" y="265"/>
      <point x="206" y="287"/>
      <point x="206" y="334" type="curve" smooth="yes"/>
      <point x="206" y="355"/>
      <point x="217" y="377"/>
      <point x="236" y="391" type="curve"/>
      <point x="183" y="427" type="line"/>
      <point x="84" y="376"/>
      <point x="46" y="322"/>
      <point x="46" y="253" type="curve" smooth="yes"/>
      <point x="46" y="163"/>
      <point x="130" y="109"/>
      <point x="267" y="38" type="curve" smooth="yes"/>
      <point x="416" y="-39"/>
      <point x="449" y="-59"/>
      <point x="449" y="-104" type="curve" smooth="yes"/>
      <point x="449" y="-138"/>
      <point x="410" y="-166"/>
      <point x="335" y="-166" type="curve" smooth="yes"/>
      <point x="284" y="-166"/>
      <point x="252" y="-152"/>
      <point x="252" y="-128" type="curve" smooth="yes"/>
      <point x="252" y="-99"/>
      <point x="290" y="-84"/>
      <point x="290" y="-45" type="curve" smooth="yes"/>
      <point x="290" y="-10"/>
      <point x="256" y="12"/>
      <point x="211" y="12" type="curve" smooth="yes"/>
      <point x="143" y="12"/>
      <point x="103" y="-35"/>
      <point x="103" y="-85" type="curve" smooth="yes"/>
      <point x="103" y="-178"/>
      <point x="201" y="-239"/>
    </contour>
  </outline>
</glyph>
<glyph name="copyright" format="2">
  <advance width="872"/>
  <unicode hex="00A9"/>
  <outline>
    <contour>
      <point x="437" y="-14" type="curve" smooth="yes"/>
      <point x="669" y="-14"/>
      <point x="835" y="152"/>
      <point x="835" y="384" type="curve" smooth="yes"/>
      <point x="835" y="616"/>
      <point x="669" y="782"/>
      <point x="437" y="782" type="curve" smooth="yes"/>
      <point x="205" y="782"/>
      <point x="39" y="616"/>
      <point x="39" y="384" type="curve" smooth="yes"/>
      <point x="39" y="152"/>
      <point x="205" y="-14"/>
    </contour>
    <contour>
      <point x="441" y="153" type="curve" smooth="yes"/>
      <point x="542" y="153"/>
      <point x="621" y="197"/>
      <point x="670" y="282" type="curve"/>
      <point x="617" y="328" type="line"/>
      <point x="571" y="293"/>
      <point x="533" y="278"/>
      <point x="488" y="278" type="curve" smooth="yes"/>
      <point x="415" y="278"/>
      <point x="375" y="320"/>
      <point x="375" y="398" type="curve" smooth="yes"/>
      <point x="375" y="474"/>
      <point x="413" y="518"/>
      <point x="478" y="518" type="curve" smooth="yes"/>
      <point x="506" y="518"/>
      <point x="521" y="509"/>
      <point x="521" y="493" type="curve" smooth="yes"/>
      <point x="521" y="468"/>
      <point x="489" y="451"/>
      <point x="489" y="415" type="curve" smooth="yes"/>
      <point x="489" y="381"/>
      <point x="518" y="360"/>
      <point x="566" y="360" type="curve" smooth="yes"/>
      <point x="632" y="360"/>
      <point x="676" y="400"/>
      <point x="676" y="459" type="curve" smooth="yes"/>
      <point x="676" y="547"/>
      <point x="578" y="616"/>
      <point x="453" y="616" type="curve" smooth="yes"/>
      <point x="301" y="616"/>
      <point x="188" y="515"/>
      <point x="188" y="379" type="curve" smooth="yes"/>
      <point x="188" y="247"/>
      <point x="293" y="153"/>
    </contour>
    <contour>
      <point x="437" y="68" type="curve" smooth="yes"/>
      <point x="257" y="68"/>
      <point x="129" y="200"/>
      <point x="129" y="384" type="curve" smooth="yes"/>
      <point x="129" y="568"/>
      <point x="257" y="700"/>
      <point x="437" y="700" type="curve" smooth="yes"/>
      <point x="617" y="700"/>
      <point x="745" y="568"/>
      <point x="745" y="384" type="curve" smooth="yes"/>
      <point x="745" y="200"/>
      <point x="617" y="68"/>
    </contour>
  </outline>
</glyph>
<glyph name="ordfeminine" format="2">
  <advance width="604"/>
  <unicode hex="00AA"/>
  <outline>
    <contour>
      <point x="195" y="360" type="curve" smooth="yes"/>
      <point x="266" y="360"/>
      <point x="325" y="380"/>
      <point x="367" y="419" type="curve"/>
      <point x="372" y="380"/>
      <point x="405" y="360"/>
      <point x="464" y="360" type="curve" smooth="yes"/>
      <point x="516" y="360"/>
      <point x="561" y="377"/>
      <point x="592" y="408" type="curve"/>
      <point x="572" y="447" type="line"/>
      <point x="560" y="441"/>
      <point x="548" y="439"/>
      <point x="533" y="439" type="curve" smooth="yes"/>
      <point x="515" y="439"/>
      <point x="508" y="447"/>
      <point x="508" y="465" type="curve" smooth="yes"/>
      <point x="508" y="598" type="line" smooth="yes"/>
      <point x="508" y="682"/>
      <point x="442" y="723"/>
      <point x="306" y="723" type="curve" smooth="yes"/>
      <point x="170" y="723"/>
      <point x="81" y="686"/>
      <point x="81" y="630" type="curve" smooth="yes"/>
      <point x="81" y="598"/>
      <point x="109" y="579"/>
      <point x="154" y="579" type="curve" smooth="yes"/>
      <point x="193" y="579"/>
      <point x="219" y="593"/>
      <point x="219" y="613" type="curve" smooth="yes"/>
      <point x="219" y="626"/>
      <point x="209" y="634"/>
      <point x="209" y="647" type="curve" smooth="yes"/>
      <point x="209" y="660"/>
      <point x="235" y="669"/>
      <point x="271" y="669" type="curve" smooth="yes"/>
      <point x="335" y="669"/>
      <point x="367" y="650"/>
      <point x="367" y="613" type="curve" smooth="yes"/>
      <point x="367" y="606" type="line" smooth="yes"/>
      <point x="367" y="543"/>
      <point x="56" y="593"/>
      <point x="56" y="451" type="curve" smooth="yes"/>
      <point x="56" y="394"/>
      <point x="107" y="360"/>
    </contour>
    <contour>
      <point x="260" y="430" type="curve" smooth="yes"/>
      <point x="220" y="430"/>
      <point x="199" y="445"/>
      <point x="199" y="475" type="curve" smooth="yes"/>
      <point x="199" y="529"/>
      <point x="324" y="515"/>
      <point x="367" y="543" type="curve"/>
      <point x="367" y="461" type="line"/>
      <point x="346" y="443"/>
      <point x="301" y="430"/>
    </contour>
  </outline>
</glyph>
<glyph name="registered" format="2">
  <advance width="728"/>
  <unicode hex="00AE"/>
  <outline>
    <contour>
      <point x="364" y="210" type="curve" smooth="yes"/>
      <point x="526" y="210"/>
      <point x="657" y="341"/>
      <point x="657" y="503" type="curve" smooth="yes"/>
      <point x="657" y="665"/>
      <point x="526" y="796"/>
      <point x="364" y="796" type="curve" smooth="yes"/>
      <point x="202" y="796"/>
      <point x="71" y="665"/>
      <point x="71" y="503" type="curve" smooth="yes"/>
      <point x="71" y="341"/>
      <point x="202" y="210"/>
    </contour>
    <contour>
      <point x="364" y="259" type="curve" smooth="yes"/>
      <point x="232" y="259"/>
      <point x="125" y="369"/>
      <point x="125" y="503" type="curve" smooth="yes"/>
      <point x="125" y="637"/>
      <point x="232" y="747"/>
      <point x="364" y="747" type="curve" smooth="yes"/>
      <point x="496" y="747"/>
      <point x="603" y="637"/>
      <point x="603" y="503" type="curve" smooth="yes"/>
      <point x="603" y="369"/>
      <point x="496" y="259"/>
    </contour>
    <contour>
      <point x="196" y="362" type="line"/>
      <point x="222" y="363"/>
      <point x="248" y="363"/>
      <point x="292" y="363" type="curve" smooth="yes"/>
      <point x="342" y="363"/>
      <point x="358" y="363"/>
      <point x="383" y="362" type="curve"/>
      <point x="383" y="407" type="line"/>
      <point x="344" y="409"/>
      <point x="340" y="413"/>
      <point x="340" y="444" type="curve" smooth="yes"/>
      <point x="340" y="611" type="line"/>
      <point x="374" y="611" type="line" smooth="yes"/>
      <point x="407" y="611"/>
      <point x="421" y="600"/>
      <point x="421" y="573" type="curve" smooth="yes"/>
      <point x="421" y="545"/>
      <point x="405" y="531"/>
      <point x="374" y="531" type="curve" smooth="yes"/>
      <point x="301" y="531" type="line"/>
      <point x="301" y="485" type="line"/>
      <point x="381" y="485" type="line" smooth="yes"/>
      <point x="473" y="485"/>
      <point x="524" y="516"/>
      <point x="524" y="574" type="curve" smooth="yes"/>
      <point x="524" y="629"/>
      <point x="477" y="656"/>
      <point x="380" y="656" type="curve" smooth="yes"/>
      <point x="346" y="656"/>
      <point x="330" y="655"/>
      <point x="304" y="655" type="curve" smooth="yes"/>
      <point x="269" y="655"/>
      <point x="230" y="655"/>
      <point x="196" y="656" type="curve"/>
      <point x="196" y="611" type="line"/>
      <point x="235" y="609"/>
      <point x="239" y="605"/>
      <point x="239" y="573" type="curve" smooth="yes"/>
      <point x="239" y="444" type="line" smooth="yes"/>
      <point x="239" y="413"/>
      <point x="235" y="409"/>
      <point x="196" y="407" type="curve"/>
    </contour>
    <contour>
      <point x="492" y="357" type="curve" smooth="yes"/>
      <point x="519" y="357"/>
      <point x="544" y="365"/>
      <point x="559" y="378" type="curve"/>
      <point x="541" y="415" type="line"/>
      <point x="538" y="413"/>
      <point x="533" y="411"/>
      <point x="529" y="411" type="curve" smooth="yes"/>
      <point x="523" y="411"/>
      <point x="519" y="416"/>
      <point x="516" y="427" type="curve" smooth="yes"/>
      <point x="511" y="440" type="line" smooth="yes"/>
      <point x="503" y="467"/>
      <point x="483" y="490"/>
      <point x="407" y="498" type="curve"/>
      <point x="368" y="504" type="line"/>
      <point x="370" y="485" type="line"/>
      <point x="395" y="485"/>
      <point x="404" y="476"/>
      <point x="409" y="448" type="curve" smooth="yes"/>
      <point x="413" y="422" type="line" smooth="yes"/>
      <point x="420" y="379"/>
      <point x="446" y="357"/>
    </contour>
  </outline>
</glyph>
<glyph name="degree" format="2">
  <advance width="456"/>
  <unicode hex="00B0"/>
  <outline>
    <contour>
      <point x="227" y="503" type="curve" smooth="yes"/>
      <point x="350" y="503"/>
      <point x="426" y="563"/>
      <point x="426" y="660" type="curve" smooth="yes"/>
      <point x="426" y="755"/>
      <point x="349" y="816"/>
      <point x="227" y="816" type="curve" smooth="yes"/>
      <point x="106" y="816"/>
      <point x="30" y="756"/>
      <point x="30" y="660" type="curve" smooth="yes"/>
      <point x="30" y="564"/>
      <point x="106" y="503"/>
    </contour>
    <contour>
      <point x="227" y="570" type="curve" smooth="yes"/>
      <point x="150" y="570"/>
      <point x="105" y="603"/>
      <point x="105" y="659" type="curve" smooth="yes"/>
      <point x="105" y="714"/>
      <point x="153" y="749"/>
      <point x="227" y="749" type="curve" smooth="yes"/>
      <point x="301" y="749"/>
      <point x="351" y="713"/>
      <point x="351" y="659" type="curve" smooth="yes"/>
      <point x="351" y="604"/>
      <point x="304" y="570"/>
    </contour>
  </outline>
</glyph>
<glyph name="paragraph" format="2">
  <advance width="1005"/>
  <unicode hex="00B6"/>
  <outline>
    <contour>
      <point x="435" y="-231" type="line"/>
      <point x="460" y="-231"/>
      <point x="582" y="-228"/>
      <point x="707" y="-228" type="curve" smooth="yes"/>
      <point x="813" y="-228"/>
      <point x="893" y="-230"/>
      <point x="955" y="-231" type="curve"/>
      <point x="955" y="-161" type="line"/>
      <point x="837" y="-158"/>
      <point x="817" y="-146"/>
      <point x="817" y="-75" type="curve" smooth="yes"/>
      <point x="817" y="552" type="line" smooth="yes"/>
      <point x="817" y="623"/>
      <point x="837" y="635"/>
      <point x="955" y="638" type="curve"/>
      <point x="955" y="708" type="line"/>
      <point x="906" y="705"/>
      <point x="634" y="708"/>
      <point x="587" y="708" type="curve" smooth="yes"/>
      <point x="227" y="708"/>
      <point x="57" y="613"/>
      <point x="57" y="412" type="curve" smooth="yes"/>
      <point x="57" y="208"/>
      <point x="242" y="107"/>
      <point x="614" y="107" type="curve"/>
      <point x="614" y="-68" type="line" smooth="yes"/>
      <point x="614" y="-147"/>
      <point x="588" y="-161"/>
      <point x="435" y="-161" type="curve"/>
    </contour>
    <contour>
      <point x="614" y="208" type="line"/>
      <point x="595" y="208"/>
      <point x="560" y="278"/>
      <point x="554" y="328" type="curve"/>
      <point x="448" y="273"/>
      <point x="385" y="248"/>
      <point x="360" y="250" type="curve"/>
      <point x="361" y="267"/>
      <point x="401" y="308"/>
      <point x="485" y="379" type="curve"/>
      <point x="343" y="381"/>
      <point x="221" y="395"/>
      <point x="213" y="411" type="curve"/>
      <point x="221" y="425"/>
      <point x="358" y="442"/>
      <point x="485" y="444" type="curve"/>
      <point x="395" y="521"/>
      <point x="359" y="558"/>
      <point x="360" y="574" type="curve"/>
      <point x="383" y="577"/>
      <point x="446" y="551"/>
      <point x="554" y="495" type="curve"/>
      <point x="560" y="544"/>
      <point x="596" y="616"/>
      <point x="614" y="616" type="curve"/>
    </contour>
  </outline>
</glyph>
<glyph name="ordmasculine" format="2">
  <advance width="609"/>
  <unicode hex="00BA"/>
  <outline>
    <contour>
      <point x="304" y="360" type="curve" smooth="yes"/>
      <point x="455" y="360"/>
      <point x="557" y="422"/>
      <point x="557" y="541" type="curve" smooth="yes"/>
      <point x="557" y="660"/>
      <point x="455" y="722"/>
      <point x="304" y="722" type="curve" smooth="yes"/>
      <point x="154" y="722"/>
      <point x="52" y="660"/>
      <point x="52" y="541" type="curve" smooth="yes"/>
      <point x="52" y="422"/>
      <point x="154" y="360"/>
    </contour>
    <contour>
      <point x="304" y="408" type="curve" smooth="yes"/>
      <point x="238" y="408"/>
      <point x="199" y="447"/>
      <point x="199" y="541" type="curve" smooth="yes"/>
      <point x="199" y="635"/>
      <point x="238" y="674"/>
      <point x="304" y="674" type="curve" smooth="yes"/>
      <point x="371" y="674"/>
      <point x="410" y="636"/>
      <point x="410" y="541" type="curve" smooth="yes"/>
      <point x="410" y="446"/>
      <point x="371" y="408"/>
    </contour>
  </outline>
</glyph>
<glyph name="AE" format="2">
  <advance width="1225"/>
  <unicode hex="00C6"/>
  <anchor x="592" y="0" name="bottom"/>
  <anchor x="625" y="708" name="top"/>
  <anchor x="625" y="688" name="top_low_1"/>
  <anchor x="625" y="668" name="top_low_2"/>
  <anchor x="625" y="648" name="top_low_3"/>
  <outline>
    <contour>
      <point x="-18" y="0" type="line"/>
      <point x="26" y="2"/>
      <point x="84" y="3"/>
      <point x="148" y="3" type="curve" smooth="yes"/>
      <point x="196" y="3"/>
      <point x="234" y="2"/>
      <point x="354" y="0" type="curve"/>
      <point x="354" y="70" type="line"/>
      <point x="223" y="93"/>
      <point x="207" y="134"/>
      <point x="289" y="236" type="curve" smooth="yes"/>
      <point x="716" y="772" type="line"/>
      <point x="629" y="772" type="line"/>
      <point x="175" y="202" type="line" smooth="yes"/>
      <point x="121" y="134"/>
      <point x="62" y="94"/>
      <point x="-18" y="70" type="curve"/>
    </contour>
    <contour>
      <point x="311" y="321" type="line"/>
      <point x="913" y="321" type="line"/>
      <point x="913" y="391" type="line"/>
      <point x="362" y="391" type="line"/>
    </contour>
    <contour>
      <point x="658" y="3" type="curve"/>
      <point x="667" y="3" type="line"/>
      <point x="861" y="3" type="line"/>
      <point x="990" y="3"/>
      <point x="1077" y="2"/>
      <point x="1141" y="0" type="curve"/>
      <point x="1140" y="87"/>
      <point x="1144" y="175"/>
      <point x="1157" y="280" type="curve"/>
      <point x="1084" y="280" type="line"/>
      <point x="1038" y="144"/>
      <point x="973" y="73"/>
      <point x="872" y="73" type="curve"/>
      <point x="850" y="73" type="line" smooth="yes"/>
      <point x="779" y="73"/>
      <point x="767" y="82"/>
      <point x="767" y="136" type="curve" smooth="yes"/>
      <point x="767" y="635" type="line"/>
      <point x="818" y="635" type="line"/>
      <point x="928" y="635"/>
      <point x="981" y="602"/>
      <point x="1020" y="508" type="curve"/>
      <point x="1093" y="508" type="line"/>
      <point x="1086" y="583"/>
      <point x="1084" y="646"/>
      <point x="1085" y="708" type="curve"/>
      <point x="1028" y="706"/>
      <point x="950" y="705"/>
      <point x="836" y="705" type="curve"/>
      <point x="667" y="705" type="line"/>
      <point x="655" y="705" type="line"/>
      <point x="596" y="705"/>
      <point x="478" y="706"/>
      <point x="426" y="708" type="curve"/>
      <point x="426" y="638" type="line"/>
      <point x="481" y="633" type="line"/>
      <point x="553" y="626"/>
      <point x="564" y="615"/>
      <point x="564" y="552" type="curve"/>
      <point x="564" y="156" type="line"/>
      <point x="564" y="93"/>
      <point x="556" y="81"/>
      <point x="497" y="73" type="curve"/>
      <point x="467" y="70" type="line"/>
      <point x="467" y="0" type="line"/>
      <point x="519" y="2"/>
      <point x="613" y="3"/>
    </contour>
    <contour>
      <point x="912" y="204" type="curve"/>
      <point x="985" y="204" type="line"/>
      <point x="981" y="260"/>
      <point x="980" y="299"/>
      <point x="980" y="356" type="curve" smooth="yes"/>
      <point x="980" y="413"/>
      <point x="981" y="452"/>
      <point x="985" y="508" type="curve"/>
      <point x="912" y="508" type="line"/>
      <point x="903" y="430"/>
      <point x="866" y="391"/>
      <point x="801" y="391" type="curve"/>
      <point x="801" y="321" type="line"/>
      <point x="866" y="321"/>
      <point x="903" y="282"/>
    </contour>
  </outline>
</glyph>
<glyph name="multiply" format="2">
  <advance width="482"/>
  <unicode hex="00D7"/>
  <outline>
    <contour>
      <point x="86" y="53" type="line"/>
      <point x="242" y="209" type="line"/>
      <point x="397" y="54" type="line"/>
      <point x="455" y="111" type="line"/>
      <point x="299" y="267" type="line"/>
      <point x="455" y="421" type="line"/>
      <point x="397" y="478" type="line"/>
      <point x="243" y="323" type="line"/>
      <point x="85" y="481" type="line"/>
      <point x="27" y="423" type="line"/>
      <point x="185" y="265" type="line"/>
      <point x="28" y="110" type="line"/>
    </contour>
  </outline>
</glyph>
<glyph name="germandbls" format="2">
  <advance width="891"/>
  <unicode hex="00DF"/>
  <outline>
    <contour>
      <point x="566" y="-14" type="curve" smooth="yes"/>
      <point x="732" y="-14"/>
      <point x="844" y="73"/>
      <point x="844" y="202" type="curve" smooth="yes"/>
      <point x="844" y="317"/>
      <point x="756" y="404"/>
      <point x="606" y="437" type="curve"/>
      <point x="690" y="479"/>
      <point x="733" y="536"/>
      <point x="733" y="607" type="curve" smooth="yes"/>
      <point x="733" y="716"/>
      <point x="628" y="782"/>
      <point x="452" y="782" type="curve" smooth="yes"/>
      <point x="238" y="782"/>
      <point x="134" y="685"/>
      <point x="134" y="486" type="curve" smooth="yes"/>
      <point x="134" y="166" type="line"/>
      <point x="134" y="99"/>
      <point x="117" y="78"/>
      <point x="62" y="73" type="curve"/>
      <point x="30" y="70" type="line"/>
      <point x="30" y="0" type="line"/>
      <point x="60" y="1"/>
      <point x="80" y="2"/>
      <point x="134" y="2" type="curve"/>
      <point x="210" y="2"/>
      <point x="266" y="-3"/>
      <point x="314" y="-11" type="curve"/>
      <point x="314" y="0" type="line"/>
      <point x="314" y="563" type="line" smooth="yes"/>
      <point x="314" y="662"/>
      <point x="359" y="717"/>
      <point x="441" y="717" type="curve" smooth="yes"/>
      <point x="518" y="717"/>
      <point x="563" y="669"/>
      <point x="563" y="586" type="curve" smooth="yes"/>
      <point x="563" y="536"/>
      <point x="549" y="487"/>
      <point x="527" y="461" type="curve"/>
      <point x="501" y="466"/>
      <point x="485" y="468"/>
      <point x="472" y="468" type="curve" smooth="yes"/>
      <point x="434" y="468"/>
      <point x="409" y="452"/>
      <point x="409" y="426" type="curve" smooth="yes"/>
      <point x="409" y="401"/>
      <point x="433" y="384"/>
      <point x="467" y="384" type="curve" smooth="yes"/>
      <point x="478" y="384"/>
      <point x="494" y="387"/>
      <point x="526" y="395" type="curve"/>
      <point x="604" y="368"/>
      <point x="657" y="287"/>
      <point x="657" y="195" type="curve" smooth="yes"/>
      <point x="657" y="111"/>
      <point x="611" y="55"/>
      <point x="542" y="55" type="curve" smooth="yes"/>
      <point x="521" y="55"/>
      <point x="511" y="60"/>
      <point x="511" y="72" type="curve" smooth="yes"/>
      <point x="511" y="95"/>
      <point x="554" y="123"/>
      <point x="554" y="168" type="curve" smooth="yes"/>
      <point x="554" y="204"/>
      <point x="525" y="227"/>
      <point x="481" y="227" type="curve" smooth="yes"/>
      <point x="417" y="227"/>
      <point x="373" y="181"/>
      <point x="373" y="116" type="curve" smooth="yes"/>
      <point x="373" y="34"/>
      <point x="444" y="-14"/>
    </contour>
  </outline>
</glyph>
<glyph name="ae" format="2">
  <advance width="1029"/>
  <unicode hex="00E6"/>
  <anchor x="518" y="0" name="bottom"/>
  <anchor x="796" y="0" name="ogonek"/>
  <anchor x="511" y="520" name="top"/>
  <outline>
    <contour>
      <point x="704" y="-14" type="curve" smooth="yes"/>
      <point x="824" y="-14"/>
      <point x="917" y="34"/>
      <point x="975" y="128" type="curve"/>
      <point x="917" y="174" type="line"/>
      <point x="874" y="122"/>
      <point x="818" y="96"/>
      <point x="750" y="96" type="curve" smooth="yes"/>
      <point x="647" y="96"/>
      <point x="595" y="157"/>
      <point x="595" y="282" type="curve" smooth="yes"/>
      <point x="595" y="297"/>
      <point x="595" y="303"/>
      <point x="597" y="314" type="curve"/>
      <point x="592" y="322" type="line"/>
      <point x="597" y="408"/>
      <point x="640" y="460"/>
      <point x="707" y="460" type="curve" smooth="yes"/>
      <point x="771" y="460"/>
      <point x="806" y="415"/>
      <point x="806" y="333" type="curve"/>
      <point x="537" y="333" type="line"/>
      <point x="540" y="264" type="line"/>
      <point x="972" y="264" type="line"/>
      <point x="979" y="435"/>
      <point x="882" y="533"/>
      <point x="708" y="533" type="curve" smooth="yes"/>
      <point x="529" y="533"/>
      <point x="415" y="426"/>
      <point x="415" y="257" type="curve" smooth="yes"/>
      <point x="415" y="91"/>
      <point x="527" y="-14"/>
    </contour>
    <contour>
      <point x="298" y="98" type="curve" smooth="yes"/>
      <point x="245" y="98"/>
      <point x="217" y="117"/>
      <point x="217" y="152" type="curve" smooth="yes"/>
      <point x="217" y="230"/>
      <point x="354" y="214"/>
      <point x="415" y="269" type="curve"/>
      <point x="415" y="257" type="line"/>
      <point x="452" y="171" type="line"/>
      <point x="427" y="127"/>
      <point x="365" y="98"/>
    </contour>
    <contour>
      <point x="223" y="-14" type="curve" smooth="yes"/>
      <point x="327" y="-14"/>
      <point x="424" y="25"/>
      <point x="496" y="100" type="curve"/>
      <point x="580" y="343" type="line"/>
      <point x="580" y="497"/>
      <point x="485" y="533"/>
      <point x="333" y="533" type="curve" smooth="yes"/>
      <point x="171" y="533"/>
      <point x="57" y="475"/>
      <point x="57" y="393" type="curve" smooth="yes"/>
      <point x="57" y="344"/>
      <point x="97" y="312"/>
      <point x="155" y="312" type="curve" smooth="yes"/>
      <point x="210" y="312"/>
      <point x="249" y="335"/>
      <point x="249" y="367" type="curve" smooth="yes"/>
      <point x="249" y="395"/>
      <point x="221" y="411"/>
      <point x="221" y="431" type="curve" smooth="yes"/>
      <point x="221" y="451"/>
      <point x="258" y="463"/>
      <point x="315" y="463" type="curve" smooth="yes"/>
      <point x="384" y="463"/>
      <point x="419" y="435"/>
      <point x="419" y="381" type="curve" smooth="yes"/>
      <point x="419" y="370" type="line" smooth="yes"/>
      <point x="419" y="263"/>
      <point x="43" y="313"/>
      <point x="43" y="117" type="curve" smooth="yes"/>
      <point x="43" y="34"/>
      <point x="109" y="-14"/>
    </contour>
  </outline>
</glyph>
<glyph name="eth" format="2">
  <advance width="746"/>
  <unicode hex="00F0"/>
  <outline>
    <contour>
      <point x="363" y="-14" type="curve" smooth="yes"/>
      <point x="576" y="-14"/>
      <point x="691" y="91"/>
      <point x="691" y="285" type="curve" smooth="yes"/>
      <point x="691" y="527"/>
      <point x="514" y="711"/>
      <point x="196" y="782" type="curve"/>
      <point x="177" y="720" type="line"/>
      <point x="402" y="660"/>
      <point x="504" y="521"/>
      <point x="504" y="285" type="curve" smooth="yes"/>
      <point x="504" y="133"/>
      <point x="461" y="56"/>
      <point x="377" y="56" type="curve" smooth="yes"/>
      <point x="294" y="56"/>
      <point x="246" y="123"/>
      <point x="246" y="240" type="curve" smooth="yes"/>
      <point x="246" y="359"/>
      <point x="295" y="412"/>
      <point x="405" y="412" type="curve" smooth="yes"/>
      <point x="453" y="412"/>
      <point x="487" y="401"/>
      <point x="514" y="377" type="curve"/>
      <point x="507" y="436" type="line"/>
      <point x="472" y="478"/>
      <point x="418" y="498"/>
      <point x="340" y="498" type="curve" smooth="yes"/>
      <point x="163" y="498"/>
      <point x="59" y="403"/>
      <point x="59" y="238" type="curve" smooth="yes"/>
      <point x="59" y="72"/>
      <point x="163" y="-14"/>
    </contour>
    <contour>
      <point x="186" y="540" type="line"/>
      <point x="415" y="627" type="line"/>
      <point x="384" y="684" type="line"/>
      <point x="162" y="601" type="line"/>
    </contour>
    <contour>
      <point x="415" y="627" type="line"/>
      <point x="633" y="708" type="line"/>
      <point x="610" y="768" type="line"/>
      <point x="384" y="684" type="line"/>
    </contour>
  </outline>
</glyph>
<glyph name="Aogonek" format="2">
  <advance width="1041"/>
  <unicode hex="0104"/>
  <anchor x="510" y="354" name="center"/>
  <anchor x="510" y="708" name="top"/>
  <anchor x="510" y="688" name="top_low_1"/>
  <anchor x="510" y="668" name="top_low_2"/>
  <anchor x="510" y="648" name="top_low_3"/>
  <outline>
    <contour>
      <point x="275" y="205" type="curve"/>
      <point x="442" y="508" type="line"/>
      <point x="422" y="515" type="line"/>
      <point x="667" y="102" type="line"/>
      <point x="693" y="58"/>
      <point x="711" y="33"/>
      <point x="634" y="-29" type="curve"/>
      <point x="560" y="-89"/>
      <point x="535" y="-123"/>
      <point x="535" y="-162" type="curve"/>
      <point x="535" y="-210"/>
      <point x="584" y="-239"/>
      <point x="662" y="-239" type="curve"/>
      <point x="724" y="-239"/>
      <point x="781" y="-221"/>
      <point x="828" y="-187" type="curve"/>
      <point x="802" y="-132" type="line"/>
      <point x="777" y="-143"/>
      <point x="749" y="-149"/>
      <point x="724" y="-149" type="curve"/>
      <point x="688" y="-149"/>
      <point x="672" y="-136"/>
      <point x="672" y="-109" type="curve"/>
      <point x="672" y="-44"/>
      <point x="780" y="9"/>
      <point x="1026" y="0" type="curve"/>
      <point x="1026" y="70" type="line"/>
      <point x="944" y="75"/>
      <point x="900" y="103"/>
      <point x="855" y="178" type="curve"/>
      <point x="541" y="708" type="line"/>
      <point x="475" y="708" type="line"/>
      <point x="188" y="195" type="line"/>
      <point x="135" y="102"/>
      <point x="106" y="80"/>
      <point x="36" y="73" type="curve"/>
      <point x="7" y="70" type="line"/>
      <point x="7" y="0" type="line"/>
      <point x="57" y="2"/>
      <point x="117" y="3"/>
      <point x="175" y="3" type="curve"/>
      <point x="241" y="3"/>
      <point x="309" y="2"/>
      <point x="369" y="0" type="curve"/>
      <point x="369" y="70" type="line"/>
      <point x="332" y="74" type="line"/>
      <point x="248" y="83"/>
      <point x="230" y="125"/>
    </contour>
    <contour>
      <point x="245" y="193" type="line"/>
      <point x="675" y="193" type="line"/>
      <point x="636" y="263" type="line"/>
      <point x="282" y="263" type="line"/>
    </contour>
  </outline>
</glyph>
<glyph name="idotless" format="2">
  <advance width="450"/>
  <unicode hex="0131"/>
  <anchor x="134" y="260" name="#entry"/>
  <anchor x="314" y="260" name="#exit"/>
  <anchor x="-162" y="0" name="%entry"/>
  <anchor x="134" y="0" name="%exit"/>
  <anchor x="-2" y="0" name="^entry"/>
  <anchor x="434" y="0" name="^exit"/>
  <anchor x="224" y="0" name="bottom"/>
  <anchor x="224" y="259" name="center"/>
  <anchor x="366" y="0" name="ogonek"/>
  <anchor x="134" y="260" name="stem"/>
  <anchor x="223" y="520" name="top"/>
  <anchor x="223" y="500" name="top_low_1"/>
  <anchor x="223" y="480" name="top_low_2"/>
  <anchor x="223" y="460" name="top_low_3"/>
  <anchor x="314" y="519" name="topright"/>
  <outline>
    <contour>
      <point x="134" y="260" type="line"/>
      <point x="314" y="260" type="line"/>
      <point x="314" y="519" type="line"/>
      <point x="314" y="530" type="line"/>
      <point x="266" y="522"/>
      <point x="210" y="517"/>
      <point x="134" y="517" type="curve"/>
      <point x="80" y="517"/>
      <point x="60" y="518"/>
      <point x="30" y="519" type="curve"/>
      <point x="30" y="449" type="line"/>
      <point x="62" y="446" type="line"/>
      <point x="117" y="441"/>
      <point x="134" y="420"/>
      <point x="134" y="353" type="curve"/>
    </contour>
    <contour>
      <point x="224" y="3" type="curve"/>
      <point x="224" y="3" type="line"/>
      <point x="224" y="3" type="line"/>
      <point x="297" y="3"/>
      <point x="360" y="1"/>
      <point x="418" y="0" type="curve"/>
      <point x="418" y="70" type="line"/>
      <point x="386" y="73" type="line"/>
      <point x="331" y="78"/>
      <point x="314" y="96"/>
      <point x="314" y="156" type="curve"/>
      <point x="314" y="260" type="line"/>
      <point x="134" y="260" type="line"/>
      <point x="134" y="156" type="line"/>
      <point x="134" y="96"/>
      <point x="117" y="78"/>
      <point x="62" y="73" type="curve"/>
      <point x="30" y="70" type="line"/>
      <point x="30" y="0" type="line"/>
      <point x="88" y="1"/>
      <point x="151" y="3"/>
    </contour>
  </outline>
</glyph>
<glyph name="kgreenlandic" format="2">
  <advance width="835"/>
  <unicode hex="0138"/>
  <anchor x="134" y="260" name="#entry"/>
  <anchor x="314" y="260" name="#exit"/>
  <anchor x="134" y="0" name="^exit"/>
  <anchor x="134" y="260" name="stem"/>
  <anchor x="314" y="519" name="topright"/>
  <outline>
    <contour>
      <point x="134" y="260" type="line"/>
      <point x="314" y="260" type="line"/>
      <point x="314" y="519" type="line"/>
      <point x="314" y="530" type="line"/>
      <point x="266" y="522"/>
      <point x="210" y="517"/>
      <point x="134" y="517" type="curve"/>
      <point x="80" y="517"/>
      <point x="60" y="518"/>
      <point x="30" y="519" type="curve"/>
      <point x="30" y="449" type="line"/>
      <point x="62" y="446" type="line"/>
      <point x="117" y="441"/>
      <point x="134" y="420"/>
      <point x="134" y="353" type="curve"/>
    </contour>
    <component base="_LC-baseline-normal-narrow" xOffset="-2"/>
    <component base="_LC-k-legs" xOffset="257"/>
  </outline>
</glyph>
<glyph name="OE" format="2">
  <advance width="1321"/>
  <unicode hex="0152"/>
  <anchor x="656" y="0" name="bottom"/>
  <anchor x="646" y="708" name="top"/>
  <anchor x="646" y="688" name="top_low_1"/>
  <anchor x="646" y="668" name="top_low_2"/>
  <anchor x="646" y="648" name="top_low_3"/>
  <outline>
    <contour>
      <point x="501" y="-14" type="curve" smooth="yes"/>
      <point x="594" y="-14"/>
      <point x="621" y="3"/>
      <point x="766" y="3" type="curve" smooth="yes"/>
      <point x="818" y="3"/>
      <point x="880" y="3"/>
      <point x="918" y="3" type="curve" smooth="yes"/>
      <point x="957" y="3" type="line"/>
      <point x="1086" y="3"/>
      <point x="1173" y="2"/>
      <point x="1237" y="0" type="curve"/>
      <point x="1236" y="87"/>
      <point x="1240" y="175"/>
      <point x="1253" y="280" type="curve"/>
      <point x="1180" y="280" type="line"/>
      <point x="1134" y="144"/>
      <point x="1069" y="73"/>
      <point x="968" y="73" type="curve"/>
      <point x="945" y="73" type="line" smooth="yes"/>
      <point x="875" y="73"/>
      <point x="864" y="84"/>
      <point x="864" y="156" type="curve" smooth="yes"/>
      <point x="864" y="635" type="line"/>
      <point x="967" y="635" type="line"/>
      <point x="1076" y="635"/>
      <point x="1122" y="606"/>
      <point x="1157" y="508" type="curve"/>
      <point x="1230" y="508" type="line"/>
      <point x="1223" y="583"/>
      <point x="1221" y="646"/>
      <point x="1222" y="708" type="curve"/>
      <point x="1164" y="706"/>
      <point x="1086" y="705"/>
      <point x="970" y="705" type="curve"/>
      <point x="762" y="705" type="line" smooth="yes"/>
      <point x="624" y="705"/>
      <point x="591" y="722"/>
      <point x="504" y="722" type="curve" smooth="yes"/>
      <point x="240" y="722"/>
      <point x="57" y="567"/>
      <point x="57" y="345" type="curve" smooth="yes"/>
      <point x="57" y="128"/>
      <point x="233" y="-14"/>
    </contour>
    <contour>
      <point x="515" y="54" type="curve" smooth="yes"/>
      <point x="366" y="54"/>
      <point x="267" y="176"/>
      <point x="267" y="360" type="curve" smooth="yes"/>
      <point x="267" y="540"/>
      <point x="363" y="654"/>
      <point x="513" y="654" type="curve" smooth="yes"/>
      <point x="608" y="654"/>
      <point x="661" y="614"/>
      <point x="661" y="542" type="curve" smooth="yes"/>
      <point x="661" y="156" type="line" smooth="yes"/>
      <point x="661" y="91"/>
      <point x="608" y="54"/>
    </contour>
    <contour>
      <point x="818" y="321" type="line"/>
      <point x="1009" y="321" type="line"/>
      <point x="1009" y="391" type="line"/>
      <point x="818" y="391" type="line"/>
    </contour>
    <contour>
      <point x="1008" y="204" type="curve"/>
      <point x="1081" y="204" type="line"/>
      <point x="1077" y="260"/>
      <point x="1076" y="299"/>
      <point x="1076" y="356" type="curve" smooth="yes"/>
      <point x="1076" y="413"/>
      <point x="1077" y="452"/>
      <point x="1081" y="508" type="curve"/>
      <point x="1008" y="508" type="line"/>
      <point x="999" y="430"/>
      <point x="962" y="391"/>
      <point x="897" y="391" type="curve"/>
      <point x="897" y="321" type="line"/>
      <point x="962" y="321"/>
      <point x="999" y="282"/>
    </contour>
  </outline>
</glyph>
<glyph name="oe" format="2">
  <advance width="1094"/>
  <unicode hex="0153"/>
  <anchor x="560" y="0" name="bottom"/>
  <anchor x="564" y="520" name="top"/>
  <outline>
    <contour>
      <point x="354" y="-14" type="curve" smooth="yes"/>
      <point x="531" y="-14"/>
      <point x="632" y="85"/>
      <point x="632" y="259" type="curve" smooth="yes"/>
      <point x="632" y="433"/>
      <point x="531" y="533"/>
      <point x="354" y="533" type="curve" smooth="yes"/>
      <point x="173" y="533"/>
      <point x="59" y="428"/>
      <point x="59" y="259" type="curve" smooth="yes"/>
      <point x="59" y="90"/>
      <point x="172" y="-14"/>
    </contour>
    <contour>
      <point x="361" y="56" type="curve" smooth="yes"/>
      <point x="287" y="56"/>
      <point x="246" y="129"/>
      <point x="246" y="262" type="curve" smooth="yes"/>
      <point x="246" y="394"/>
      <point x="285" y="463"/>
      <point x="361" y="463" type="curve" smooth="yes"/>
      <point x="436" y="463"/>
      <point x="475" y="394"/>
      <point x="475" y="262" type="curve" smooth="yes"/>
      <point x="475" y="129"/>
      <point x="435" y="56"/>
    </contour>
    <contour>
      <point x="779" y="-14" type="curve" smooth="yes"/>
      <point x="894" y="-14"/>
      <point x="984" y="35"/>
      <point x="1040" y="128" type="curve"/>
      <point x="982" y="174" type="line"/>
      <point x="939" y="122"/>
      <point x="884" y="96"/>
      <point x="816" y="96" type="curve" smooth="yes"/>
      <point x="711" y="96"/>
      <point x="662" y="157"/>
      <point x="662" y="289" type="curve" smooth="yes"/>
      <point x="662" y="299"/>
      <point x="663" y="306"/>
      <point x="664" y="314" type="curve"/>
      <point x="659" y="322" type="line"/>
      <point x="663" y="408"/>
      <point x="706" y="460"/>
      <point x="773" y="460" type="curve" smooth="yes"/>
      <point x="837" y="460"/>
      <point x="871" y="416"/>
      <point x="871" y="333" type="curve"/>
      <point x="604" y="333" type="line"/>
      <point x="607" y="264" type="line"/>
      <point x="1037" y="264" type="line"/>
      <point x="1045" y="431"/>
      <point x="947" y="533"/>
      <point x="780" y="533" type="curve" smooth="yes"/>
      <point x="610" y="533"/>
      <point x="505" y="429"/>
      <point x="505" y="259" type="curve" smooth="yes"/>
      <point x="505" y="90"/>
      <point x="609" y="-14"/>
    </contour>
  </outline>
</glyph>
<glyph name="bstroke" format="2">
  <advance width="809"/>
  <unicode hex="0180"/>
  <anchor x="310" y="260" name="#entry"/>
  <anchor x="310" y="260" name="#exit"/>
  <anchor x="434" y="261" name="center"/>
  <anchor x="357" y="520" name="top"/>
  <anchor x="130" y="520" name="top-left"/>
  <outline>
    <contour>
      <point x="494" y="476" type="curve" smooth="yes"/>
      <point x="402" y="476"/>
      <point x="328" y="437"/>
      <point x="296" y="373" type="curve"/>
      <point x="305" y="307" type="line"/>
      <point x="328" y="351"/>
      <point x="369" y="374"/>
      <point x="424" y="374" type="curve" smooth="yes"/>
      <point x="514" y="374"/>
      <point x="563" y="321"/>
      <point x="563" y="226" type="curve" smooth="yes"/>
      <point x="563" y="127"/>
      <point x="509" y="73"/>
      <point x="409" y="73" type="curve" smooth="yes"/>
      <point x="353" y="73"/>
      <point x="310" y="92"/>
      <point x="283" y="129" type="curve"/>
      <point x="270" y="41" type="line"/>
      <point x="326" y="5"/>
      <point x="387" y="-13"/>
      <point x="458" y="-13" type="curve" smooth="yes"/>
      <point x="636" y="-13"/>
      <point x="750" y="84"/>
      <point x="750" y="237" type="curve" smooth="yes"/>
      <point x="750" y="379"/>
      <point x="646" y="476"/>
    </contour>
    <component base="_LC-baseline-left-instroke"/>
    <component base="_LC-ascender-serifless" xOffset="-6"/>
    <component base="strokeshortcomb" xOffset="-21" yOffset="349"/>
  </outline>
</glyph>
<glyph name="Bhook" format="2">
  <advance width="1107"/>
  <unicode hex="0181"/>
  <anchor x="671" y="0" name="bottom"/>
  <anchor x="686" y="0" name="currency"/>
  <anchor x="671" y="708" name="top"/>
  <outline>
    <contour>
      <point x="466" y="3" type="curve"/>
      <point x="479" y="3" type="line"/>
      <point x="608" y="3"/>
      <point x="660" y="0"/>
      <point x="702" y="0" type="curve" smooth="yes"/>
      <point x="934" y="0"/>
      <point x="1067" y="73"/>
      <point x="1067" y="199" type="curve" smooth="yes"/>
      <point x="1067" y="297"/>
      <point x="987" y="362"/>
      <point x="842" y="382" type="curve"/>
      <point x="842" y="384" type="line"/>
      <point x="948" y="412"/>
      <point x="999" y="463"/>
      <point x="999" y="541" type="curve" smooth="yes"/>
      <point x="999" y="654"/>
      <point x="895" y="708"/>
      <point x="680" y="708" type="curve" smooth="yes"/>
      <point x="643" y="708"/>
      <point x="589" y="705"/>
      <point x="480" y="705" type="curve"/>
      <point x="484" y="705" type="line"/>
      <point x="395" y="705"/>
      <point x="329" y="708"/>
      <point x="265" y="708" type="curve"/>
      <point x="113" y="708"/>
      <point x="28" y="640"/>
      <point x="28" y="529" type="curve"/>
      <point x="28" y="460"/>
      <point x="66" y="418"/>
      <point x="127" y="418" type="curve"/>
      <point x="180" y="418"/>
      <point x="216" y="451"/>
      <point x="216" y="499" type="curve"/>
      <point x="216" y="540"/>
      <point x="183" y="555"/>
      <point x="183" y="588" type="curve"/>
      <point x="183" y="619"/>
      <point x="201" y="638"/>
      <point x="266" y="638" type="curve"/>
      <point x="352" y="638"/>
      <point x="377" y="621"/>
      <point x="377" y="552" type="curve"/>
      <point x="377" y="156" type="line"/>
      <point x="377" y="97"/>
      <point x="365" y="84"/>
      <point x="304" y="78" type="curve"/>
      <point x="211" y="71" type="line"/>
      <point x="211" y="1" type="line"/>
      <point x="273" y="2"/>
      <point x="400" y="3"/>
    </contour>
    <contour>
      <point x="683" y="73" type="curve" smooth="yes"/>
      <point x="604" y="73"/>
      <point x="580" y="92"/>
      <point x="580" y="156" type="curve" smooth="yes"/>
      <point x="580" y="638" type="line"/>
      <point x="672" y="638" type="line" smooth="yes"/>
      <point x="762" y="638"/>
      <point x="813" y="597"/>
      <point x="813" y="525" type="curve" smooth="yes"/>
      <point x="813" y="449"/>
      <point x="760" y="401"/>
      <point x="675" y="401" type="curve" smooth="yes"/>
      <point x="526" y="401" type="line"/>
      <point x="526" y="334" type="line"/>
      <point x="680" y="334" type="line" smooth="yes"/>
      <point x="795" y="334"/>
      <point x="857" y="289"/>
      <point x="857" y="204" type="curve" smooth="yes"/>
      <point x="857" y="119"/>
      <point x="796" y="73"/>
    </contour>
  </outline>
</glyph>
<glyph name="Chook" format="2">
  <advance width="921"/>
  <unicode hex="0187"/>
  <anchor x="516" y="0" name="bottom"/>
  <anchor x="501" y="0" name="currency"/>
  <anchor x="267" y="354" name="middlestroke"/>
  <anchor x="454" y="708" name="top"/>
  <outline>
    <contour>
      <point x="459" y="-14" type="curve" smooth="yes"/>
      <point x="636" y="-14"/>
      <point x="697" y="59"/>
      <point x="739" y="59" type="curve" smooth="yes"/>
      <point x="758" y="59"/>
      <point x="768" y="42"/>
      <point x="774" y="-4" type="curve"/>
      <point x="847" y="-4" type="line"/>
      <point x="843" y="93"/>
      <point x="842" y="155"/>
      <point x="842" y="280" type="curve"/>
      <point x="769" y="280" type="line"/>
      <point x="736" y="144"/>
      <point x="649" y="71"/>
      <point x="521" y="71" type="curve" smooth="yes"/>
      <point x="363" y="71"/>
      <point x="267" y="178"/>
      <point x="267" y="355" type="curve" smooth="yes"/>
      <point x="267" y="529"/>
      <point x="361" y="633"/>
      <point x="518" y="633" type="curve" smooth="yes"/>
      <point x="648" y="633"/>
      <point x="735" y="562"/>
      <point x="769" y="428" type="curve"/>
      <point x="842" y="428" type="line"/>
      <point x="831" y="511"/>
      <point x="809" y="587"/>
      <point x="770" y="648" type="curve"/>
      <point x="691" y="648"/>
      <point x="657" y="722"/>
      <point x="464" y="722" type="curve" smooth="yes"/>
      <point x="218" y="722"/>
      <point x="57" y="574"/>
      <point x="57" y="349" type="curve" smooth="yes"/>
      <point x="57" y="126"/>
      <point x="213" y="-14"/>
    </contour>
    <contour>
      <point x="772" y="428" type="curve"/>
      <point x="842" y="428" type="line"/>
      <point x="842" y="587"/>
      <point x="745" y="658"/>
      <point x="745" y="783" type="curve" smooth="yes"/>
      <point x="745" y="809"/>
      <point x="756" y="821"/>
      <point x="780" y="821" type="curve" smooth="yes"/>
      <point x="825" y="821"/>
      <point x="839" y="789"/>
      <point x="889" y="789" type="curve" smooth="yes"/>
      <point x="932" y="789"/>
      <point x="961" y="817"/>
      <point x="961" y="859" type="curve" smooth="yes"/>
      <point x="961" y="922"/>
      <point x="918" y="956"/>
      <point x="841" y="956" type="curve" smooth="yes"/>
      <point x="738" y="956"/>
      <point x="675" y="894"/>
      <point x="675" y="793" type="curve" smooth="yes"/>
      <point x="675" y="624"/>
      <point x="772" y="551"/>
    </contour>
  </outline>
</glyph>
<glyph name="Dhook" format="2">
  <advance width="1241"/>
  <unicode hex="018A"/>
  <anchor x="713" y="0" name="bottom"/>
  <anchor x="489" y="356" name="center"/>
  <anchor x="735" y="708" name="top"/>
  <outline>
    <contour>
      <point x="611" y="0" type="curve"/>
      <point x="667" y="0" type="line" smooth="yes"/>
      <point x="994" y="0"/>
      <point x="1184" y="136"/>
      <point x="1184" y="370" type="curve" smooth="yes"/>
      <point x="1184" y="592"/>
      <point x="1009" y="708"/>
      <point x="674" y="708" type="curve" smooth="yes"/>
      <point x="627" y="708"/>
      <point x="540" y="705"/>
      <point x="484" y="705" type="curve"/>
      <point x="484" y="705" type="line"/>
      <point x="395" y="705"/>
      <point x="329" y="708"/>
      <point x="265" y="708" type="curve"/>
      <point x="113" y="708"/>
      <point x="28" y="640"/>
      <point x="28" y="529" type="curve"/>
      <point x="28" y="460"/>
      <point x="66" y="418"/>
      <point x="127" y="418" type="curve"/>
      <point x="180" y="418"/>
      <point x="216" y="451"/>
      <point x="216" y="499" type="curve"/>
      <point x="216" y="540"/>
      <point x="183" y="555"/>
      <point x="183" y="588" type="curve"/>
      <point x="183" y="619"/>
      <point x="201" y="638"/>
      <point x="266" y="638" type="curve"/>
      <point x="352" y="638"/>
      <point x="377" y="621"/>
      <point x="377" y="552" type="curve"/>
      <point x="377" y="156" type="line"/>
      <point x="377" y="95"/>
      <point x="364" y="83"/>
      <point x="282" y="76" type="curve"/>
      <point x="203" y="70" type="line"/>
      <point x="203" y="0" type="line"/>
      <point x="264" y="2"/>
      <point x="392" y="3"/>
      <point x="483" y="3" type="curve"/>
      <point x="516" y="3"/>
      <point x="581" y="0"/>
    </contour>
    <contour>
      <point x="680" y="68" type="curve" smooth="yes"/>
      <point x="600" y="68"/>
      <point x="580" y="85"/>
      <point x="580" y="154" type="curve" smooth="yes"/>
      <point x="580" y="640" type="line"/>
      <point x="681" y="640" type="line" smooth="yes"/>
      <point x="885" y="640"/>
      <point x="974" y="553"/>
      <point x="974" y="356" type="curve" smooth="yes"/>
      <point x="974" y="158"/>
      <point x="883" y="68"/>
    </contour>
  </outline>
</glyph>
<glyph name="Schwa" format="2">
  <advance width="1015"/>
  <unicode hex="018F"/>
  <anchor x="531" y="0" name="bottom"/>
  <anchor x="531" y="708" name="top"/>
  <anchor x="531" y="688" name="top_low_1"/>
  <anchor x="531" y="668" name="top_low_2"/>
  <anchor x="531" y="648" name="top_low_3"/>
  <outline>
    <contour>
      <point x="498" y="-14" type="curve" smooth="yes"/>
      <point x="780" y="-14"/>
      <point x="958" y="130"/>
      <point x="958" y="359" type="curve" smooth="yes"/>
      <point x="958" y="582"/>
      <point x="786" y="722"/>
      <point x="512" y="722" type="curve" smooth="yes"/>
      <point x="329" y="722"/>
      <point x="188" y="659"/>
      <point x="105" y="539" type="curve"/>
      <point x="140" y="508" type="line"/>
      <point x="211" y="578"/>
      <point x="307" y="613"/>
      <point x="426" y="613" type="curve" smooth="yes"/>
      <point x="631" y="613"/>
      <point x="748" y="507"/>
      <point x="748" y="319" type="curve" smooth="yes"/>
      <point x="748" y="156"/>
      <point x="659" y="59"/>
      <point x="511" y="59" type="curve" smooth="yes"/>
      <point x="364" y="59"/>
      <point x="260" y="156"/>
      <point x="263" y="292" type="curve"/>
      <point x="811" y="292" type="line"/>
      <point x="809" y="361" type="line"/>
      <point x="57" y="361" type="line"/>
      <point x="47" y="130"/>
      <point x="217" y="-14"/>
    </contour>
  </outline>
</glyph>
<glyph name="Eopen" format="2">
  <advance width="785"/>
  <unicode hex="0190"/>
  <anchor x="391" y="0" name="bottom"/>
  <anchor x="391" y="708" name="top"/>
  <outline>
    <contour>
      <point x="347" y="-14" type="curve" smooth="yes"/>
      <point x="497" y="-14"/>
      <point x="585" y="37"/>
      <point x="615" y="37" type="curve" smooth="yes"/>
      <point x="628" y="37"/>
      <point x="634" y="26"/>
      <point x="638" y="-4" type="curve"/>
      <point x="711" y="-4" type="line"/>
      <point x="707" y="44"/>
      <point x="706" y="93"/>
      <point x="706" y="240" type="curve"/>
      <point x="633" y="240" type="line"/>
      <point x="608" y="132"/>
      <point x="535" y="73"/>
      <point x="407" y="73" type="curve" smooth="yes"/>
      <point x="313" y="73"/>
      <point x="250" y="113"/>
      <point x="250" y="187" type="curve" smooth="yes"/>
      <point x="250" y="247"/>
      <point x="288" y="296"/>
      <point x="358" y="325" type="curve"/>
      <point x="392" y="316"/>
      <point x="418" y="312"/>
      <point x="442" y="312" type="curve" smooth="yes"/>
      <point x="484" y="312"/>
      <point x="512" y="325"/>
      <point x="512" y="354" type="curve" smooth="yes"/>
      <point x="512" y="383"/>
      <point x="484" y="396"/>
      <point x="442" y="396" type="curve" smooth="yes"/>
      <point x="418" y="396"/>
      <point x="392" y="392"/>
      <point x="358" y="383" type="curve"/>
      <point x="291" y="407"/>
      <point x="250" y="456"/>
      <point x="250" y="514" type="curve" smooth="yes"/>
      <point x="250" y="590"/>
      <point x="312" y="635"/>
      <point x="408" y="635" type="curve" smooth="yes"/>
      <point x="535" y="635"/>
      <point x="606" y="579"/>
      <point x="633" y="468" type="curve"/>
      <point x="706" y="468" type="line"/>
      <point x="706" y="615"/>
      <point x="707" y="664"/>
      <point x="711" y="712" type="curve"/>
      <point x="638" y="712" type="line"/>
      <point x="634" y="681"/>
      <point x="628" y="671"/>
      <point x="614" y="671" type="curve" smooth="yes"/>
      <point x="580" y="671"/>
      <point x="522" y="722"/>
      <point x="371" y="722" type="curve" smooth="yes"/>
      <point x="180" y="722"/>
      <point x="60" y="646"/>
      <point x="60" y="535" type="curve" smooth="yes"/>
      <point x="60" y="450"/>
      <point x="128" y="387"/>
      <point x="242" y="355" type="curve"/>
      <point x="242" y="353" type="line"/>
      <point x="113" y="324"/>
      <point x="40" y="256"/>
      <point x="40" y="166" type="curve" smooth="yes"/>
      <point x="40" y="54"/>
      <point x="156" y="-14"/>
    </contour>
  </outline>
</glyph>
<glyph name="Fhook" format="2">
  <advance width="816"/>
  <unicode hex="0191"/>
  <anchor x="416" y="0" name="bottom"/>
  <anchor x="298" y="140" name="center"/>
  <anchor x="188" y="250" name="stem"/>
  <anchor x="436" y="708" name="top"/>
  <anchor x="436" y="688" name="top_low_1"/>
  <anchor x="436" y="668" name="top_low_2"/>
  <anchor x="436" y="648" name="top_low_3"/>
  <outline>
    <contour>
      <point x="188" y="250" type="line"/>
      <point x="391" y="250" type="line"/>
      <point x="391" y="635" type="line"/>
      <point x="480" y="635" type="line"/>
      <point x="591" y="635"/>
      <point x="651" y="599"/>
      <point x="694" y="508" type="curve"/>
      <point x="767" y="508" type="line"/>
      <point x="760" y="583"/>
      <point x="758" y="646"/>
      <point x="759" y="708" type="curve"/>
      <point x="702" y="706"/>
      <point x="626" y="705"/>
      <point x="512" y="705" type="curve"/>
      <point x="291" y="705" type="line"/>
      <point x="279" y="705" type="line"/>
      <point x="220" y="705"/>
      <point x="102" y="706"/>
      <point x="50" y="708" type="curve"/>
      <point x="50" y="638" type="line"/>
      <point x="105" y="633" type="line"/>
      <point x="177" y="626"/>
      <point x="188" y="615"/>
      <point x="188" y="552" type="curve"/>
    </contour>
    <contour>
      <point x="343" y="271" type="line"/>
      <point x="570" y="271" type="line"/>
      <point x="570" y="341" type="line"/>
      <point x="343" y="341" type="line"/>
    </contour>
    <contour>
      <point x="557" y="124" type="curve"/>
      <point x="630" y="124" type="line"/>
      <point x="626" y="191"/>
      <point x="625" y="238"/>
      <point x="625" y="306" type="curve" smooth="yes"/>
      <point x="625" y="374"/>
      <point x="626" y="421"/>
      <point x="630" y="488" type="curve"/>
      <point x="557" y="488" type="line"/>
      <point x="548" y="390"/>
      <point x="511" y="341"/>
      <point x="446" y="341" type="curve"/>
      <point x="446" y="271" type="line"/>
      <point x="511" y="271"/>
      <point x="548" y="222"/>
    </contour>
    <component base="_UC-J-descender-stump" xOffset="15"/>
  </outline>
</glyph>
<glyph name="Ghook" format="2">
  <advance width="1005"/>
  <unicode hex="0193"/>
  <anchor x="522" y="0" name="bottom"/>
  <anchor x="504" y="0" name="currency"/>
  <anchor x="473" y="708" name="top"/>
  <outline>
    <contour>
      <point x="469" y="-14" type="curve" smooth="yes"/>
      <point x="650" y="-14"/>
      <point x="706" y="57"/>
      <point x="755" y="57" type="curve" smooth="yes"/>
      <point x="778" y="57"/>
      <point x="789" y="41"/>
      <point x="793" y="0" type="curve"/>
      <point x="866" y="0" type="line"/>
      <point x="866" y="198" type="line"/>
      <point x="866" y="261"/>
      <point x="872" y="273"/>
      <point x="923" y="282" type="curve"/>
      <point x="935" y="284" type="line"/>
      <point x="935" y="354" type="line"/>
      <point x="883" y="352"/>
      <point x="806" y="351"/>
      <point x="770" y="351" type="curve"/>
      <point x="765" y="351" type="line"/>
      <point x="754" y="351" type="line"/>
      <point x="695" y="351"/>
      <point x="577" y="352"/>
      <point x="525" y="354" type="curve"/>
      <point x="525" y="284" type="line"/>
      <point x="580" y="279" type="line"/>
      <point x="652" y="272"/>
      <point x="663" y="261"/>
      <point x="663" y="198" type="curve"/>
      <point x="663" y="138" type="line" smooth="yes"/>
      <point x="663" y="96"/>
      <point x="625" y="71"/>
      <point x="532" y="71" type="curve" smooth="yes"/>
      <point x="363" y="71"/>
      <point x="267" y="174"/>
      <point x="267" y="354" type="curve" smooth="yes"/>
      <point x="267" y="531"/>
      <point x="361" y="633"/>
      <point x="522" y="633" type="curve" smooth="yes"/>
      <point x="672" y="633"/>
      <point x="759" y="562"/>
      <point x="793" y="428" type="curve"/>
      <point x="866" y="428" type="line"/>
      <point x="855" y="511"/>
      <point x="833" y="587"/>
      <point x="794" y="648" type="curve"/>
      <point x="710" y="648"/>
      <point x="674" y="722"/>
      <point x="469" y="722" type="curve" smooth="yes"/>
      <point x="218" y="722"/>
      <point x="57" y="576"/>
      <point x="57" y="350" type="curve" smooth="yes"/>
      <point x="57" y="126"/>
      <point x="215" y="-14"/>
    </contour>
    <contour>
      <point x="796" y="428" type="curve"/>
      <point x="866" y="428" type="line"/>
      <point x="866" y="587"/>
      <point x="769" y="658"/>
      <point x="769" y="783" type="curve" smooth="yes"/>
      <point x="769" y="809"/>
      <point x="780" y="821"/>
      <point x="804" y="821" type="curve" smooth="yes"/>
      <point x="849" y="821"/>
      <point x="863" y="789"/>
      <point x="913" y="789" type="curve" smooth="yes"/>
      <point x="956" y="789"/>
      <point x="985" y="817"/>
      <point x="985" y="859" type="curve" smooth="yes"/>
      <point x="985" y="922"/>
      <point x="942" y="956"/>
      <point x="865" y="956" type="curve" smooth="yes"/>
      <point x="762" y="956"/>
      <point x="699" y="894"/>
      <point x="699" y="793" type="curve" smooth="yes"/>
      <point x="699" y="624"/>
      <point x="796" y="551"/>
    </contour>
  </outline>
</glyph>
<glyph name="Khook" format="2">
  <advance width="1105"/>
  <unicode hex="0198"/>
  <anchor x="555" y="0" name="bottom"/>
  <anchor x="290" y="509" name="center"/>
  <anchor x="524" y="708" name="top"/>
  <outline>
    <contour>
      <point x="672" y="0" type="curve"/>
      <point x="714" y="2"/>
      <point x="757" y="3"/>
      <point x="799" y="3" type="curve" smooth="yes"/>
      <point x="834" y="3"/>
      <point x="891" y="2"/>
      <point x="985" y="0" type="curve"/>
      <point x="985" y="70" type="line"/>
      <point x="893" y="82"/>
      <point x="864" y="97"/>
      <point x="839" y="156" type="curve" smooth="yes"/>
      <point x="807" y="232" type="line" smooth="yes"/>
      <point x="753" y="361"/>
      <point x="708" y="405"/>
      <point x="619" y="420" type="curve"/>
      <point x="598" y="364" type="line"/>
      <point x="781" y="567" type="line"/>
      <point x="840" y="631"/>
      <point x="870" y="652"/>
      <point x="904" y="652" type="curve"/>
      <point x="922" y="652"/>
      <point x="930" y="647"/>
      <point x="930" y="634" type="curve"/>
      <point x="930" y="609"/>
      <point x="906" y="591"/>
      <point x="906" y="563" type="curve"/>
      <point x="906" y="534"/>
      <point x="933" y="516"/>
      <point x="977" y="516" type="curve"/>
      <point x="1039" y="516"/>
      <point x="1078" y="552"/>
      <point x="1078" y="606" type="curve"/>
      <point x="1078" y="675"/>
      <point x="1019" y="722"/>
      <point x="949" y="722" type="curve"/>
      <point x="845" y="722"/>
      <point x="805" y="701"/>
      <point x="685" y="566" type="curve"/>
      <point x="571" y="440" type="line" smooth="yes"/>
      <point x="533" y="398"/>
      <point x="515" y="391"/>
      <point x="456" y="391" type="curve" smooth="yes"/>
      <point x="330" y="391" type="line"/>
      <point x="330" y="321" type="line"/>
      <point x="443" y="321" type="line" smooth="yes"/>
      <point x="528" y="321"/>
      <point x="564" y="298"/>
      <point x="596" y="222" type="curve" smooth="yes"/>
      <point x="641" y="116" type="line" smooth="yes"/>
      <point x="666" y="56"/>
      <point x="674" y="27"/>
    </contour>
    <contour>
      <point x="279" y="3" type="curve"/>
      <point x="289" y="3" type="line"/>
      <point x="300" y="3" type="line"/>
      <point x="359" y="3"/>
      <point x="477" y="2"/>
      <point x="529" y="0" type="curve"/>
      <point x="529" y="70" type="line"/>
      <point x="474" y="75" type="line"/>
      <point x="402" y="82"/>
      <point x="391" y="93"/>
      <point x="391" y="156" type="curve"/>
      <point x="391" y="708" type="line"/>
      <point x="357" y="706"/>
      <point x="323" y="705"/>
      <point x="289" y="705" type="curve"/>
      <point x="279" y="705" type="line"/>
      <point x="220" y="705"/>
      <point x="102" y="706"/>
      <point x="50" y="708" type="curve"/>
      <point x="50" y="638" type="line"/>
      <point x="105" y="633" type="line"/>
      <point x="177" y="626"/>
      <point x="188" y="615"/>
      <point x="188" y="552" type="curve"/>
      <point x="188" y="156" type="line"/>
      <point x="188" y="93"/>
      <point x="177" y="82"/>
      <point x="105" y="75" type="curve"/>
      <point x="50" y="70" type="line"/>
      <point x="50" y="0" type="line"/>
      <point x="102" y="2"/>
      <point x="220" y="3"/>
    </contour>
  </outline>
</glyph>
<glyph name="khook" format="2">
  <advance width="835"/>
  <unicode hex="0199"/>
  <anchor x="314" y="260" name="#entry"/>
  <anchor x="314" y="260" name="#exit"/>
  <anchor x="839" y="520" name="2ndTittle"/>
  <anchor x="495" y="0" name="^exit"/>
  <anchor x="134" y="520" name="bar"/>
  <anchor x="225" y="520" name="center"/>
  <anchor x="134" y="260" name="stem"/>
  <anchor x="375" y="773" name="top"/>
  <outline>
    <contour>
      <point x="134" y="260" type="line"/>
      <point x="314" y="260" type="line"/>
      <point x="314" y="556" type="line"/>
      <point x="314" y="670"/>
      <point x="346" y="712"/>
      <point x="433" y="712" type="curve"/>
      <point x="474" y="712"/>
      <point x="498" y="702"/>
      <point x="498" y="685" type="curve"/>
      <point x="498" y="669"/>
      <point x="474" y="651"/>
      <point x="474" y="624" type="curve"/>
      <point x="474" y="594"/>
      <point x="500" y="576"/>
      <point x="544" y="576" type="curve"/>
      <point x="605" y="576"/>
      <point x="646" y="611"/>
      <point x="646" y="665" type="curve"/>
      <point x="646" y="737"/>
      <point x="561" y="782"/>
      <point x="425" y="782" type="curve"/>
      <point x="237" y="782"/>
      <point x="134" y="689"/>
      <point x="134" y="518" type="curve"/>
    </contour>
    <component base="_LC-baseline-normal-narrow" xOffset="-2"/>
    <component base="_LC-k-legs" xOffset="257"/>
  </outline>
</glyph>
<glyph name="lambdastroke-latin" format="2">
  <advance width="813"/>
  <unicode hex="019B"/>
  <anchor x="422" y="0" name="bottom"/>
  <anchor x="422" y="250" name="center"/>
  <anchor x="422" y="773" name="top"/>
  <outline>
    <contour>
      <point x="345" y="112" type="curve"/>
      <point x="497" y="383" type="line"/>
      <point x="456" y="425" type="line"/>
      <point x="549" y="215" type="line"/>
      <point x="589" y="131"/>
      <point x="566" y="82"/>
      <point x="502" y="73" type="curve"/>
      <point x="477" y="70" type="line"/>
      <point x="477" y="0" type="line"/>
      <point x="524" y="2"/>
      <point x="577" y="3"/>
      <point x="629" y="3" type="curve"/>
      <point x="679" y="3"/>
      <point x="728" y="2"/>
      <point x="773" y="0" type="curve"/>
      <point x="773" y="70" type="line"/>
      <point x="750" y="73" type="line"/>
      <point x="698" y="80"/>
      <point x="682" y="107"/>
      <point x="635" y="205" type="curve"/>
      <point x="453" y="603" type="line"/>
      <point x="420" y="603" type="line"/>
      <point x="144" y="123" type="line"/>
      <point x="121" y="84"/>
      <point x="89" y="75"/>
      <point x="40" y="71" type="curve"/>
      <point x="40" y="0" type="line"/>
      <point x="90" y="2"/>
      <point x="144" y="3"/>
      <point x="218" y="3" type="curve"/>
      <point x="246" y="3"/>
      <point x="277" y="2"/>
      <point x="310" y="0" type="curve"/>
      <point x="308" y="37"/>
      <point x="321" y="71"/>
    </contour>
    <contour>
      <point x="209" y="470" type="line"/>
      <point x="438" y="557" type="line"/>
      <point x="407" y="614" type="line"/>
      <point x="185" y="531" type="line"/>
    </contour>
    <contour>
      <point x="425" y="494" type="line"/>
      <point x="495" y="508" type="line"/>
      <point x="418" y="684" type="line" smooth="yes"/>
      <point x="389" y="750"/>
      <point x="338" y="782"/>
      <point x="259" y="782" type="curve" smooth="yes"/>
      <point x="168" y="782"/>
      <point x="104" y="739"/>
      <point x="104" y="678" type="curve" smooth="yes"/>
      <point x="104" y="638"/>
      <point x="131" y="613"/>
      <point x="173" y="613" type="curve" smooth="yes"/>
      <point x="206" y="613"/>
      <point x="228" y="629"/>
      <point x="228" y="652" type="curve" smooth="yes"/>
      <point x="228" y="668"/>
      <point x="218" y="679"/>
      <point x="218" y="692" type="curve" smooth="yes"/>
      <point x="218" y="709"/>
      <point x="232" y="717"/>
      <point x="263" y="717" type="curve" smooth="yes"/>
      <point x="313" y="717"/>
      <point x="335" y="699"/>
      <point x="357" y="648" type="curve" smooth="yes"/>
    </contour>
    <contour>
      <point x="438" y="557" type="line"/>
      <point x="656" y="638" type="line"/>
      <point x="633" y="698" type="line"/>
      <point x="407" y="614" type="line"/>
    </contour>
  </outline>
</glyph>
<glyph name="Mturned" format="2">
  <advance width="1751"/>
  <unicode hex="019C"/>
  <anchor x="876" y="0" name="bottom"/>
  <anchor x="876" y="708" name="top"/>
  <outline>
    <contour>
      <point x="523" y="-14" type="curve" smooth="yes"/>
      <point x="681" y="-14"/>
      <point x="775" y="42"/>
      <point x="840" y="175" type="curve"/>
      <point x="798" y="219" type="line"/>
      <point x="747" y="118"/>
      <point x="675" y="71"/>
      <point x="569" y="71" type="curve" smooth="yes"/>
      <point x="448" y="71"/>
      <point x="391" y="132"/>
      <point x="391" y="264" type="curve" smooth="yes"/>
      <point x="391" y="552" type="line"/>
      <point x="391" y="615"/>
      <point x="401" y="626"/>
      <point x="469" y="633" type="curve"/>
      <point x="515" y="638" type="line"/>
      <point x="515" y="708" type="line"/>
      <point x="463" y="706"/>
      <point x="354" y="705"/>
      <point x="299" y="705" type="curve"/>
      <point x="290" y="705" type="line"/>
      <point x="279" y="705" type="line"/>
      <point x="220" y="705"/>
      <point x="102" y="706"/>
      <point x="50" y="708" type="curve"/>
      <point x="50" y="638" type="line"/>
      <point x="105" y="633" type="line"/>
      <point x="177" y="626"/>
      <point x="188" y="615"/>
      <point x="188" y="552" type="curve"/>
      <point x="188" y="288" type="line" smooth="yes"/>
      <point x="188" y="94"/>
      <point x="307" y="-14"/>
    </contour>
    <contour>
      <point x="1104" y="-14" type="curve" smooth="yes"/>
      <point x="1252" y="-14"/>
      <point x="1341" y="39"/>
      <point x="1411" y="170" type="curve"/>
      <point x="1376" y="208" type="line"/>
      <point x="1317" y="110"/>
      <point x="1253" y="71"/>
      <point x="1156" y="71" type="curve" smooth="yes"/>
      <point x="1034" y="71"/>
      <point x="977" y="132"/>
      <point x="977" y="264" type="curve" smooth="yes"/>
      <point x="977" y="552" type="line"/>
      <point x="977" y="615"/>
      <point x="987" y="626"/>
      <point x="1055" y="633" type="curve"/>
      <point x="1101" y="638" type="line"/>
      <point x="1101" y="708" type="line"/>
      <point x="1049" y="706"/>
      <point x="940" y="705"/>
      <point x="885" y="705" type="curve"/>
      <point x="876" y="705" type="line"/>
      <point x="866" y="705" type="line"/>
      <point x="812" y="705"/>
      <point x="702" y="706"/>
      <point x="650" y="708" type="curve"/>
      <point x="650" y="638" type="line"/>
      <point x="696" y="634" type="line"/>
      <point x="764" y="626"/>
      <point x="774" y="615"/>
      <point x="774" y="552" type="curve"/>
      <point x="774" y="288" type="line" smooth="yes"/>
      <point x="774" y="95"/>
      <point x="894" y="-14"/>
    </contour>
    <contour>
      <point x="1360" y="0" type="line"/>
      <point x="1360" y="70" type="line"/>
      <point x="1360" y="-10" type="line"/>
      <point x="1433" y="-1"/>
      <point x="1506" y="3"/>
      <point x="1605" y="3" type="curve"/>
      <point x="1648" y="3"/>
      <point x="1671" y="2"/>
      <point x="1701" y="1" type="curve"/>
      <point x="1701" y="71" type="line"/>
      <point x="1646" y="76" type="line"/>
      <point x="1574" y="83"/>
      <point x="1563" y="94"/>
      <point x="1563" y="157" type="curve"/>
      <point x="1563" y="552" type="line"/>
      <point x="1563" y="615"/>
      <point x="1574" y="626"/>
      <point x="1646" y="633" type="curve"/>
      <point x="1701" y="638" type="line"/>
      <point x="1701" y="708" type="line"/>
      <point x="1649" y="706"/>
      <point x="1531" y="705"/>
      <point x="1472" y="705" type="curve"/>
      <point x="1462" y="705" type="line"/>
      <point x="1452" y="705" type="line"/>
      <point x="1398" y="705"/>
      <point x="1288" y="706"/>
      <point x="1236" y="708" type="curve"/>
      <point x="1236" y="638" type="line"/>
      <point x="1282" y="634" type="line"/>
      <point x="1350" y="626"/>
      <point x="1360" y="615"/>
      <point x="1360" y="552" type="curve"/>
    </contour>
  </outline>
</glyph>
<glyph name="nlongrightleg" format="2">
  <advance width="854"/>
  <unicode hex="019E"/>
  <anchor x="134" y="260" name="#entry"/>
  <anchor x="314" y="260" name="#exit"/>
  <anchor x="-162" y="0" name="%entry"/>
  <anchor x="134" y="0" name="%exit"/>
  <anchor x="-2" y="0" name="^entry"/>
  <anchor x="434" y="0" name="^exit"/>
  <anchor x="454" y="0" name="bottom"/>
  <anchor x="314" y="260" name="reversedExit"/>
  <anchor x="134" y="260" name="stem"/>
  <anchor x="425" y="520" name="top"/>
  <anchor x="314" y="519" name="topright"/>
  <outline>
    <contour>
      <point x="224" y="3" type="curve"/>
      <point x="224" y="3" type="line"/>
      <point x="224" y="3" type="line"/>
      <point x="297" y="3"/>
      <point x="360" y="1"/>
      <point x="418" y="0" type="curve"/>
      <point x="418" y="70" type="line"/>
      <point x="386" y="73" type="line"/>
      <point x="331" y="78"/>
      <point x="314" y="96"/>
      <point x="314" y="156" type="curve"/>
      <point x="314" y="260" type="line"/>
      <point x="134" y="260" type="line"/>
      <point x="134" y="156" type="line"/>
      <point x="134" y="96"/>
      <point x="117" y="78"/>
      <point x="62" y="73" type="curve"/>
      <point x="30" y="70" type="line"/>
      <point x="30" y="0" type="line"/>
      <point x="88" y="1"/>
      <point x="151" y="3"/>
    </contour>
    <contour>
      <point x="134" y="260" type="line"/>
      <point x="314" y="260" type="line"/>
      <point x="314" y="519" type="line"/>
      <point x="314" y="530" type="line"/>
      <point x="266" y="522"/>
      <point x="210" y="517"/>
      <point x="134" y="517" type="curve"/>
      <point x="80" y="517"/>
      <point x="60" y="518"/>
      <point x="30" y="519" type="curve"/>
      <point x="30" y="449" type="line"/>
      <point x="62" y="446" type="line"/>
      <point x="117" y="441"/>
      <point x="134" y="420"/>
      <point x="134" y="353" type="curve"/>
    </contour>
    <contour>
      <point x="554" y="260" type="line"/>
      <point x="734" y="260" type="line"/>
      <point x="734" y="325" type="line" smooth="yes"/>
      <point x="734" y="460"/>
      <point x="663" y="533"/>
      <point x="529" y="533" type="curve" smooth="yes"/>
      <point x="415" y="533"/>
      <point x="327" y="468"/>
      <point x="263" y="339" type="curve"/>
      <point x="284" y="304" type="line"/>
      <point x="325" y="383"/>
      <point x="378" y="421"/>
      <point x="445" y="421" type="curve" smooth="yes"/>
      <point x="521" y="421"/>
      <point x="554" y="381"/>
      <point x="554" y="307" type="curve" smooth="yes"/>
    </contour>
    <contour>
      <point x="644" y="-228" type="curve"/>
      <point x="644" y="-228" type="line"/>
      <point x="644" y="-228" type="line"/>
      <point x="717" y="-228"/>
      <point x="780" y="-230"/>
      <point x="838" y="-231" type="curve"/>
      <point x="838" y="-161" type="line"/>
      <point x="806" y="-158" type="line"/>
      <point x="751" y="-153"/>
      <point x="734" y="-135"/>
      <point x="734" y="-75" type="curve"/>
      <point x="734" y="260" type="line"/>
      <point x="554" y="260" type="line"/>
      <point x="554" y="-75" type="line"/>
      <point x="554" y="-135"/>
      <point x="537" y="-153"/>
      <point x="482" y="-158" type="curve"/>
      <point x="450" y="-161" type="line"/>
      <point x="450" y="-231" type="line"/>
      <point x="508" y="-230"/>
      <point x="571" y="-228"/>
    </contour>
  </outline>
</glyph>
<glyph name="phook" format="2">
  <advance width="813"/>
  <unicode hex="01A5"/>
  <anchor x="314" y="260" name="#entry"/>
  <anchor x="314" y="260" name="#exit"/>
  <anchor x="839" y="520" name="2ndTittle"/>
  <anchor x="495" y="0" name="^exit"/>
  <anchor x="134" y="520" name="bar"/>
  <anchor x="453" y="-231" name="bottom"/>
  <anchor x="225" y="520" name="center"/>
  <anchor x="134" y="0" name="lower-left"/>
  <anchor x="134" y="260" name="stem"/>
  <anchor x="375" y="773" name="top"/>
  <anchor x="134" y="520" name="top-left"/>
  <outline>
    <contour>
      <point x="134" y="260" type="line"/>
      <point x="314" y="260" type="line"/>
      <point x="314" y="556" type="line"/>
      <point x="314" y="670"/>
      <point x="346" y="712"/>
      <point x="433" y="712" type="curve"/>
      <point x="474" y="712"/>
      <point x="498" y="702"/>
      <point x="498" y="685" type="curve"/>
      <point x="498" y="669"/>
      <point x="474" y="651"/>
      <point x="474" y="624" type="curve"/>
      <point x="474" y="594"/>
      <point x="500" y="576"/>
      <point x="544" y="576" type="curve"/>
      <point x="605" y="576"/>
      <point x="646" y="611"/>
      <point x="646" y="665" type="curve"/>
      <point x="646" y="737"/>
      <point x="561" y="782"/>
      <point x="425" y="782" type="curve"/>
      <point x="237" y="782"/>
      <point x="134" y="689"/>
      <point x="134" y="518" type="curve"/>
    </contour>
    <contour>
      <point x="224" y="-228" type="curve"/>
      <point x="224" y="-228" type="line"/>
      <point x="224" y="-228" type="line"/>
      <point x="308" y="-228"/>
      <point x="381" y="-230"/>
      <point x="448" y="-231" type="curve"/>
      <point x="448" y="-161" type="line"/>
      <point x="386" y="-156" type="line"/>
      <point x="331" y="-152"/>
      <point x="314" y="-135"/>
      <point x="314" y="-75" type="curve"/>
      <point x="314" y="260" type="line"/>
      <point x="134" y="260" type="line"/>
      <point x="134" y="-75" type="line"/>
      <point x="134" y="-135"/>
      <point x="117" y="-153"/>
      <point x="62" y="-158" type="curve"/>
      <point x="30" y="-161" type="line"/>
      <point x="30" y="-231" type="line"/>
      <point x="88" y="-230"/>
      <point x="151" y="-228"/>
    </contour>
    <contour>
      <point x="498" y="476" type="curve" smooth="yes"/>
      <point x="406" y="476"/>
      <point x="332" y="437"/>
      <point x="300" y="373" type="curve"/>
      <point x="309" y="307" type="line"/>
      <point x="332" y="351"/>
      <point x="373" y="374"/>
      <point x="428" y="374" type="curve" smooth="yes"/>
      <point x="518" y="374"/>
      <point x="567" y="321"/>
      <point x="567" y="226" type="curve" smooth="yes"/>
      <point x="567" y="127"/>
      <point x="513" y="73"/>
      <point x="413" y="73" type="curve" smooth="yes"/>
      <point x="357" y="73"/>
      <point x="314" y="92"/>
      <point x="287" y="129" type="curve"/>
      <point x="274" y="41" type="line"/>
      <point x="330" y="5"/>
      <point x="391" y="-13"/>
      <point x="462" y="-13" type="curve" smooth="yes"/>
      <point x="640" y="-13"/>
      <point x="754" y="84"/>
      <point x="754" y="237" type="curve" smooth="yes"/>
      <point x="754" y="379"/>
      <point x="650" y="476"/>
    </contour>
  </outline>
</glyph>
